/* XPM */
static char *_a4a4504ec1e444ccacd7af955f9dff0wPATcYcgd4zxZqNZ[] = {
/* columns rows colors chars-per-pixel */
"80 80 213 2 ",
"   c None",
".  c #010101",
"X  c #090605",
"o  c #0B0905",
"O  c #01030B",
"+  c #0B0B0A",
"@  c #08080A",
"#  c #130D0C",
"$  c #140A08",
"%  c #12110E",
"&  c #1A1902",
"*  c #020513",
"=  c #02071B",
"-  c #03091D",
";  c #070A18",
":  c #140E18",
">  c #0E1016",
",  c #141212",
"<  c #1B1212",
"1  c #181816",
"2  c #1B1A1B",
"3  c #1E1619",
"4  c #231514",
"5  c #231913",
"6  c #241D1A",
"7  c #2C1C1B",
"8  c #281A16",
"9  c #331B1B",
"0  c #21140F",
"q  c #2A231E",
"w  c #26221C",
"e  c #332119",
"r  c #39251B",
"t  c #040A24",
"y  c #040C2B",
"u  c #090F28",
"i  c #161625",
"p  c #040E34",
"a  c #050F39",
"s  c #061036",
"d  c #0B1435",
"f  c #06113C",
"g  c #08133C",
"h  c #141C39",
"j  c #201E39",
"k  c #1D243F",
"l  c #2D2422",
"z  c #2A2928",
"x  c #3C2B2B",
"c  c #372826",
"v  c #3E3B3C",
"b  c #383536",
"n  c #322B36",
"m  c #413E06",
"M  c #43291E",
"N  c #441F29",
"B  c #432D29",
"V  c #44332A",
"C  c #58382A",
"Z  c #453331",
"A  c #4C3535",
"S  c #543A3A",
"D  c #623F31",
"F  c #54443D",
"G  c #694A3C",
"H  c #6A4635",
"J  c #724B3A",
"K  c #061243",
"L  c #06154C",
"P  c #08164C",
"I  c #08184A",
"U  c #0A1A56",
"Y  c #091B5A",
"T  c #071757",
"R  c #161C46",
"E  c #1C2547",
"W  c #1C2B5B",
"Q  c #312E4F",
"!  c #2C2B55",
"~  c #0A1D64",
"^  c #091D6A",
"/  c #041A6A",
"(  c #091E71",
")  c #031E7C",
"_  c #051E77",
"`  c #0C216A",
"'  c #0B2067",
"]  c #0B2273",
"[  c #0B237C",
"{  c #05207B",
"}  c #122572",
"|  c #322F62",
" . c #3C3A74",
".. c #323461",
"X. c #673249",
"o. c #413F7A",
"O. c #484848",
"+. c #584B43",
"@. c gray37",
"#. c #69544A",
"$. c #745E54",
"%. c #75554B",
"&. c #776353",
"*. c #696565",
"=. c #7D7575",
"-. c #80503B",
";. c #DC5536",
":. c #D74B30",
">. c #98345F",
",. c #875843",
"<. c #9E5F43",
"1. c #8F6654",
"2. c #AF715D",
"3. c #A85867",
"4. c #95776A",
"5. c #917569",
"6. c #B27A62",
"7. c #D87055",
"8. c #C1527C",
"9. c #DB7871",
"0. c #9D8174",
"q. c #AB8676",
"w. c #BD856C",
"e. c #C98769",
"r. c #D58866",
"t. c #DB9778",
"y. c #E89878",
"u. c #EEA17E",
"i. c #FFA57B",
"p. c #021F82",
"a. c #052283",
"s. c #0B2583",
"d. c #0D2985",
"f. c #0B2689",
"g. c #0C298D",
"h. c #07288A",
"j. c #142D8C",
"k. c #0E2C92",
"l. c #0F2F9A",
"z. c #142E93",
"x. c #14339A",
"c. c #1D3696",
"v. c #23398D",
"b. c #253898",
"n. c #1E3CA4",
"m. c #2D3FA5",
"M. c #403F8A",
"N. c #3D4196",
"B. c #2D42A6",
"V. c #3847A9",
"C. c #3D48B1",
"Z. c #514F97",
"A. c #494896",
"S. c #5A57AC",
"D. c #4F55B7",
"F. c #5859B4",
"G. c #4349AD",
"H. c #615FB6",
"J. c #5A59C3",
"K. c #6E6FDB",
"L. c #E93D89",
"P. c #D34C85",
"I. c #EB538A",
"U. c #F3579B",
"Y. c #ED4B91",
"T. c #ED7098",
"R. c #EA78A7",
"E. c #F47BA6",
"W. c #F57CB2",
"Q. c #EA66A0",
"!. c #969595",
"~. c #8E8888",
"^. c #BB9786",
"/. c #AE8094",
"(. c #C69986",
"). c #DB9A80",
"_. c #EB869D",
"`. c #F28E9F",
"'. c #EF9A8B",
"]. c #CCA593",
"[. c #D5A895",
"{. c #DDAA94",
"}. c #EBA587",
"|. c #F4AC8C",
" X c #F9A986",
".X c #E7AB95",
"XX c #E4B29D",
"oX c #E9B49D",
"OX c #ECB296",
"+X c #F9B79A",
"@X c #F086B3",
"#X c #E6B7A1",
"$X c #E6BCA4",
"%X c #EBBAA4",
"&X c #E8BCA8",
"*X c #E8B5A0",
"=X c #F3BCA5",
"-X c #F2BFA9",
";X c #F6A0A4",
":X c #EAC0AA",
">X c #F6C4AD",
",X c #FCC5AC",
"<X c #F3C5A7",
"1X c #F4C5B1",
"2X c #F9C9B5",
"3X c #FCBED8",
"4X c #CFCECE",
"5X c #D8D4D4",
"6X c #E0DFDE",
"7X c #FFD7C1",
"8X c white",
"9X c #F3F0F0",
"0X c #E4E3E3",
/* pixels */
"                                                                                                                                                                ",
"                                                                                                                                                                ",
"                                                                                                                                                                ",
"                                                                                                                                                                ",
"                                                                                                                                                                ",
"                                                                                                                                                                ",
"                                                                                                                                                                ",
"                                                                                                                                                                ",
"                                                                        1 < + . . o % ,                                                                         ",
"                                                                  X X . O * = t y = = O . . . .                                                                 ",
"                                                              @ . : R ~ [ z.g.k.k.f.k.d.( Y t . @ X                                                             ",
"                                                            o X  .b.z.s.s.s.[ s.d.[ g.f.f.[ p t * . +                                                           ",
"                                                          , O S.G.a.s.f.f.k.f.g.k.s.[ ~ K p y p p - O O                                                         ",
"                                                          . A.K.z.s.d.] Y P g p p t y t y g p p p p y . @                                                       ",
"                                                        . ; J.N.K * . . . . . . . . . . . . * t p y p = .                                                       ",
"                                                        . : i . . i Q o.Z.F.F.H.H.S.Z. .! ; O . O = p y . 1                                                     ",
"                                                        @ . : | A.D.D.C.B.m.b.m.B.b.B.m.b.x.` = . . O t . +                                                     ",
"                                                      . @  .G.m.z.) a.) _ ) / ( ) / { ) ) g.f.( p * . . . .                                                     ",
"                                                  2 @ j F.B.s.h.g.s.] L y t * * * * - t p U ~ s.[ a p = . .                                                     ",
"                                                  . ! J.c.a.g.s.P - . . . . . . . . . . . . O t K g p p = . 1                                                   ",
"                                                . | D.s.p.s.K O . . X # < 4 4 : X X 7 6 < + . . . = p y y = @ @                                                 ",
"                                              @ E F.x.g.} * . X @ . x Z Z A c $ . # S A B 9 # . . . * p p K * X                                                 ",
"                                              @ M.b.a.T . X < 7 X . , x c 9 4 . . @ x x 4 4 . . < $ . = y p y . @                                               ",
"                                            o j C.a.` . + l x # . r . # 8 7 + + 5 . , < X . 5 X # 7 # . t p g - .                                               ",
"                                            . ..b.] - + c A l X 6 e.e . . . . V u.<.. . X H 6.& . 7 8 X . p E E . +                                             ",
"                                            . ' s.u . 3 x 7 # . q.+Xi.,.M e <.y.OXy.y.r.7. X|.,.. # 7 X @ E k h . 1                                             ",
"                                            . ] Y . . . . . . 4.&X1.z 6.y.|.|.=X$XoX(.%.w ^.>X).7 . X o > i d p O .                                             ",
"                                            . Y y . 8 D X X 4.%X$Xc O . 0.1XXX$X*X<XZ . . $.:X:XOXC # % 7 w O t O @                                             ",
"                                            . t . 6 {.i.< q =X;X3.. X . q.=X.X*XXX=X#.O X $ I.T.'.i.G O r.w.. * . 1                                             ",
"                                            . ; O 7 2X+X0 l `.Y.@X4 . . (.<XXX#X%X-X1.. . X.W.Q.Y.'.V 1 |.].@ . .                                               ",
"                                              . . + $.[.q < P.W.3XX.9 $.%X%XXX%X%XoXXXF N /.@XE.U.9.w q ^.q . O @                                               ",
"                                              + O O . . . . >.Y.R.R.Y.&Xy.7.*X&X7.7.<X,XT.W.R.L.Q.%.. X . O * . 1                                               ",
"                                                . * p * = O + P.U.Y._.#X*X;.9.t.;.XX:X#XXXR.T.E.2.. O ; = p * .                                                 ",
"                                                . . = p a t . < 3._.%X.X*X*X:.:..XXXXXXXXX,Xu.%.o O y p p O .                                                   ",
"                                                  + . O y a t . : &.].-X%X1X}.}.1XoX,X=X}.2.x . * y p y . + +                                                   ",
"                                                    % @ O t p t X . % +.4.^.].[.].^.0.G e . . - K p t . @                                                       ",
"                                                        X . . . O . . . O . . . . . . . . O . O = . . +                                                         ",
"                                                          1 . t K * . s t @ z v . - g * . d.K . . @                                                             ",
"                                                          @ * T y O . y g . *.*.. U Y * . K k.t @                                                               ",
"                                                          . L Y . . . p s . z l O Y K . O @ / g.t .                                                             ",
"                                                        @ - k.t . ~ * O Y * . . s ' = . ~ . g l.` . +                                                           ",
"                                                      @ O ` ^ . * s.P * @ t . . s ; . T s.t . ~ k.t .                                                           ",
"                                                      . g k.K . K s.k.~ O . . . . O U d.f.P . t s.^ .                                                           ",
"                                                    , O s.k.- . ` h.s.k.I * . o * T l.j.s.d.. O T s.; .                                                         ",
"                                                    X a g.] O O [ s.s.s.^ * & & O ] h.s.[ g.t . y ( a .                                                         ",
"                                                    . ^ k.' . y z.v.j.f.' . r m . ` k.s.[ x.s . y K g .                                                         ",
"                                                  , O [ g.T . d c.v.c.f.~ t . . O ] k.d.s.l.U . y p * .                                                         ",
"                                                  . t f.k.P o E v.[ s.s.K - . . = T g.s.[ k.P . * O . . .                                                       ",
"                                                  , O y p u o W m.h.k.h.L * . . * p ] s.[ [ a . # 5 e . ,                                                       ",
"                                                  + . X $ # % - ~ Y ` ~ y . O * . y t = * * . o (..X}.C +                                                       ",
"                                                . w q.].).e.% . . . . . . . O * . . . . . . . % {.XX+X-..                                                       ",
"                                                . x 7X%X=Xt.o y ' Y ' Y ' ] ' K t = t p p g . q 2X=Xr.M X                                                       ",
"                                                + 6 ^.1X,X6.. U k.s.k.f.K P ] [ ` L L p p a O + #.C # .                                                         ",
"                                                  > < F G B . ~ g.{ s.[ . . . y k.s.f.a.T p * . . . @                                                           ",
"                                                    , . . . . P g.h.l.g.f y . - z.s.k.k.] f O @                                                                 ",
"                                                          X . = p L ~ T p s O ; h.s.g.g.( - . X                                                                 ",
"                                                            % . O = y t y - . O ^ ^ ] P * . @                                                                   ",
"                                                              @ . . . . . . o @ . . . . . +                                                                     ",
"                                                                . o F G e .     o + #.e.r @                                                                     ",
"                                                                X . $.t.J .     o . b J . .                                                                     ",
"                                                                  . . . . .       . . . b X +                                                                   ",
"                                                                  . v !.Z O       X 2 4X5X2 .                                                                   ",
"                                                                  . @.8X=..       @ . 4X9Xn .                                                                   ",
"                                                                  + + 5X~..         . O.8X*..                                                                   ",
"                                                                + . . 6X~.. @       . , !.O.. +                                                                 ",
"                                                              . . . . *.w . .       @ . . . . . %                                                               ",
"                                                              . < % X . . . ,       + X 6 6 # # . ,                                                             ",
"                                                              . @ # < + . +         + . # < + . X                                                               ",
"                                                                @ . . . .             . . . . + ,                                                               ",
"                                                                                                                                                                ",
"                                                                                                                                                                ",
"                                                                                                                                                                ",
"                                                                                                                                                                ",
"                                                                                                                                                                ",
"                                                                                                                                                                ",
"                                                                                                                                                                ",
"                                                                                                                                                                ",
"                                                                                                                                                                ",
"                                                                                                                                                                ",
"                                                                                                                                                                "
};
