/* XPM */
static char *c1673087123[] = {
/* columns rows colors chars-per-pixel */
"40 40 187 2 ",
"   c #BF350E",
".  c #B83A13",
"X  c #DB2809",
"o  c #DE350E",
"O  c #CB3A17",
"+  c #D93B16",
"@  c #EA2C05",
"#  c #E22F0C",
"$  c #E4310B",
"%  c #F33304",
"&  c #F03B0C",
"*  c #EC3E12",
"=  c #AF4C18",
"-  c #BA481A",
";  c #AA591E",
":  c #9D5F2B",
">  c #BE4E22",
",  c #AE5525",
"<  c #A45824",
"1  c #B65726",
"2  c #9A6D29",
"3  c #8A7C32",
"4  c #A36E29",
"5  c #AC6D36",
"6  c #B46A3D",
"7  c #A27835",
"8  c #C24617",
"9  c #DB421A",
"0  c #F3430F",
"q  c #EB4215",
"w  c #EB441B",
"e  c #F1461B",
"r  c #DC4926",
"t  c #DB582E",
"y  c #DC4E33",
"u  c #CC5D33",
"i  c #EC4B21",
"p  c #E44D29",
"a  c #F44B24",
"s  c #F44B2C",
"d  c #EA5628",
"f  c #F34D31",
"g  c #E25C35",
"h  c #EE5B37",
"j  c #F35C35",
"k  c #C26436",
"l  c #D2603E",
"z  c #E76637",
"x  c #F0603C",
"c  c #DC7C57",
"v  c #E56943",
"b  c #ED6F43",
"n  c #F46642",
"m  c #ED7445",
"M  c #E77548",
"N  c #F1754A",
"B  c #E47D59",
"V  c #F07353",
"C  c #5F9918",
"Z  c #659D1D",
"A  c #68A11D",
"S  c #768D2C",
"D  c #669D20",
"F  c #7E9D37",
"G  c #67A120",
"H  c #6CA424",
"J  c #6DA927",
"K  c #6DA52A",
"L  c #6FAB2C",
"P  c #73AD27",
"I  c #71A52B",
"U  c #73AC2C",
"Y  c #7AAE2F",
"T  c #75B12F",
"R  c #79B22E",
"E  c #75AD32",
"W  c #78A835",
"Q  c #79AF34",
"!  c #7AA43E",
"~  c #76B231",
"^  c #7BB334",
"/  c #7EB937",
"(  c #7DB639",
")  c #7EBA3A",
"_  c #5B9746",
"`  c #6EA547",
"'  c #7AAA48",
"]  c #7EB441",
"[  c #7EB840",
"{  c #8A8531",
"}  c #8C8B34",
"|  c #968737",
" . c #8B9A3B",
".. c #94943C",
"X. c #909938",
"o. c #82A83B",
"O. c #80B635",
"+. c #82BB36",
"@. c #82B63C",
"#. c #83BC3C",
"$. c #88BF3D",
"%. c #86C13E",
"&. c #8AC33D",
"*. c #9A9242",
"=. c #9F9452",
"-. c #A48C4F",
";. c #B38C57",
":. c #8AA843",
">. c #89A949",
",. c #99A54C",
"<. c #83B645",
"1. c #85BD42",
"2. c #89BE44",
"3. c #8BBD4C",
"4. c #88AE53",
"5. c #97AE54",
"6. c #9CA65B",
"7. c #9BAB5B",
"8. c #93B253",
"9. c #9CB65E",
"0. c #9BBB5A",
"q. c #B69C63",
"w. c #9BAC65",
"e. c #9CB664",
"r. c #A6AB65",
"t. c #B7A66B",
"y. c #A3B361",
"u. c #A3BA64",
"i. c #B2B86F",
"p. c #BAAD75",
"a. c #BBB679",
"s. c #C9885B",
"d. c #DC8759",
"f. c #F38256",
"g. c #DC976E",
"h. c #D89772",
"j. c #EA8260",
"k. c #E68862",
"l. c #EA9366",
"z. c #E29973",
"x. c #D0AA7B",
"c. c #C1B478",
"v. c #EDA77B",
"b. c #ECA878",
"n. c #F3A57C",
"m. c #86C242",
"M. c #8BC444",
"N. c #8DC946",
"B. c #8DC54A",
"V. c #8ECA4A",
"C. c #90C747",
"Z. c #91CA46",
"A. c #90C64A",
"S. c #92CB4B",
"D. c #98CD4A",
"F. c #95D04D",
"G. c #9BD24E",
"H. c #8DC554",
"J. c #8EC850",
"K. c #95C254",
"L. c #95CD52",
"P. c #98CE56",
"I. c #97C75B",
"U. c #96D152",
"Y. c #9AD254",
"T. c #9DD956",
"R. c #97D05A",
"E. c #9CD459",
"W. c #9FD959",
"Q. c #AAC85E",
"!. c #A0D856",
"~. c #A1D65C",
"^. c #A2DB5C",
"/. c #9DCA60",
"(. c #9FD863",
"). c #A5DC62",
"_. c #A9DF64",
"`. c #ABE364",
"'. c #ABE668",
"]. c #B2E96C",
"[. c #B5ED72",
"{. c #D6AF82",
"}. c #CBB788",
"|. c #D3B68B",
" X c #DCB58A",
".X c #DCBA91",
"XX c #F5B283",
/* pixels */
"D.D.O.Z H $.C.&.%.A.S.1./ 1.V.V.V.N.S.N.M.&.N.S.D.) A / N.$.S.N.N.N.m.m.m.L N.&.",
"&.G.Z.+.$.C.D.2.C.B.$.E L ) V.L.m.B.C.m.M.D.D.V.M.S.m.m.$.m.D.S.V.V.N.) ~ L N.N.",
"$.Z.D.C.C.A.$.$.N.B.N.M.#.M.J.V.S.S.#.P U %.S.V.M.C.F.m.%.C.1./ m.V.m.m.~ ) N.%.",
"D.D.C.&.D.D.D.D.2.B.E.^.Y.L.V.N.`.!.%.^ / M.S.D.N.%.G.D.C.m.K P m.N.m.F.N.T.F.%.",
"D.$.O.O.C.C.$.$.M.B.Y.E.V.[ 1.B.!.D.N.S.S.N.M.M.N.N.`.!.S.%.R m.N.N.N.F.N.F.N.V.",
"3.+.Y O.C.M.Q I M.M.L.R.1.E ~ M.N.#.$.A.S.m.M.D.M.N.G.M.M.D.C.N.N.N.V.N.~ ~ ) F.",
"Z.D.2.C.P.S.$.@.N.1.U.W.V.( m.U.V.N.N.N.C.C.G.^.M.#.U / N.S.D.m.N.m.T.m.~ ~ ) F.",
"$.3.C.2.C.C.C.A.U.N.J.E.U.m.T.'.m.S.D.S.M.M.G.T.$./ H M.S.+.M.S.N.m.'.V.V.V.V.m.",
"D.A.A.C.A.A.L.B.K Z A.2.V.V.B.( D.$.$.C.N./ ^ $.D.S.V.M.M.C.D.F.V.N.%.m.V.m.~ J ",
"o.O.@.2.B.1.@.S.Q ^ S.A.M.L.M.B.G J #.D.m.Y P ^ $.#.m.V.D.%.T H %.N.N.m.N.%.~ L ",
"@.A 2.].I E B.B.M.A.A.A.m.S.%.S.~ @.o.,.r.;.y f V z.t.r...S ^ T N.F.V.N.N.m.N.V.",
"@.2.3._.@.@.@.^.U.E.V.B.N.S.m.D.B. .4 k k.j.f a s h B d.1 < %.S.&.V.V.m.m.N.N.F.",
"@.Q.K.^.L.L.#._.E.L.1.) Y.V.V.<.{ ; q * a s s n f.x e q i v S.U.M.S.F.N.S.V.M.m.",
"P.~.P.^.P.~.A.A.A.m.( E V.m.B.X., g f.z e 0 j n.XXj % % a N C.N.S.V.%.^ &.S.S.S.",
"K._.<.<.).).@.K.M.1.^ ^ ^ E m.| 9 z b.b.d % z l.M & 0 d w $ S.#.M.%.U H ~ M.N.S.",
"D.Q I ( <.P.^.A.A.A.#.B.K K 1...- 9 t M d q m z q % q z 9 X Y.^.S.A.M.#.S.F.V.2.",
"V.m.1.1.m.Y.(.L.A.B.P.A.P.).A.3...; = O o d k.v $ @ # + O . I.E.B.<.B.L.<.^ #.B.",
"V.V.N.N.B.V.m.^ ^ B.~.~.)._.A.2.&.@.X.2 ; < 6 l t 8 , , : 3 1.L.'.Y.B.3.E K <.A.",
"V.U.L.V.V.B.( L ( A.8.:.5.0.3.Y.&.$.%.@. .F =.h.g.-.:.:.o.<.Q B.L.B.S.Y.V.m.N.S.",
"V.U.m.) V.V.m.N.P.^.5 k ;.q.*.Q.C.+.+.$.m.2.r. X{.r.I.L.E K 3.[.A.C.T.^.R.S.A.C.",
"m.m.~ L m.V.V.S.1.B.g j B B > 7 o.R #.C.C.M.5.{.x.6.L.R.( L B.E.~ %.Y.G.D.&.&.&.",
"V.m./ / m.B.B.N.S.V.V s l.v.z u | I $.C.&.M.0.|.|.9.( B.L.B.B.D H ^ N.N.+.&.&.&.",
"V.N.m.N.N.N.V.M.A.N.m * b v.B r 1 } S.N.#.@.y..Xc.:.^ m.B.2.P.m.N.D.Z.R A P &.&.",
"N.%.V.F.N.N.S.S.m.S.q @ # p r o . | C.S.Z.K.a..X6.I 1.D.A.B.M.B.%.S.G.&./ &.C.%.",
"N.N.N.F.F.m./ %.L.@.8 8 O   . - 2 o.S.( H 0.|..X7.M.A.U.V.m.B.B.L.E E m.B.B.D.m.",
"V.V.F.&.%.T L / D.L.3 c s.3 } ..:.N.#.( W 5.}.|.u.P.S.1.Y E m.A.L.W K ) A.L.S.#.",
"&.N.F.V.N.%.+.V.m.N.>.p.}.0.B.A.2.D.[ B.K.i. Xa.3.D.V.#.I ^ N.A.B.B.L.P.A.1.1.L.",
"V.V.&.&.N.&.%.m.^ H ! w.r.8.M.I K 2.( H./.a.}.6.W $.A.A.m.N.S.1.) m.<.1.V.#.E ^ ",
"&.N.%.%.N.N.N.F.$.T <.4.8.<.B.H U ' ` ` H.e.w.' ^ 1.S.D.S.C.%.U Z %.D.M.$.P H M.",
"%.N.F.F.F.N.&.&.m.D.3.' 3.S.$.M.B.' _ _ H.I.' [ D.S.A.N.M.C.M.O.F.G.N.N.^.^.&.$.",
"N.F.&.N.&.%.~ A / C.C.M.A.N.B.A.D.m.P ^ B.S.V.N.A.B.N.N.M.C.S.M.Z.!.G.Z.G.D.&.Z.",
"F.&.J J N.T.V./ S.C.^._.N.A.!.V.A.) C ) D.m.S.M.^ ^ %.S.C.C.M.%.&.Z.Z.#.+.&.&.C.",
"N.N./ +.M.`.!.S.`.`.Y.Y.M.B.( ^ N.N.N.N.F.N.N.F.J ~ m.) ~ ~ ) V.T.N.G H !.Y.O.C.",
"%.F.N.F.m.T.^.^.2.N./ 1.).#.D ( N.m.%.%.V.&.N.N.) N.F./ L [ V.W.'.m.^ 1.~.!.S.M.",
"F.&.%.F.!.`.Y.A.@.Z K 2._.M.1.B.M.V.V.V.V.&.%.%.F.N.N.%.m.V.[ ) S.2.1.L.D.A.M.M.",
"&.N.N.F.A.A.C.C.`.N.B.B.A.A.Y.m.m.N.F.V.&.~ T / F.) m.V.U.V.L H 1.P.L.Y.`.Y.2.L.",
"V.F.B.^ Y ( A.S.~._.B.2.B.P.B.L.V.V.V.m.M.%.<.m.m.J.J.m.[ m.[ J.2.A.#.#.P.A.@.N.",
"F.V.$.I ( N.P.2.^ Q E B.B.L.A.L.U.m.~ ( B.U.J.L.m.J.J.L L m.J.J.L.B.D.K.Q ( K.P.",
"#.V.E.M.2.2.S.A.2.K ] P.1.1.L.<.J.1.E E m.H.B.B.J.J.J.[ [ R.H.[ M.2.L.A.K K B.L.",
"U.V.A.B.P.S.L.A.P.B.B.B.E.K.E.Y.U.R.R.U.R.J.B.L.J.J.R.(.(.(.H.R.L.P.S.A.P.P.A.I."
};
