/* XPM */
static char *ca77446d59c14f3a8af2f119f393d9f7PlYVdBlgHvtG5jff[] = {
/* columns rows colors chars-per-pixel */
"60 51 250 2 ",
"   c None",
".  c #01361A",
"X  c #4E0000",
"o  c #530100",
"O  c #5C1908",
"+  c #620300",
"@  c #740B00",
"#  c #681504",
"$  c #781904",
"%  c #721B11",
"&  c #702814",
"*  c #7F2C26",
"=  c #754632",
"-  c #266F48",
";  c #757D4C",
":  c #891100",
">  c #9D1A04",
",  c #9D1B11",
"<  c #98250B",
"1  c #972212",
"2  c #892913",
"3  c #B62808",
"4  c #A62915",
"5  c #BC2C15",
"6  c #AA391B",
"7  c #B73816",
"8  c #A9280A",
"9  c #963129",
"0  c #AA3A26",
"q  c #B23B23",
"w  c #B93828",
"e  c #B13A34",
"r  c #D91E00",
"t  c #C61E03",
"y  c #E81D02",
"u  c #CC2403",
"i  c #CC2B04",
"p  c #C62807",
"a  c #D42501",
"s  c #DB2402",
"d  c #D52A04",
"f  c #DB2B04",
"g  c #D42C0B",
"h  c #DC2C0A",
"j  c #D8270A",
"k  c #CC330C",
"l  c #CD3807",
"z  c #D23303",
"x  c #DC3504",
"c  c #DB330C",
"v  c #DA3C0C",
"b  c #D63909",
"n  c #C92E13",
"m  c #D42916",
"M  c #C93816",
"N  c #D43B13",
"B  c #DB3B12",
"V  c #D63518",
"C  c #E32402",
"Z  c #EB2302",
"A  c #E32B04",
"S  c #EC2B04",
"D  c #E3260B",
"F  c #E42E0B",
"G  c #E92E0A",
"H  c #FC2D03",
"J  c #F22B03",
"K  c #E43500",
"L  c #EC3202",
"P  c #ED360A",
"I  c #EB3A0C",
"U  c #E73A09",
"Y  c #F43404",
"T  c #FC3303",
"R  c #F53904",
"E  c #FA3B04",
"W  c #F4340B",
"Q  c #FD360B",
"!  c #F23B0B",
"~  c #FA3A0C",
"^  c #E22A12",
"/  c #E23A12",
"(  c #EB3B13",
")  c #E73716",
"_  c #FB3412",
"`  c #F93B15",
"'  c #C83A24",
"]  c #D53324",
"[  c #EF3C23",
"{  c #9D4636",
"}  c #B64429",
"|  c #AC4735",
" . c #B84335",
".. c #B9543C",
"X. c #B14D28",
"o. c #BD6332",
"O. c #D84409",
"+. c #D84619",
"@. c #D14D17",
"#. c #E8430B",
"$. c #F5420C",
"%. c #E7451A",
"&. c #FC451C",
"*. c #F6451A",
"=. c #CB4929",
"-. c #D34B2E",
";. c #DB4525",
":. c #DB5629",
">. c #D84C34",
",. c #C75735",
"<. c #D75539",
"1. c #CC5330",
"2. c #E34B2D",
"3. c #EA4C2C",
"4. c #E74725",
"5. c #F44422",
"6. c #FC4525",
"7. c #FC4B23",
"8. c #F4442B",
"9. c #F44A2C",
"0. c #FD4B2C",
"q. c #FA4728",
"w. c #E75427",
"e. c #EB4C34",
"r. c #E24A31",
"t. c #FB4B31",
"y. c #F54932",
"u. c #E95938",
"i. c #F45737",
"p. c #FE5129",
"a. c #C86336",
"s. c #DB683A",
"d. c #CA642D",
"f. c #E9683B",
"g. c #F36A3C",
"h. c #E16A35",
"j. c #B35650",
"k. c #8A6650",
"l. c #B66346",
"z. c #937B67",
"x. c #A97D65",
"c. c #CD5749",
"v. c #CA6846",
"b. c #D66647",
"n. c #C46E58",
"m. c #D26E4A",
"M. c #E96A49",
"N. c #F96C44",
"B. c #EA7348",
"V. c #F6774B",
"C. c #E87C5B",
"Z. c #F77955",
"A. c #C17D66",
"S. c #E5554A",
"D. c #3C8760",
"F. c #438262",
"G. c #7C977A",
"H. c #758761",
"J. c #73845A",
"K. c #8C8575",
"L. c #92916B",
"P. c #AE8E78",
"I. c #8DA576",
"U. c #A9A87C",
"Y. c #AF835C",
"T. c #FE8254",
"R. c #FD875D",
"E. c #F58B57",
"W. c #DB987E",
"Q. c #FD8D6B",
"!. c #F58969",
"~. c #FA986A",
"^. c #F79977",
"/. c #EB9270",
"(. c #DAA879",
"). c #D1B07D",
"_. c #FEA77A",
"`. c #FFB37D",
"'. c #FFA36B",
"]. c #D88752",
"[. c #AA9686",
"{. c #B89B8B",
"}. c #B2B18F",
"|. c #999481",
" X c #C69C82",
".X c #EE9882",
"XX c #CDAC88",
"oX c #DDAB85",
"OX c #DDAC8C",
"+X c #D6A788",
"@X c #DBB487",
"#X c #C8A993",
"$X c #DAAD98",
"%X c #C9BA96",
"&X c #DDB59A",
"*X c #D9B794",
"=X c #E4AC86",
"-X c #F8A887",
";X c #E4B589",
":X c #FEB88B",
">X c #E3B493",
",X c #E3BB94",
"<X c #EBBB95",
"1X c #E9B898",
"2X c #F6B898",
"3X c #E0AA90",
"4X c #CDBCA7",
"5X c #DAB9A3",
"6X c #D2BAAD",
"7X c #E3B9A6",
"8X c #EEBEA9",
"9X c #B9C49A",
"0X c #BACDAC",
"qX c #D6C59A",
"wX c #CAC494",
"eX c #E7C08F",
"rX c #E5C39A",
"tX c #E8C797",
"yX c #FDC699",
"uX c #FFD19A",
"iX c #FAC68F",
"pX c #CECFB0",
"aX c #E9C7A8",
"sX c #FFCCA4",
"dX c #FAC7A7",
"fX c #FFDAA3",
"gX c #FFD4AC",
"hX c #FFDBAB",
"jX c #FFD5A5",
"kX c #E8CAB8",
"lX c #F3CBB1",
"zX c #FFDEB3",
"xX c #FED6B6",
"cX c #EDD2B4",
"vX c #FFE2AA",
"bX c #FFE6A7",
"nX c #FFE4B3",
"mX c #FFE4BB",
"MX c #FFEABC",
"NX c #FBECB5",
"BX c #FFF1B8",
"VX c #EEEDBD",
"CX c #EAC9C1",
"ZX c #F7DAC2",
"AX c #ECD6C9",
"SX c #FFEBC3",
"DX c #FEF1CD",
"FX c #FFF2D4",
"GX c #F9FBD8",
"HX c #FFEBD2",
/* pixels */
"                                                                        % c.>.r.y.[ y.>.^.mXVXVXFX4X                    ",
"                                                                        # c.-.e.y.[ y.' /.xXMXMXFXaX                    ",
"                                                              k.K.K.K.x.l.<.>.t.8.t.t.e.M.Q.Q.!.^.W.z.z.|.z.x.= &       ",
"                                                        % n.l.dXHXFXSXSX-X;.i.0.5.8.y.y.r.e.] e.=.n.ZXFXFXFXxXv...9     ",
"                                                      X $ v.} -XhXxXgXgX^.;.t.6.6.6.9.9.9.i.[ t.y.M.sXjXjXvXiXb.1.6 o   ",
"                                                { X.6 7 M :.k g.b.v.m.M.u.e.0.6.6.6.7.9.9.0.t.t.y.3.b.m.v.o.h.@.B V w | ",
"                                              2 =.+.v #.#.#.I 5.2.;.3.3.[ y.8.q.6.( 9.5.4.4.8.y.y.e.;.i.O.l O.x $./ 4.' ",
"                                            + 7 4.I R R R L W $.*.*.q.q.t.8.0.q.q.9.N.g.M.V.N.r.;.5.0.` &.R #.x P #.i.f.",
"                                        O ..=.B ( P W Y ~ ~ W ` ` P 6.7.*.0.6.8.3.M.yXvXbXuXjXh.+.L H H Q T E ! ( u.sXhX",
"                                        @ >.) I B l N b B v / c G ` ` &.*.7.0.4.=.m.hXMXBXbXuXh.x T Q H H T Q W ) i.sXzX",
"                                    & 2 8 ) b g.~.~._./.~.~.~.:.) _ Q $.$.$.%.T.^.=XSXmX:XE.T.w.K R T H H T Y R ` *.Z.T.",
"                                    | >.) %.O.'.fXhXmXmXMXNXuXB./ _ H H E K l `.nXhXMXmX^.7 +.A $.Y Y T $.R R R R L K v ",
"                                     .[ ) $.O.'.uXyXgXgXvXvXfXs.c W Q T R $.O.~.uXfXhXjXQ.i L E T R $.K #.O.O.l I ` L I ",
"                                    0 m G ! l :.d.a.v.o.(.vXbXs.v L T ~ L U #.:.d...o.a.:.( ~ T T R K z T.`._.:.f A A A ",
"                                    e ] ( ~ K K K +.+.7 ].bXfXs.#.R J E K b v z M @.@.l x ! E T T Q *.b E.uXiXs.u r s f ",
"                                    2 , p / $.K L Y ( N f.`._.h.x L R K w.g.h.f.g.w.B #.! Y ~ J Q Y ! d T.`._.@.g j F f ",
"                                        @ ' u a h g m t a a i d C C ` v B.jXzXzXhX:X;./ ` Q W Z y Z h d k k g r D D F d ",
"                                          | w M ' ' ' M V G f f s S ! N R.hXzXzXnX:X+.( ` Q _ y Z y s f a j r ^ D h n 3 ",
"                                              % # # O $ > n i c x f F d u.Q.C.].E.V.N A S Z J S Z Z f D h D ^ ^ m 5 : $ ",
"                                                        @  .5 p n n N n 3 8 4 4 < 3 i s A G s d j h g g n m m ] ' 4 X   ",
"                                                          | 0 | 0 6 q w }  .0  .q 5 V p p k M 5 } 6 6 } e 0 w e { *     ",
"                                                                              n..X!.R.!.Q.Q.!.$         o X o X         ",
"                                                                              x.2X-X-X-X:X-X-X                          ",
"                                                                              [.8X+XoX(.=XoX1X                          ",
"    j.j.c.b.j.2XDXDXGXGX}.                                                kX$X$X<X;X;X).oX<X+X5XkX                      ",
"    c.S.S.e.=.^.zXSXSXSX X                                                kX5X$X=X=X).).).@X&X5XCX                      ",
"9 , >.8.5.q.3.V.Q.^./.^.m.: , , %                                              X2X<X-X(.(.=XOX                          ",
"<.r.y.0.6.*.3.-.=.e ,.<.>.;.4.;.>.j.                                          P.8X2X(.(.;X>X$X                          ",
"1.s.w.%.7.*.2.s.b.j.,.,.=.+.U B ;.}                                           [.lX3X=X=X>X+X5X                          ",
"yX_.f.%.7.p.;.Q.2XyXsXyX~.+.#.x i } 2XZXK.                                    [.lX7X2X2X>XXXqX                          ",
"MXsXM.4.&.q.4._.vXnXMXnX_.7 %.d i M gXFX{.                                    P.kX7X2X2X>X*X5X                          ",
"SXhXb.8.` &.%.T.:XiXBXMXyXa.M.V d c -X2XA.                                    [.kX&X1X1X*X*X5X                          ",
"NXfX:.c W ~ $.v 7 X.sXnXMXzXgXM.u j p M q 0 |                                 [.kX,XtX<X;XXX5X                          ",
"bXiX:./ ~ Y ! I #.w.yXnXMXxXgXC.t D D h i 5 w                                 P.aXrXeX,XrXaX8X                          ",
"T.V.*.W Q J J W K c N.V.B.Z.Z.r.u F C f i ' e                                 #XaXrX@XrXL.                              ",
"x F W Y Y C C C C s d u p u p t a f F G g n e                             AX7XlX1X>X@XqX                                ",
"` _ $.I I A A A D C C s A s F c ) a r h ] w e                             AX5X8X2X>X+X&X                                ",
"Z r f z h a d d h f C y G s j j g g g n > o                               CX7X2X8X1X$X7X                                ",
"h k M l k u u p i k u m V m V m ] V ' ' 2                                 kX1X1X2X<XOX7X                                ",
"< 8 < < 7 -.<.=.=.=.5 8 1 < < < 1 1 1 2                                   ZXaX,X2X2X3X8X                                ",
"        & 2X^.-X-X+X                                                      cXwXtX;X<X$X8X                                ",
"          >X@XoX7X X                                                      cXqXtX<XdX&XkX                                ",
"      k.Y.;XtX@X3X$X                                                    P.dX*X*X>X+X=                                   ",
"    4XxXtXtXtXXX>X$X6XAX                                            aXlX<XtXeXeX3XP.                                    ",
"    6X4XwXwXwXqX#X5X#X6X                                            qX&XtX2X<X>X>X{.                                    ",
"          L.; U.qX#X                                                9X*X@X;X=X+X$X#X                                    ",
"              I.qX%X                                                9XwX).).*X*XqX}.                                    ",
"          I.H.I.|.K.                                                I.I.U.wX%X{.}.                                      ",
"          pX0X                                        F.                  9X9XJ.                                        ",
"          pX0X                                      F.F.-                 pX0X                                          ",
"          G.G.                                    . F.F.D.-                                                             "
};
