/* XPM */
static char *e2e3500ae5d4444ab4e8927fab52ed8a8LQgTgm7IUY8jhHN[] = {
/* columns rows colors chars-per-pixel */
"40 40 239 2 ",
"   c #170904",
".  c #1D1208",
"X  c #250603",
"o  c #380704",
"O  c #251507",
"+  c #361A06",
"@  c #241C13",
"#  c #18290C",
"$  c #29250F",
"%  c #292711",
"&  c #332613",
"*  c #3A2E10",
"=  c #2B3815",
"-  c #34342F",
";  c #540905",
":  c #5E0A05",
">  c #51120B",
",  c #670805",
"<  c #6D0C0A",
"1  c #750B06",
"2  c #730E0A",
"3  c #7A0F0A",
"4  c #63130F",
"5  c #6C130D",
"6  c #74130D",
"7  c #7C120A",
"8  c #791408",
"9  c #6A1912",
"0  c #771B13",
"q  c #43230A",
"w  c #48280A",
"e  c #532C0B",
"r  c #59300B",
"t  c #472A14",
"y  c #5C2D1A",
"u  c #483716",
"i  c #593517",
"p  c #69380E",
"a  c #672613",
"s  c #6C2C15",
"d  c #732413",
"f  c #772619",
"g  c #683716",
"h  c #6C3C1B",
"j  c #723319",
"k  c #493629",
"l  c #563C27",
"z  c #573835",
"x  c #7A3226",
"c  c #3C501B",
"v  c #3E4B20",
"b  c #4F4218",
"n  c #595A1D",
"m  c #6B431B",
"M  c #69471C",
"N  c #754816",
"B  c #794B12",
"V  c #7B4C11",
"C  c #67541A",
"Z  c #5F6B1B",
"A  c #4E5427",
"S  c #6A4927",
"D  c #754927",
"F  c #6B5623",
"G  c #755928",
"H  c #674B33",
"J  c #774930",
"K  c #6A5730",
"L  c #79573A",
"P  c #6B6A26",
"I  c #746629",
"U  c #6E732A",
"Y  c #73782C",
"T  c #7C613F",
"R  c #767A32",
"E  c #5B4F4D",
"W  c #697368",
"Q  c #840E06",
"!  c #870E08",
"~  c #960C06",
"^  c #841107",
"/  c #8B1107",
"(  c #841209",
")  c #8A1108",
"_  c #821F0F",
"`  c #921207",
"'  c #951209",
"]  c #9B1209",
"[  c #99190F",
"{  c #8B1B13",
"}  c #A5130A",
"|  c #AB130B",
" . c #A5180F",
".. c #A01B11",
"X. c #AC1C12",
"o. c #942C0F",
"O. c #9A2219",
"+. c #A2370C",
"@. c #A72319",
"#. c #B1231B",
"$. c #9E2D22",
"%. c #86352A",
"&. c #913B27",
"*. c #B42E24",
"=. c #A83122",
"-. c #B73329",
";. c #BA3C31",
":. c #865A0E",
">. c #8E4E12",
",. c #875814",
"<. c #A1530E",
"1. c #8B620D",
"2. c #96691E",
"3. c #854B28",
"4. c #885728",
"5. c #8E4E36",
"6. c #975737",
"7. c #BC473B",
"8. c #976727",
"9. c #8E6634",
"0. c #97683A",
"q. c #A7653E",
"w. c #AE7A31",
"e. c #995A43",
"r. c #BF4D41",
"t. c #986C45",
"y. c #A1604D",
"u. c #AC6749",
"i. c #B77247",
"p. c #AB6B56",
"a. c #AC7454",
"s. c #B5785B",
"d. c #9D766F",
"f. c #B77E66",
"g. c #C14D41",
"h. c #C45648",
"j. c #CF6D46",
"k. c #3B8433",
"l. c #5A8C1C",
"z. c #669D1C",
"x. c #508734",
"c. c #6A882B",
"v. c #75822A",
"b. c #679728",
"n. c #7A8935",
"m. c #6F9E3B",
"M. c #789637",
"N. c #6DA727",
"B. c #6EA42B",
"V. c #72AB2B",
"C. c #74AB2A",
"Z. c #74B12F",
"A. c #79A736",
"S. c #76AD33",
"D. c #74A13D",
"F. c #7DAD3C",
"G. c #79B336",
"H. c #7CB334",
"J. c #7EBA3B",
"K. c #749C4C",
"L. c #79A243",
"P. c #7EB544",
"I. c #699D61",
"U. c #809937",
"Y. c #88A73E",
"T. c #85AC3D",
"R. c #82B937",
"E. c #82B63D",
"W. c #84BC3C",
"Q. c #85C13E",
"!. c #8AC33D",
"~. c #AE8250",
"^. c #B7865A",
"/. c #85AE45",
"(. c #85B642",
"). c #8BB444",
"_. c #85BC42",
"`. c #89BE44",
"'. c #89B74B",
"]. c #998467",
"[. c #BB8767",
"{. c #B59373",
"}. c #95BC79",
"|. c #C7865A",
" X c #C58966",
".X c #D58B67",
"XX c #C7946E",
"oX c #DA9967",
"OX c #C99C72",
"+X c #D79E77",
"@X c #D7AD77",
"#X c #DBA678",
"$X c #86C242",
"%X c #8BC444",
"&X c #8DC946",
"*X c #8DC54A",
"=X c #8ECB4A",
"-X c #92CA46",
";X c #91C64A",
":X c #91CA49",
">X c #95CB49",
",X c #93CC4C",
"<X c #94D04D",
"1X c #9BD24E",
"2X c #8EC851",
"3X c #95CC52",
"4X c #98CE55",
"5X c #9ACC58",
"6X c #9BD254",
"7X c #99D457",
"8X c #9CD35A",
"9X c #A0D659",
"0X c #A2DA5B",
"qX c #9FD863",
"wX c #A6DC64",
"eX c #A7E763",
"rX c #ABE365",
"tX c #B1E56C",
"yX c #8A9086",
"uX c #AAAE9B",
"iX c #CFAC8C",
"pX c #D8AC83",
"aX c #DAB586",
"sX c #E4AC84",
"dX c #EAB687",
"fX c #EBB589",
"gX c #F2BE8F",
"hX c #E8BD96",
"jX c #F1BE91",
"kX c #ADC289",
"lX c #C1C399",
"zX c #EDC49A",
"xX c #F4C89B",
"cX c #D9C9B4",
"vX c #F6CDA2",
"bX c #F7D6AB",
"nX c #FEDAAF",
"mX c #E8D1B7",
"MX c #FFDBB0",
/* pixels */
">X>XR.z.z.W.>X!._.-X:XW.J.$X=X*X=X&X:X:X%X%X%X>X<XR.z.H.&X!.:X&X&X&X&X&XQ.N.!.!.",
"-X1X>XR.W.>X>X!.-X*X_.S.B.J.3X=X$X&X&X$X%X,X>X,X_.`.T.!.Q.%X,X,X=X=X$XJ.Z.Z.&X!.",
"W.>X>X>X>X>XW.-X-X*X*X_.W.%X3X=X,X-XR.C.C.!.-X-XY.C G %XW.:X!.H.$X=X$XQ.Z.!.=X!.",
">X>X!.-X>X>X>X>X$X-X8XwX7X,X=X*XeX9X$XH.H.%X;XY.h 9 F <X:X$XN.C.$X=X$X<X!.7X<XQ.",
"1XW.R.R.;X-XW.W.*X*X4X9X;XW._.*X6X).T.T.).Y.M.s 7 6 I 9X:XQ.Z.$X=X=X$X<X=X<X=X=X",
"!.T.C.R.;XW.R.C.%X(.).).Y.b.S.T.U.s a a s d d / / 8 D E.T.:X-X-X=X&X=X=XZ.Z.J.<X",
">X>X%X;X4X>XW.E.F.P s j s g U K.0 ^ ) ) / / / } } ' 0 a h U.*XW.&X$X7X$XZ.Z.J.=X",
"`.`.;XW.;X;X`.).I 9 2 ! ] ) 0 f ~ } } } | } } | | | ] ( ( j v.).J.&XeX<X=X=X=X$X",
"1X`.;X`.;X,X;XM.g 8 ( ` | ) 2 3 | | | | | | | | | | #.@.` _ d h G _.Q.Q.=X$XZ.N.",
"T.R.E.;X*XW.M.m 0 / ` } } ~ 2 ( | | | | | | | | | X.-.h.7.@.` ^ 8 F F._.&XQ.Z.Z.",
"W.z.W.tXB.c.h < ( ]  .| | ) 2 ( | | | | | X.X.#.-.7.h.h.h.;.X.' ( 5 m A.$X$X$X=X",
"T.`.'.rXF.R 2 3 ' *.;.| | ) 2 6 ] | *.-.-.-.7.g.h.h.7.;.;.#.| ] ( 7 d c.Q.$X=X7X",
"`.9X,X5XM.x ( ] | -.g.;.X./ 6 6 ) ' @.@.O.O.$.$.7.7.*.X.#.| | } ] ^ 5 m n.=X$X%X",
"5X9X5X5XR 6 ) } | X.@.$.[ _ y.p.2 3 / ! 1 < 1 Q ' O...| } | | | } ' 5 9 P `.=X:X",
";XwX).F.U.2 ) } | ] ! < 0 s.zXzXp.9 2 Q 3 4 9 6 Q Q / ] | | | | | } 7 5 g Y *X=X",
"5XA.B.A.I 2 ) } ] ! 1 { s.vXMXMXvXf.f < < %.[.f.%.8 ^ / ` ~ ` ~ ] } / 3 6 D `.`.",
",X$X_.F.U 6 / ` ) 2 2 =.fXzXhXzXvXnXXXx 4 %.f.fXf.p.5.3 1 < < 2 ! } ) 3 5 a P `.",
"=X*X(.c.g 1 ^ Q ; ; 3 #.+X[.p.f.f.hXxXXXp.5.9 e.p.s.s.r.3 , o ; ^ ] ' 2 4 5 s '.",
"*X*XY s 5 3 7 > l f Q $.+Xd.- E iXsXsXjXhX#Xp.d.z z {.+X[ 5 x y : ] } 8 M M h `.",
"$X/.s 2 ( / 2 O t.j.~ *.sXlXE v uXfXfXsXfXaXhXyX- W cXf...[ j.T X | [ 0 R E.R %X",
"F.P e 3 8 7 7 > H &.~ =.sXcXW # k pXfXfXfXfXOX= = yXmX.X[ ' 5.l : ' / d Y !.!.!.",
"(.I C C h 5 3 ! ; , ] =.aXcXyXk.I.zXvXjXxXhXiXx.k.uXmXoX..` ; , ] ^ 3 d P R.!.!.",
"=X$X$X*XM.N 5 ^ / o.+.&.+XzXkX}.kXnXMXMXMXMXbXkXkXkXzX Xo.+.[ ] } 7 5 M Z C.Q.!.",
"&XQ.*X3X%XM.5 ^ / +.<.x u.oXjXbXMXnXMXnXMXMXnXnXbXsX|.6.j <.o.~ } ^ d B.R.!.-X!.",
"&X&X&X<X<XM.5 ^ ) ! , o h e.s.+XgXgXvXvXxXxXgXgXXXa.5.a 4 3 ! ' } ( d c.%X*X<X!.",
"=X=X&X&XJ.c.5 1 ( 4 X   q J 3.3.i.i. X X.Xf.w.q.3.J D q i a 3 ] ] ( 9 c.*X3X:XW.",
"&X&X=X&X%XA.m 4 , o & J L t.4.3.y.y.y.y.y.y.y.t.D 3.L D L e.f 3 ] 7 9 U /._._.3X",
"&X=X!.!.-X!.A.w O i q.OXsX4.B w.#XgXjXjXjXjXdXoX8.q k XXaX@Xz o ( 9 h D n.W.V.G.",
"&X=X!.Q.!.=XF.% i 4.,.S 6.h p >.w.@XaXpXaXaX@X2.m + + N 8.^.k o ^ s E.%XR.C.N.%X",
"Q.=X<X,X,X_.l.* N N i t   q p j >.:.m g m V :.p + w B B r S & o _ G W.-X0X0X!.!.",
"!.<X%XQ.$Xb.$ 9.9.S i +   O w r e w + O O q w . K ~.9.r e * $ u 9.1X1X-X1X>X!.-X",
"<X!.N.N.%XL.% ^.#X~.S   ; X O u H S S l l H b @ [.vX#XG q = c.R.W.>X!.W.W.!.W.-X",
"&X=XH.Q.$X'.= 0.[.~.G $ : o O H iXaXaXOXOXaX{.* ].iXs.9.c l.G.=X7X=Xb.N.9X1XR.-X",
"!.=X!.=X$X6X'.A = = c M.h e + & i 1.V D N 4.2.b % @ @ c b.J.2X7XeX$XZ._.6X9X,X%X",
",X%X!.<X9XrX4X(.m.l.b.W.'.b q + e 1.p p g B 1.e + + A S.$X=XJ.G.:X_.%X3X,X-X$XQ.",
"$X=X,X<X;X&X&X;XtX%X;X*X`.C q q N :.B p p V 1.i q * n =X7X2XN.N.%X6X,X5XtX9X$X5X",
"-X,X-XH.C.E.;X;X9XwX*X_.`./.n J a.N :.V B :.M t.e O c 2XJ.$XP.=X`.*XE.W.5X:XE.*X",
",X,XW.B.H.;X4X`.S.H.S.*X`.'.A * 9.i N V V C u b $ # c S.m.$X2X2X3X*X3X;XS.G.,X5X",
"W.;X9X*X*X_.,X;X*Xb.F.8X(.P.A = F K C I v.S.m.D.D.L.P.P.$X2X2XP.%X_.5X;XB.B.*X3X",
"5X;X>X`.4X>X3X;X6X;X2X*X5X2XP.L.L.L.M.D.'.<X*X3X3X*X3XqXqX7X2XqX3X6X,X;X6X5X;X5X"
};
