/* XPM */
static char *e1673087273[] = {
/* columns rows colors chars-per-pixel */
"40 40 204 2 ",
"   c #13161B",
".  c #32241F",
"X  c #181D22",
"o  c #1C2328",
"O  c #22292B",
"+  c #382A22",
"@  c #283328",
"#  c #37382E",
"$  c #242D33",
"%  c #2B3738",
"&  c #2A353B",
"*  c #363C3C",
"=  c #492E1C",
"-  c #502A13",
";  c #5D361D",
":  c #62391F",
">  c #4A382B",
",  c #563A25",
"<  c #5D3C24",
"1  c #463933",
"2  c #4C3F38",
"3  c #633C22",
"4  c #384A29",
"5  c #35453B",
"6  c #3D5331",
"7  c #6A4F1A",
"8  c #48413B",
"9  c #594738",
"0  c #5A493C",
"q  c #455C34",
"w  c #6B4225",
"e  c #65452D",
"r  c #6D4629",
"t  c #6D4B2E",
"y  c #724826",
"u  c #744B2C",
"i  c #7A4E2D",
"p  c #7C522F",
"a  c #6C4E34",
"s  c #694F39",
"d  c #774F30",
"f  c #69513A",
"g  c #765335",
"h  c #7D5231",
"j  c #73563D",
"k  c #7A5B3E",
"l  c #4B672C",
"z  c #4B6732",
"x  c #597B33",
"c  c #2D3944",
"v  c #2E3E4D",
"b  c #313D45",
"n  c #313E4A",
"m  c #334245",
"M  c #3A4A47",
"N  c #34424C",
"B  c #3C4C4D",
"V  c #3E5346",
"C  c #354553",
"Z  c #394753",
"A  c #3A4A55",
"S  c #364858",
"D  c #3C4D5B",
"F  c #3E5052",
"G  c #3F505D",
"H  c #3B4F62",
"J  c #3E5161",
"K  c #3E5368",
"L  c #464546",
"P  c #574E48",
"I  c #455A47",
"U  c #5D534C",
"Y  c #42535B",
"T  c #465658",
"R  c #4F555C",
"E  c #614E40",
"W  c #695648",
"Q  c #745A45",
"!  c #685B52",
"~  c #425464",
"^  c #485B67",
"/  c #425769",
"(  c #45596A",
")  c #495D6C",
"_  c #425B71",
"`  c #4A5F71",
"'  c #4B626A",
"]  c #50656F",
"[  c #4D6275",
"{  c #4D647A",
"}  c #51667A",
"|  c #536A7D",
" . c #65676B",
".. c #6A6B6E",
"X. c #6C6E71",
"o. c #717376",
"O. c #767678",
"+. c #7A7A7C",
"@. c #90701F",
"#. c #81522F",
"$. c #825431",
"%. c #875B36",
"&. c #835D3C",
"*. c #8A5F3A",
"=. c #85603D",
"-. c #8E613C",
";. c #93643E",
":. c #8C6443",
">. c #976944",
",. c #9B6C43",
"<. c #956D49",
"1. c #9F7046",
"2. c #967149",
"3. c #A06F42",
"4. c #A17147",
"5. c #A27249",
"6. c #A6774C",
"7. c #AD7B4E",
"8. c #B17C4E",
"9. c #A57B51",
"0. c #B27F51",
"q. c #5B8B1C",
"w. c #659C1B",
"e. c #67A01D",
"r. c #5B8829",
"t. c #5D8030",
"y. c #69982A",
"u. c #628832",
"i. c #6B973A",
"p. c #769D3A",
"a. c #6DA524",
"s. c #6DAA28",
"d. c #70A62B",
"f. c #75AD2A",
"g. c #72AB2C",
"h. c #74B12F",
"j. c #79B22F",
"k. c #74AC33",
"l. c #79A839",
"z. c #7BAC3D",
"x. c #76B231",
"c. c #7CB335",
"v. c #7EB836",
"b. c #7DB43C",
"n. c #7FBA3B",
"m. c #7AA643",
"M. c #7EB341",
"N. c #7FB840",
"B. c #AC862A",
"V. c #80B635",
"C. c #81B63D",
"Z. c #86BE3A",
"A. c #84BC3D",
"S. c #C39833",
"D. c #85C13E",
"F. c #8AC33D",
"G. c #AE8156",
"H. c #B48052",
"J. c #BC8455",
"K. c #81A742",
"L. c #85AA46",
"P. c #81B343",
"I. c #85BC42",
"U. c #89BE44",
"Y. c #88BA4B",
"T. c #89B65A",
"R. c #C38958",
"E. c #C6A249",
"W. c #86C242",
"Q. c #8BC444",
"!. c #8DC945",
"~. c #8DC44A",
"^. c #8ECB4A",
"/. c #92C946",
"(. c #91C64B",
"). c #95CB49",
"_. c #93CB4C",
"`. c #94D04D",
"'. c #9BD04D",
"]. c #8EC552",
"[. c #95CC52",
"{. c #97CA57",
"}. c #98CE56",
"|. c #97D355",
" X c #9BD254",
".X c #9CD35A",
"XX c #A1D65C",
"oX c #A2DB5A",
"OX c #9FD863",
"+X c #A8DB64",
"@X c #AAE565",
"#X c #B2E66C",
"$X c #556D83",
"%X c #57718A",
"&X c #5B748C",
"*X c #7E7E80",
"=X c #617C94",
"-X c #637F99",
";X c #7F8082",
":X c #7D838A",
">X c #83858A",
",X c #868B93",
"<X c #8B9198",
"1X c #93989F",
/* pixels */
").).V.w.a.Z.).Q.Q.~._.W.v.I.^.~.!.!./.!.Q.W._.)._.V.w.V./.W._.Q.!.!.!.W.W.s.F.F.",
"/.'.).V.Z./.).Z.).Q.A.k.s.C._._.I.P.P.b.V.P.M.(.Q._.W.F.A.Q. X).W.`.W.n.h.h.`.F.",
"Z.).'.).).(.U.F.(.Q.Q.W.I.C.i.l q I I V M I 5 q l u.~.W.W.!.A.V.W.^.W.D.h.D.`.F.",
").).F.Q.).).).'.Q.Q..X}.x I ' Y n S [ [ A c A n ] T 4 x Q.F.a.g.W.^.W.^.!.|.`.n.",
"'.Z.V.V././.A.A.Q.~.i.I % &X$XZ ( c / K ` D n n $XS ' B q l.f.W.^.!.!.|.!.|.W.^.",
"U.C.f.V./.U.V.d.~.u.T ) Y ~ =X/ $XA o c n A n &X$X[ =XN D 5 u.~.^.!.^.!.h.x.n.`.",
").).U.(.}.'.C.C.x L ` ` ) c S S K $X% S D C / { S } J n ) D O y.W.W.|.W.h.h.n.`.",
"U.U./.U./.U.Q.p.O ( ` _ ~ 8 + 1 2 1 + 1 1 + 1 1 + 2 * S J ( ( # n.!.@X`.^.^.^.W.",
"'.U.Y.).(.'.Y.4 D b Y S 2 #.3 r ,.$.3 >.-.3 *.>.3 d >.9 n ` n & z ^.W.W.^.W.h.s.",
"V.C.A.U.Y.A.t.T } ) n + 3 >.i #.0.:.u 7.5.u 1.8.d *.R.;.1 n c ` T b.W.W.!.D.x.s.",
"V.y.U.#Xd.k.q =X} $XL - $.0.$.i 0.:.r 7.1.u 1.7.u *.J.;.3 L %X%X| x ^.W.!.W.!.`.",
"C.U.U.#XC.V.6 $X` n > ; >.0.$.h 0.;.u 8.5.u 4.8.d *.J.-.h s c Z [ 4 ^.W.W.!.!.`.",
"C.XX{.XX{.Y.@     X < 3 1.0.$.d 0.;.i 8.4.u 3.8.u *.R.-.$.a X O $ # W.!._.^.W.Q.",
"{.XX{.XX'.T.O n ( n < 3 4.R.$.i 0.;.y 7.5.u 4.8.i -.0.-.#.Q v A N $ k.b.D.^._._.",
"{.XXL.C.+X{.R -X-X[ 3 3 1.0.$.#.8.;.y 7.3.u 3.0.u *.R.*.i Q $X=X=Xc y.a.x.Q.!._.",
"'.V.d.C.U.Y.b Y ~ n 3 3 5.R.%.$.J.>.i 0.6.i 6.0.i ;.R.;.$.Q C ~ J c l.A.Q. X(.W.",
"_.Q.I.I.W.~.$ & X o = = g :.< 3 *.t , &.s , g &., 3 -.e 3 , % X $ $ m.[.I.x.C.~.",
"^.^.!.~.Q.P.B c Y v  .*X*Xo.*X:XO.+.>XO.*X*X*XO.*X;XO.O.,XR n n c Z m.W.k.k.C.[.",
"^.|._.!.^.M.A N ` ~ R X.X.X.X.X.........X....... .X.X...o.R / ` S Z P.'.~.Q.~._.",
"^.^.W.C.^.P.m D C c = , &.<.s 3 :.j < :.&.< &.:.3 s <.g r 9 v A D * Y.oX_._./.!.",
"W.W.x.h.W.I.m D ` D 3 : 4.0.$.h 0.>.u 7.4.u 4.8.u *.R.k r Q ~ ~ ~ N Y.XX/.F.F.F.",
"^.W.v.x.W.P.N } =X[ 3 3 5.R.$.$.0.;.u 7.4.u 4.8.i -.5.B.E.9 %X$X~ n z.Q.V.F.F.F.",
"^.!.!.!.Q.M./ =X=X$X, 3 3.0.$.$.0.;.y 7.4.u 4.8.u ;.t @.S.0 %X=X-X^ C.j.e.f.F.F.",
"!.D.^.`.Q.L.n ~ ~ v 3 : 5.0.$.d 0.>.u 7.4.u ,.8.i -.>.7 7 , S Y ~ b P.F.v.F./.D.",
"W.!.!.`.`.b.m K ( v 3 3 5.0.$.d 8.;.y 7.4.u 4.7.i *.J.p y f S ~ / M y.W.Q.~._.Q.",
"^.^.!.!.D.a.% D ~ v 3 3 5.R.$.d 8.;.u 7.4.u ,.8.u *.J.*.h j / / / c r.A._.[._.A.",
"!.^.`.!.Q.k.F J ~ Y 3 3 5.R.$.$.H.;.u 8.5.u 4.0.u *.J.;.#.Q _ ~ K N L.[.~.I.W._.",
"!.^.F.F.!.b.5 S n c < ; >.0.$.u 8.;.w 7.4.y ,.8.u %.R.%.i a v A C c l.U.~.C.g.v.",
"!.!.D.D.!.I.F { } Y 1 2 W ! 0 P Q s 0 W W 0 W W P E Q P s 8 H [ | D P.Q.A.g.a.Q.",
"F.^.`./._.N.B ) =X[ X.<X<X*X>X<X:X>X1X,X:X,X>X:X>X<X*X:X1X .[ $X` Y M.Q.oXoXF.F.",
"F.`.!.F.!.z.^ &X=X[ 2 P W ! P P ! W P ! ! P ! ! P U ! W U L { &X) Y U./.).).F./.",
"`.F.s.a.W.~.M D H c , < >.0.d u 6.*.r 2.>.w >.6.r $.8.%.i s C Y D b z.Z.Z.F.F./.",
"!.!.v.Z.Q.}.F D D A < 3 1.J.h h 0.;.u 7.1.u ,.0.i *.J.-.h j J F K N q.a.XX'.V./.",
"F.`.W.^.Q.].Y J / J 3 3 5.J.$.h H.>.u 7.5.i 4.8.i *.J.;.h j K G G G y.D.}.XX).Q.",
"_.Q.D.`..X.X5 C Z c , 3 <.0.g h 9.-.t 9.2.t <.6.u &.G.=.j f c C Z b z.[.'.(.Q.U.",
"W._.)._.~.~.p.p.T.p.l.p.L.L.L.p.z.K.m.m.l.y.i.p.m.p.K.L.m.m.r.r.p.m.(. X@X XU.}.",
"_.).(.c.f.A./.(.oXoXY.I.~.{.~.(.~.^.W.W.W.N.n.W.Q.W.].W.N.N.N.~.I.~.A.A.}.(.V.~.",
"_._.A.d.V./.}.U.z.k.k.~.U.[.~.{.[.W.b.b.~.[.^.[.I.[.^.k.s.I.].].[.~.[._.l.c.[.}.",
"A.(.XXU.U.U._.(./.y.C.}.I.U.[.I.].I.k.k.W.].~.~.].].].N.N.{.].N.~.I.[.(.a.d.~.}.",
"}.(.(.Q.}.(.}.(. X~.[.Y.}.[..X|.|.|.[.|.|.[.~.[.[.~.|.OXOXOX].|.[.}._.(.}.}.(.{."
};
