/* XPM */
static char *_300c1f94a3b41c083cfd58c135f3e92q5RuYCxPqh5t5RX6[] = {
/* columns rows colors chars-per-pixel */
"80 80 159 2 ",
"   c #437907",
".  c #4A7E04",
"X  c #4A7F09",
"o  c #4E8704",
"O  c #4E8A06",
"+  c #4E830B",
"@  c #4E890A",
"#  c #548C07",
"$  c #538B0C",
"%  c #55910E",
"&  c #5B920F",
"*  c #548D12",
"=  c #5A8F15",
"-  c #548B1A",
";  c #5B8D1A",
":  c #569313",
">  c #5B9414",
",  c #5D9917",
"<  c #57941C",
"1  c #5C951B",
"2  c #5D9A1B",
"3  c #629A14",
"4  c #61961D",
"5  c #629B1C",
"6  c #65A11E",
"7  c #6AA41E",
"8  c #5F9525",
"9  c #5E9B23",
"0  c #629721",
"q  c #649D22",
"w  c #699E24",
"e  c #659C2A",
"r  c #6A9F2B",
"t  c #65A223",
"y  c #6AA324",
"u  c #6BA926",
"i  c #65A229",
"p  c #6CA42A",
"a  c #6EAA2B",
"s  c #73AB27",
"d  c #71A62C",
"f  c #72AB2C",
"g  c #74B125",
"h  c #75B12D",
"j  c #7AB42E",
"k  c #7DB92E",
"l  c #6FAB31",
"z  c #72A633",
"x  c #75AC32",
"c  c #7AAE35",
"v  c #75AD39",
"b  c #79AE3B",
"n  c #76B333",
"m  c #7BB434",
"M  c #77B933",
"N  c #7DB934",
"B  c #76B43B",
"V  c #7DB43A",
"C  c #7EBA3B",
"Z  c #7DB341",
"A  c #7FBA42",
"S  c #80BB2F",
"D  c #82BC35",
"F  c #8ABE36",
"G  c #82B63C",
"H  c #83BC3C",
"J  c #88BE3E",
"K  c #84C136",
"L  c #89C337",
"P  c #85C23D",
"I  c #8AC43D",
"U  c #8CC93D",
"Y  c #91CA3F",
"T  c #82B644",
"R  c #88B743",
"E  c #85BD42",
"W  c #89BE44",
"Q  c #85BC49",
"!  c #8CBE4A",
"~  c #90BC49",
"^  c #8BBF51",
"/  c #86C342",
"(  c #8BC444",
")  c #86C842",
"_  c #8DC944",
"`  c #86C34A",
"'  c #8DC54A",
"]  c #8ECA4A",
"[  c #90C646",
"{  c #91CB45",
"}  c #91C54B",
"|  c #92CB4B",
" . c #99CC4D",
".. c #8DD148",
"X. c #94D045",
"o. c #95D14C",
"O. c #99D24D",
"+. c #9BD94E",
"@. c #8EC452",
"#. c #8ECC52",
"$. c #93C553",
"%. c #98C755",
"&. c #94CC52",
"*. c #9ACD53",
"=. c #92C358",
"-. c #97CC5A",
";. c #9ACD5B",
":. c #96D152",
">. c #9AD354",
",. c #9DD955",
"<. c #96D359",
"1. c #9DD45B",
"2. c #9DDA58",
"3. c #A1CE5B",
"4. c #A0D755",
"5. c #A2DC54",
"6. c #A1D55C",
"7. c #A3DA5C",
"8. c #A5E156",
"9. c #A7E05F",
"0. c #A9E25D",
"q. c #9BCE61",
"w. c #9DD362",
"e. c #9ED860",
"r. c #A0CE61",
"t. c #A2D464",
"y. c #ABD766",
"u. c #A5DC62",
"i. c #AADD64",
"p. c #A4D669",
"a. c #A4DA6A",
"s. c #ACDC6A",
"d. c #AADB72",
"f. c #A7E264",
"g. c #ABE364",
"h. c #ADE966",
"j. c #ADE469",
"k. c #AFEC69",
"l. c #B1E566",
"z. c #B2EB66",
"x. c #B1E46A",
"c. c #B3EB6C",
"v. c #B6F066",
"b. c #B5F16C",
"n. c #B5EC71",
"m. c #B9EE73",
"M. c #B9EE78",
"N. c #B7F372",
"B. c #BBF475",
"V. c #BEFA76",
"C. c #BDF479",
"Z. c #C0F476",
"A. c #C1F47B",
"S. c #C3FB7C",
"D. c #CDFF7F",
"F. c #C6F781",
"G. c #C5FC82",
"H. c #CAFE84",
"J. c #CCFF8B",
/* pixels */
",.| j O.7 7 F & 3 I [ J  .{ J [ { L { | H *.} ' d 6.c | | [ [ Y F F X.F F { { ( _ ] ' ) _ .._ P U L {  .V p c X Z T -.' $.| ( P { U J I [ ( ( E 7.E ( ( J W D { ",
"I F { 7. .3 7 # s F I I { { [ X.{ [ F { [ J z $.7.4 d ( ( | ( { O.{ Y  . .J ( [ / _ ..' _ ( _ U { U O.N >.T X t.v Q W G } J I 4.I I I ( ( ( ( | ( E | f > P D [ ",
"O.Y { I Y 3 s I D J Y I I Y Y [ F O.[ { | ( m c z . 1. .J | [ U Y Y F Y { ( O.| :.) ] o._ ..:.+.Y U U | _ H C &.1.E ( ( | [  .{ U Y [ U ( [ } | D s d y 3  .| O.",
"F X.O.O. .F S { { Y [ Y F F Y Y I { [ [ J E J $ c 0 ( ( *.[ {  . . .F ~ { | _ / / n M ' _ ] +.o.j 5.U F { o.J _ ' m 4.| D ( { I { Y ( ( { { _ J E 5 > s h ( P D ",
"{  . .{ D X.Y { Y I Y Y F Y X.I  .I F [ ( G ( x } | J J | } | { [ J O.| [ G s / t 5 M  .o._ _ I { U U +.D U +...D N N N o.o.X._ D I I U { { ( J | J D ( | P >.D ",
" .I { | [ { { I Y Y  .Y F Y { F I [ I [ 4.( } ;.W &.7.*.( >.( [  .J [ G } 6.t , 6 a ( :.] _ | _ { o.P X.Y P U K K X.k X.{ 7 X._ 7 k Y Y ( ( _ _ D J P P  .F +.( ",
" .( [ [  .[ X.|  .[ X.[ I I I F J {  .J 4.1.[ ( 1.T ( } } ] J >.J Z.H.>.E W a u m J ( P D ( { { { _ _ g +.+.g L +.U k _ P , M t 7 j { Y U ( { { :._ _ / <._ _ _ ",
"W  .} } | [ } [ | [ [ [ [ I I Y [ D | ( 4.n.n.1.W 1.} (  . .| ' ~ Z.D.6.' ( m J ] :._ G P | { F _ | h P o.k 8.8.K ..+.I ( s : y s D Y { [ { { { _ ( | D _ o.N _ ",
"| T *.' W d m T [  .} [ >.( E O.J { ( | 7.m.m.&.W *.E } ( &.( } [ 3.4. .[ ( ( } ( ( _ | [ | [ [ ] &.C ] | o.S.b.X.X._ _ _ x t C I { ( I [ { _ _ _ ) ..C 2.2.#.) ",
"$.@.p c c 1 ( 1.' } ' E ( *.} G H } [ E | [ } } *.H } } d w &.>.} } ~ ~ [ { } ( _ ' ( P I [ [ H &./ &.| ( ( 8.c.| P / ' ] / H / E U U [ { { { { X...:.+...<...) ",
"1.1.r d v = ! } ! ' ;.W r c G 0 | 4.( ( *.[ ( *.( m c } 4 c *.}  .[ J J [ | | [ U [ I J (  .[ F 2.' #.] <.' ( / | / / | ' ' ] / >.| { { ( U ( { ..P C U ) M u ..",
"W ' W w ' V ' } } ' 1.$.w 1 p y ' } J ( ,. .} ( W [ 5 d > ( ( | } [ [ [ ( [ { { P ( [ [ [ |  .} ( @.&.` ] / <.' ' _ ] ] ' ( ] ' | ( ( ( ( Y { | o./ M 2 ) 9 9 <.",
"E H } d } *.| &.| ! ' } T V G W J ( } | (  .7.O.E } c c E G G } [ [ [ [ [ J I [ [ [ { | [ [  .i.( | &.( | ( ' G T | } E ] ] ( | ( J [ | _ _ _ P _ P P , i u ) ) ",
"| { J [ | } J ( } } ( W } &.@.' } } >. ./ 7.D.c.J } ( } | *.t.7. .[ I [ [ Y I I { U [  .[ [ 6.Z.7.( | m V E 8 p ' &.( H o.o.L _ } |  .] ( :.8.,.C _ C h l ..B ) ",
"F Y D O.{ { ( ] }  .| ( ' ' ' W ' &.} ( ( 6.m.i.} *.E E R j.S.m. .I I Y X.{ { Y { ( [ | [ } 6.x.4.I ( p * z 0 ;.$.} ( J { { U I | ( ' ( ( 7.V.b.) :.C ..#.#.B <.",
"( I [ [ J { } (  .( ' | } } } ' W &.&.( E ( | P ( } O.W 7.*.s.7. .~ [ [ { Y Y  .{ [ [ { } [  . .[ O.( m t H z / $.( } [ J I [ Y ( ( | ( F 2.h.<.) ) ) #.) #.#.` ",
"J } | W E ( | } ' H &.&./ @.' Q ` ` i n A #.] C | U [ [ *.R ~ R W } } W ( J | ( | E &.$.&.&.V E | P P ( H / &./ ` &.] J ( ] _ { | o.L P { _ P P P ` ..` #.` A #.",
"H } } W ' *.E &.' | &.E &.<.C V i 9 < B ..] _ ..{ Y  .I ~ J } } =.=.*.p G >.E ( ' ] E V ` V 1 H _ _ _ _ C ) ] ] ] | A ( ' ] H _ P U I U { _ P _ ) K ] ] #.A 9 Z ",
"V *.W x G 1.E } ( Q ' W ' &.' ` 9 < i ` ..P _ Y K Y +.U I J } [ z ' G 1 m ( ( ( ( &.T q p 9 : ' / _ ] _ ] ` ] :.:./ ` <.C :.| h k P _ .._ P P .._ ] #.) ] A 9 < ",
"w W 0 f T | $.( ' ' ' J H ] &.E B C ] ....P X.L U Y Y L I Y [ J q p 4 5 ( D ( { W ( ' a - y C | ) P P _ :.) C :.' C _ :.u m n O h K .._ U L U ) P ) ] C ' #.B l ",
"4 d 4 R } } *.V d R d 4 T 1.| G _ _ 2._ _ Y +.L U Y U U L Y U I G 1 m D {  .L {  .H ' / n ' :.M / o.o._ ] _ C @.<.@.] ] ] t , 7 M P ..U P ..X.P P K P P ` ] ' ] ",
"d d J R *.n.x.~ 4 w 4 d ( } ' ' ] _ o._ _ _ U U K U U Y { Y U _ J x  .} I I { { >._ ' | | o.) N _ k.N.../ ] / ] | ' ] E ( y f N P _ _ L L +.,._ _ ] ] / / _ ( ( ",
"d G *.G %.A.C.7.G r c ;.W c }  .| _ { { U _ K U S U Y +.{ X.U _ G _ | X.U S o.X.X.:.] _ | / P ..o.h.N.../ :.' | | ( >.( J ( <._ _ P ) ) P ..o._ K _ _ _ (  .>.( ",
"~ } *.J *.R } W J [ W } &.} 6.6.| o.o._ I X.K X.U X.U U K _ _ X.+.P { D X.X.K _ _ ] ' ( ] X.X._ ..o.,.P / :./ ] ] ] ' ( ( ( ( I ..P ....P U .._ ) P P X._ P ( _ ",
"} ~ ~ 6.%.} J *.} } } $.! &.c.A.z._ { 7.| ] | ] / ( | _ ] _ P _ P D D I Y U U Y X.| ' ] ' _ X.+._ P ( P E ( ] p E ' ' ' |  .| X.P ) _ .._ P _ ' _ J | U D { { | ",
" .~  .G } F.y.*.*.*.} R W } u.u.} &.|  .H ] H ] C | C ] / / ] P [ { U I Y Y X.U _ / / _ ) P P U _ ,.P P f M n @ / ] | ' ( } | o...P P ..o.X...X.D O.J ( { [ { U ",
"W ;. .R W Z.H.;.&.6.*.} >.&.( E V ' ' | ` z < A e.' :.n ] 2.<.F U { { Y U U X._ P / :./ / +...X.U ] ( P x @ f 5 E ' *.&.| | ] ( ] P P ( _ / / ( ] ] D P | U { _ ",
"} Z.i.6.} } 7.V 1.6.( W $.' ' :.7.| ' V V 0 e <.B Q ` 1.&.:.( 2.I U { O...K P X.:.' :.] / P C o.X.( o.( ] , ' ' >.( H E ( | | ( X.X._ | o._ H C ( 5 m { J [ | { ",
"} Z.u.W *.;.| 6.C.H.u.' ' / W @.E / / p e V v Z w.@.@.: Q ' G ( { _ U ..U P U X.n / ] 9 t :...K _ / P N G ( ( J  .&.7.7.*.|  .| [ I D F [ ( x : t @ M  .( | ] / ",
"G ~ ' &.} d z p &.n.1.' &.>.:.:.| :./ l - 1.=.` - @.8 z ' E 1.( o.X.K N K { ] / n < < i C ' ] 2.:._ +./ | >.( ( H >.A.S.7.( ( [ { [ { U  .[ D 5 6 C C ( | ] ] H ",
";.W d G p $ | >.' &.Q C ' #.] ' ( ( ] / l 1.A A v - 8 p 1.V ( | | _ I N P _ ( H / l i C ] ) ] +.o.P o.( 1.G ( ] | ' *.1.| | | [ [ Y { { ( H M V E :.` / ] ) ] / ",
"[ >.V $ f f f } ( ( ' f.C.u.@.' ] / 9.C ` #.Q @.B e ' V E ]  .( I _ X.X.U P / ] P ` ` ' ` / ' X.| o.P _ ( ' ( ( ( E | } J } z.Z.5.{ [ |  .( (  .#.C ' ] ' ] ' #.",
"( / m t P N D X./ X.( :.M.k.@.:.&.' ' ' &.&.E $.` } t.1.} } I ( o.{ Y { Y { { L ( ( ( ( ( ( { ( I { I { ( | ( { ( } J H  .( k.S.>.&.( ( | | J ] | } D ' &.| z ] ",
"| ] ( P X.U P U _ _ _ | <.] ` ` $.( &.} } 7.1.} $.t.G.j.6. .[ F X.U Y { Y Y ( F L I ( I F P { | ( U [ L I D O.( ( [ H J | ' &.' >.' ( J G P ( ( ( ( G H | * f &.",
"] _ _ _ X./ U _ _ K _ ] / E &.&.z V &.} 1.V.n.1.' ;.M.1.*.( | I { U { { { [ { | [ P ( ( ( P | | ( L | { | U V.g.O.( ( |  .E ( ( / &.n.j.| ( P F ( P ( , x 5 x ( ",
"] / ' ( _ P _ _ _ P ] ] V p v v r ' } G 1.x.6.| &.' t.$.' D { O.{ ( { O.( U { ,. .U I { ( ( [ L [ [ { I P | Z.S. ./ ( ' / E } &.' u.G.c.' E ( ( ( ( E 5 p ( H G ",
":.' :.:.] P _ U _ _ ] | ( l 9 < z ` W V (  .] ' $.&.&.1.| E { { | ( { | { P [ { { ( ( | { { ( P P (  .( ] _ O.7.( E | ' W &.' E ` :.1./ E E J  .( | G | { ( [ J ",
"o.( :.| ] P | | / ] ( / @.` n A E H &.u.} | 1.' ! &.@.&.' ,.7.>. .( ( _ | | ( D ( ( { { ( { | ] [ ( { G ,.( >.7.| ( E &.W n n ' W ' ' W | | ] 7.5.[ ( >.:.F ( ( ",
"] / _ / / P X.:.] | / H / E E ' $.' g.S.u._ :.V E $.-.' ' <.B.z.| ( ' ( J ( } ( ( ( { { {  .| F ,.( p f ( E A.S.| G p E z * z j.a.1.$.| | &.7.S.j.( ,.( ] | _ ( ",
"] ` | | :./ ( ' H _ ] ] ' ' #.] | } ,.N.7.( ( W V ` &.Q ' J h.h.( &.| G f c ( ( { ( ( ( | >.P 7 D c o ( ' E m.1.' ( 5 p t p &.B.F.<.&.-.' | 7.c.7.| ( O. .P ,.( ",
"( | ] M | / 5 D ' _ ] o.' ' @.] ' | ( ( { ( J ' 1.Q 1.Q | / |  .H ' E y w E | ( } J ( | U J D h & w 1 ' V &.J ( W >.v 5 E ' E 6.f.;./ V ( &.&.E '  .( >.| D ,._ ",
"( ] :.5 f 5 1 M | ( / ] ] ] ] / ' } | | ] J | c.G.&.-.' T >.( ( ( q x y m *.C O.o.| | ( m h G | a ( E ' ' ( ( E &.E G V E &.' m T ( p w ' &.( ' ( J >.| [ | P I ",
"/ | ] u 5 5 y / ] ( ( _ _ / _ / _ ( / ] o.( ( <.n.<.' 1.] / _ ( ( 5 5 f ( | ( >.{ ( ( | >.] D C D ' | m } ,.&.&.1.E ] | J ' &.m 5 y 5 q ' &.( ' <.( E ( L ( ( F ",
"( ] _ C s / P | ( ( ] ] / P ( ( | / / | ,.o.( / <.B e.A ' ] H :.H m f H { ( | _ E | ( P ]  .( ( ' E &.E W >.V } &.&.| ( ( ( ' ' 1 t x H ' ' &.' E ( ( J 7 f ( | ",
"_ P | C / _ o.P | ) P _ _ X.] I ] ] _ _ _ X.] ' A W ` < E :.( / ( D [ F ( ,.( ( { | E D ( ( (  .( H &.1.( f x ( ]  .J H &. .H / f m ( | | ' &.&.d y H y $ ( ( ( ",
"_ _ _ _ P _ X.( ] _ _ _ _ _ { _ ( ( _ P C ( ] / 2 W * p &.P :.P { I ( U |  ._ ( | ( J (  .( J ( ( G p J ( * ( } | ' E ( ' | ( ( (  .J J *.| E :.' 5 $ p p | ( D ",
"P _ P +.P o.] | _ _ X._ P P _ _ ] ' ] | _ X.| H 9 9 i A #.' P o.[ | D  .o.F  .( ( { | { ( | >.&.&.( , p ( 5 J E | ' | ( E ( | | | O./ H &.| / 1.*.v < } H m { { ",
"_ ( I _ { _ | _ ] ' ( _ _ _ _ P _ P _ ] / _ ] / V p ' A ' _ o.( { U | { ( U P  .( { ( E &.V.m.( J | y f >.| x | ( | E P  .| ( _ { ( ( | ( (  .1.' V J 7.F | | I ",
"( { X.{ Y Y X.X.[ >.' ' &.&.{ | ] | :.( B _ :.` _ ' :.A :.' / ] {  .D [ {  .| { ( G f H f.n.M.E ' G | ( ' ( ' } ] V &.' ] #./ | { | | N G  .H 0 V &.' ' [ U S Y ",
"| | { X.Y Y Y X.} J Q &.V w N  ./ _ ' :.:.' / ' / ' :.C &.&.] ] U U { P ( ,.s 5 m 1 5 &.>.` ' &.W  .( } / | 1.' ] @.` ] / A ] / ] {  .D u h d 5 ' ' &.' | { Y Y ",
"J [ X.X.U K L X.( V c V t 5 D ] / | H / ] H ( ,.o.] <.( o.] o. .>.D o.O.D { G h s f H >.' &.&.' W | ( >.' ' :./ C C ' V t n ` :. ./ _ J 6 > 3 w *./ &.| [ P { K ",
" .[ Y Y Y X.X.{ J ( p 1 a C ( _  .<.] o.2./ ' ] :.] :.| :./ ' ( J { ] F D 7.7.7 y &.1.| V 1.J.G.] ( B.j.&.' / ] ] 2 a : a P <.' | G ( { m h H ( ' E W &.E { _ L ",
"o.{ U U U U U ..| ( a l / / / _ ( D G ( ( J >.| >.| |  .o.|  .| P O. .O.{ f N >.>.>.C ( 1.u.H.n.( } H.g.( ( _ | H C @ / 2 / ( ] ' ' >._ D [ X.[ ( ' ' &.' | ( ' ",
"I _ X...S g K ..:.E / &.( H ] _ >.O.7.j f D ,.( m / H G P ( | P ,.j { U ( | | ( O.i.*.( ( m &.] ' J (  .G ( ] ( | M u E ) / ] C &.'  .| U F D L ] | &.Q =.' @./ ",
"o._ L U U U L ) / ) ] o./ / o.( , y F : 7 ( O.( ( | P { >.{ ( U h $ ( 4.| _ ( ( g.G.n.( } 1.&.&.| y y | ( o.| / ' C | _ _ ' ' ] ( W ( U [ Y L X.G G ' E Q ' ' v ",
"X.U P U ..X.U U _ | C / :.] ( / I 5 5 $ F | P O.{ ( D O.4.f 7 f # J { m  .{ { | | 2.u.} &.*.: y n * ( ( / | ( _ _ o.P ) o.D o.C V $.J 5 j +.U j U J ' ] z Z z   ",
"U ....K X./ / ] ) ] | ] _ ( ' ] D 5 s [ [ F [ [ [ [ ( | D 7.& d 3 s H O.>.( (  .| G H [ ( ' H @ q 6 ( _ / | o._ I _ I I | o.( m p r : h 5.Y S Y | | W ' Q - 8 v ",
"X.U ) ..) _ ..) P _ ( ] ] / ` ] | J D ( [ E P ( I [ { { J [ 7 S m { ( P | O.| | E ( 7.7.| ' E q C C A ] P :._ _ _ _ _ ( _ { ( m 4 f y s D Y +.X._ / E Q Z e Z Z ",
"k K P _ ..&.] ] ] | | _ ' &.&.&. .( [ } F (  .( [ } [ [ [ W [ J ( o.>._ ( ( ( | ( 7.S.k. .} ( W ] ] <.P ] P X._ K U { { { { | E m v G | L L O.+.U P <.s.q.Q -.Q ",
"U ..] _ #.] A .._ o.o.( G ( W z c | [ J *. .(  .{ [ ( [  .[ 4.[  .( >.>.P ( | P { <.j. .( | ( ] A <.&.' E X._ _ K P { _ { | | [ ' _ | { L I +.L ( E e.C.M.-.&.W ",
"U k ) ..' 1.1.1.( |  .[ m z p ; W J *. .[  .*.[ } }  . .~ [ [ | | o. .J [ 5.( f J / | V C | / &.` #.' ' ' ,._ P _ U ( U ( ( ( J ( ( | 0.v.5.{ I ( ( } 1.j.' W ' ",
"+...../ &.` v x  .J J [ x q r z W  .[ J }  .[  . .[ [ } [ 4.J } ( 1._ s J G 1 y J (  .( '  .( &.&.A <.` o./ P P { U [ _ ( ( E J ( G F k.H.5.U { |  .' H ' E / ( ",
"L _ ' i &.v 8 V | J [ } G z T ^  .R W [ [ 6.7.[  .} W [ *.7.} | ( | [ f 7 , o x ] | |  .] ( ( / ` A ] ` u _ N o.{ { ( { | ( ( } ( | F D { Y { { ] ( | W ( ( { ( ",
"..P _ 2 p < p ] (  .l.l.%.~ ;.%.%.}  . .i.A.m.} ~ *. .} *.} [ | | J O.m : s N J >.] (  .} ( o.] A l ' 2 2 ' _ { _ I ( _ ( ( ( _ ( | { ( F D P ' V p E ' ' J { I ",
"..U _ M 5 M H ( [ *.m.Z. .} 3.[ 7.m.x.3.R A.s.}  .} ~ 4.G %.J f ( [ { ( S D ( ( { P o.>.' ] ] ] / u : a M ) / _ M ) P a u ) ..] _ / ] o./ M C M q a ' <.] ( ( ( ",
"..U U P m X.| ( [ *.i.5. . .3.~ y.H.x.~ *.W } } } }  .w 4.J 5 G [ U { X.[ J ( { _ | _ P ] | / o.) h u A ) / ) / u u a : C ` ) :.] +.+.] ' C q < i A 1.C.j.' { ( ",
"{ / _ ] ( >.| ( R [ ~  .y.A.x.~ } y.;.R ~ z J $.~  .} d d f ; ~ | F ( o.| ] _ _ ( | / M ' ..) ] ) A P ..) ] ) / A 2 a t P ` ` ] <.b.h...] V p a E Q &.C.k.J ( | ",
"_ ( ] o.| | ( [  .6.4.*.x.A.y.~ R d G G 4 W ~ %.t.s.%.J . G d [ | P P | { { | ] ( / ( ( ) <.] ) ' ) ) ..` ) ` / ] u B ` C ....B ,.b.h.#.Q A E =.#.<.$.&.&.} >.( ",
"( ( ] ] } [ } *.;.A.F.6.~ ! ~ *.3.w ; x X } $.' m.H.;.V G ~ G  .] ( _ ( ( ] o.] ] ' ..] ] :.] P ] ] _ ] P ) ' ` A ] / #.#.] #.] ' ] #.' A A ` @.-.' @.' &.&.( ( ",
"| ] ( ( >.' | | } x.x.;.W W ~ *.*.G 1 x b W } E 3.c.[ G  .R R  .( _ ] ] _ ] ] ) ] ,.] M / P a ) ) _ _ ] P ] / ) / #.#.' &.B @./ i l ' -.' ` ' ` -.] 2.&.| | H  .",
"] o.) / :.] | E E ( ( } ;.4.*.} $.1.( E *.W W H T | E | ( ( W  .' / _ ] ] _ _ P _ o.P u n u 6 ) C L _ ] P _ / / ] ) #.` A i B e , M &.:.#.] @.&.@.M.G.&./ 6. .( ",
") ] ] ' 2.X.:.' ( _ } } ( J ' | 7.B.B.' J ( n C ] | &._ | >.| [ X.P P ] .._ _ _ .._ P u u 6 u ) N P _ ..K ) / _ _ o.' ] &.B 9 i p ' ( A ' @.( ' 7.n.n.u.>.( J [ ",
") P ....P M +.] n C ) ] ] ] _ _ 2.C.k./ ..] ' X.| _ _ o.] _ .._ o.P U { P _ o.) P X...K N P ) P U K ..K I +.P o._ _ &.C / x n ] / ( ( / ( ' ' | ( m ,.} }  .{ [ ",
"..P P ) M M a P 6 u K _ ] _ _ ) ....] ) ] .._ / .._ ) X..._ .._ { P _ _ ( X.X.P N _ X.P K L _ _ U X.K U _ I o.h P ( f M ' E / ( ( _ ( ' ( | | } V m H | [ } m [ ",
"..) ) ..P P % u t n ) ] X.] _ | ' M P ) u C ] ) _ _ ) .._ ) o.] | ( | | ( _ P h N _ o._ _ ..{ X._ { j X.{ L 7.y f G > J ] ' | ( { ( / ( ( | | ( } D D } ( S s 1.",
") ..] ] / ] t y C / _ _ ] ( _ | ) l a h : n | / _ ' ) ] _ / X...} ( _ ( m s y 6 M _ .._ P _ _ | ( U _ _ ( ( o.m $ f 1 ( ' W ' ! _ ( _ ( ( [ ( ( } J G w p 4 y *.",
"] ] [ ( ( } } ( | ] } ( [ ( [ ' / z 9 a a ] &.G / ' _ | _ ( | ] | } &.| V w r d E ' ] ' ' | ( ' _ | &.( ( } W ' p G W &.&.' ` | ' | | ( } ( ( } ( *.! ; 0 v Q ;.",
"&.' } } *.G  .*.} | ~ } } *.} W ' V z V W $.` ' ' $.' } ' ' &.' @.$.$.$.R c V ' ' } ' ' } ' ' ' ' } ' Q @.&.` #.$.] e.-.&.@.Q ' ( ( ' ' ( ( ' ' } &.Z c Z &.=.q.",
"=.~ $.~ 3.R G ~ ' R } } %.%.} ~ %.=.=.! ~ ! ^ ;.$.$.%.%.%.$.;.$.^ %.%.=.^ ! @.-.Q } ! @.' ! Q ' -.Q @.@.-.-.-.w.w.@.<.@.@.=.@.@.} ' &.' | ' } $.$.Q b @.^ ^ ^ ^ ",
"6.r.t.~ s.y.~ 3.3.3.3.3.3.3.3.3.$.r.y.%.%.%.3.%.;.;.%.%.%.*.t.%.t.d.p.;.q.p.p.w.w.w.w.q.1.;.-.w.w.Q w.w.@.q.q.a.a.w.w.w.w.a.w.a.1.1.1.1.e.e.w.1.w.w.p.q.q.q.d.w."
};
