/* XPM */
static char *_f4dc9ae7f9d4f60db41c16fa654cf3eMbx9jeZUPp9ZLckd[] = {
/* columns rows colors chars-per-pixel */
"80 77 255 2 ",
"   c #020404",
".  c #060807",
"X  c #03040A",
"o  c #170704",
"O  c #080B14",
"+  c #041518",
"@  c #111210",
"#  c #280700",
"$  c #2D0E05",
"%  c #0A231B",
"&  c #121927",
"*  c #072727",
"=  c #14302C",
"-  c #2C2921",
";  c #252B2E",
":  c #282828",
">  c #2C2D2B",
",  c #362B2C",
"<  c #28332C",
"1  c #34332B",
"2  c #252D33",
"3  c #2A2F32",
"4  c #292C38",
"5  c #332C33",
"6  c #362937",
"7  c #253233",
"8  c #2B3134",
"9  c #29343A",
"0  c #353638",
"q  c #480E06",
"w  c #5A1801",
"e  c #670A01",
"r  c #6A1A02",
"t  c #761801",
"y  c #731C01",
"u  c #5B240A",
"i  c #512D18",
"p  c #6C2805",
"a  c #62260A",
"s  c #64280C",
"d  c #752402",
"f  c #7A2402",
"g  c #772A06",
"h  c #7C330A",
"j  c #672F12",
"k  c #752A13",
"l  c #763414",
"z  c #462921",
"x  c #492B25",
"c  c #463628",
"v  c #50322A",
"b  c #7C3C23",
"n  c #2D4916",
"m  c #344437",
"M  c #4C4730",
"N  c #745133",
"B  c #5D6B38",
"V  c #1F3141",
"C  c #313C43",
"Z  c #4C3B43",
"A  c #1A494F",
"S  c #24464C",
"D  c #384A4D",
"F  c #274754",
"G  c #18736E",
"H  c #286B6C",
"J  c #2D6E6F",
"K  c #4E4F50",
"L  c #6D574D",
"P  c #626A55",
"I  c #505C63",
"U  c #536D70",
"Y  c #6C7671",
"T  c #851A07",
"R  c #842A06",
"E  c #8E2B0B",
"W  c #873708",
"Q  c #953609",
"!  c #893915",
"~  c #923C14",
"^  c #973D1B",
"/  c #A43C17",
"(  c #923924",
")  c #C1351D",
"_  c #8A400F",
"`  c #8B4216",
"'  c #964519",
"]  c #AC4917",
"[  c #A44519",
"{  c #AD4B19",
"}  c #B04E1A",
"|  c #B8681E",
" . c #8A4726",
".. c #984828",
"X. c #98542A",
"o. c #8E4D32",
"O. c #984C32",
"+. c #9B5636",
"@. c #A54724",
"#. c #B14B26",
"$. c #A75529",
"%. c #B75727",
"&. c #A95936",
"*. c #B85A37",
"=. c #AB6439",
"-. c #B86A31",
";. c #B9673A",
":. c #C45D29",
">. c #CD5D35",
",. c #E65A35",
"<. c #C8642C",
"1. c #C86839",
"2. c #D46A39",
"3. c #D2713C",
"4. c #E76F3A",
"5. c #FB7C3E",
"6. c #955B4C",
"7. c #AA5B47",
"8. c #91694D",
"9. c #A86749",
"0. c #B96845",
"q. c #BC7347",
"w. c #B26954",
"e. c #AF7155",
"r. c #82757D",
"t. c #B67966",
"y. c #C66A46",
"u. c #CB6C43",
"i. c #D36B45",
"p. c #D76D47",
"a. c #C87348",
"s. c #D87647",
"d. c #CC6A54",
"f. c #C96C5D",
"g. c #C97755",
"h. c #D67854",
"j. c #E66C43",
"k. c #E67847",
"l. c #FD7E42",
"z. c #F77A49",
"x. c #EC7A54",
"c. c #67932C",
"v. c #7AB334",
"b. c #34817E",
"n. c #6B9569",
"m. c #85BC39",
"M. c #F5863D",
"N. c #85C42F",
"B. c #8BC53C",
"V. c #89BC45",
"C. c #B5886D",
"Z. c #A4A067",
"A. c #D58754",
"S. c #EA834A",
"D. c #FD8445",
"F. c #FC844B",
"G. c #F68849",
"H. c #FD8A4C",
"J. c #ED924C",
"K. c #E98455",
"L. c #FE8552",
"P. c #F48B54",
"I. c #FB8C54",
"U. c #F88958",
"Y. c #F9935B",
"T. c #E5A95D",
"R. c #CE8A6C",
"E. c #F1966A",
"W. c #F2AF6C",
"Q. c #F8BA77",
"!. c #8CC646",
"~. c #91C945",
"^. c #92CC4A",
"/. c #96CA56",
"(. c #98D151",
"). c #A4D95A",
"_. c #8ACB6C",
"`. c #A6D369",
"'. c #A9D572",
"]. c #F6CA72",
"[. c #F8C877",
"{. c #117784",
"}. c #5D7B8F",
"|. c #6F7B8A",
" X c #687C95",
".X c #847F95",
"XX c #2E908B",
"oX c #37A6A5",
"OX c #568B92",
"+X c #5A9999",
"@X c #6E8C88",
"#X c #698997",
"$X c #77899A",
"%X c #679899",
"&X c #75959A",
"*X c #5DA398",
"=X c #6DAE99",
"-X c #5B98A3",
";X c #738DA2",
":X c #798AA3",
">X c #6999A5",
",X c #6F95AE",
"<X c #7698A5",
"1X c #5BA7A7",
"2X c #52B0B7",
"3X c #58B5BB",
"4X c #66A5A8",
"5X c #78AEAC",
"6X c #66A7B5",
"7X c #76A7B8",
"8X c #66B6BA",
"9X c #3FCDB5",
"0X c #56C9B3",
"qX c #68D6AA",
"wX c #51B2C3",
"eX c #5ABBC5",
"rX c #65B8C6",
"tX c #72B3C9",
"yX c #35EDE0",
"uX c #57C9CB",
"iX c #4ED3CD",
"pX c #58CAD3",
"aX c #57D7D8",
"sX c #6ECBCB",
"dX c #68CAD5",
"fX c #65D6D7",
"gX c #4EEADA",
"hX c #6FE0DD",
"jX c #58DCE3",
"kX c #6DD8E4",
"lX c #4DE7E9",
"zX c #57E8E8",
"xX c #4AF9E9",
"cX c #56FBEC",
"vX c #49FDF6",
"bX c #54FDF3",
"nX c #59FDF5",
"mX c #66F0EC",
"MX c #858C93",
"NX c #AC9293",
"BX c #A2A399",
"VX c #8488A6",
"CX c #8897A9",
"ZX c #8EA7B3",
"AX c #AAADAB",
"SX c #ECB988",
"DX c #FBCD84",
"FX c #C8DCAB",
"GX c #D0E8B1",
"HX c #A7B9C9",
"JX c #C5B1CE",
"KX c #91CAD3",
"LX c #DDE0D2",
"PX c #EBF2EB",
"IX c #FCF7F8",
/* pixels */
"^.(.^.m.).c.c.).n M 9X0X8X<X#X*XVX%X#XCXOXA * m : & : 3 8 3 > ; 8 3 8 < - u y 4.H.z.Q.DXQ.R.9.a 1.G.j.i.p W L.z.a.O.f <.S.p.y.g g t B *X&X6X2X0XB c.V.V.B.B.N.~.",
"(.B.m.~.).(.v.FX< o gXvXoXtX;X-XVX+X&XY K * + 0 5 3 3 8 3 ; 2 3 > 5 > < i N ] 4.D.z.W.[.W.g.o.w >.J.j.i.p _ I.k.u.O.d 2.P.k.y.R h ) N Y CXeXyXzX* % FX`.B.B.!.B.",
"~.~.(.(.v.`.LXPXm & fXvXyXpX,X#X>X%X$X0 & 0 ; 3 5 8 8 3 3 3 8 3 2 3 : z i *.4.l.M.L.T.].W.0.O.r >.G.j.i.p W U.j.u.O.y <.K.j.y.E h L.$.v &XgXvXmX& & PXLX'.~.B.N.",
"B.B.B.(.`.LXAX;XJ {.tXfXuXiXiX8X*XU I @ @ 6 5 4 ; ; 3 ; 3 8 8 > ; 3 , z a u.F.F.M.G.T.].W.0.+.t i.H.j.i.d W U.k.y.o.y 1.U.x.y.R ! Y.,.r n.pXiXjX{.J :XAXLX(.~.N.",
"B.(.~.`.GXIXZ * 6XyX6X<XCXwXxXsXOX9 @ % 1 > 5 0 2 ; 3 2 3 3 8 3 7 2 1 i w >.l.5.H.l.S.DXW.*.+.r i.F.j.p.d W L.j.;.O.p <.U.h.y.R _ M.2.r Y 7X XrXyXtX* Z IXGX(.).",
"~.~.B.FXIXIXK * uXnX-X%X@X1XfX}.m > O < m : 0 0 2 3 8 3 3 ; 3 8 9 9 1 c w >.F.l.F.l.M.[.W.*.+.r 1.F.j.p.g W U.j.q. .p 1.P.k.>.R ! J.,.e Y 7X X-XmXfX+ D PXIXFXm.",
"^.~.'.PXLXLXU * rXhX+X4X-X>X7XK X 5 : 7 < < 0 8 7 8 8 3 3 3 ; 8 8 V < i w >.U.z.M.D.G.[.Q.9.+.p >.D.4.i.d W I.k.1.o.r <.P.j.y.T W J.,.e P 1X;X-XfXfX= D JXPXPX).",
"V.^.GXIXAXP OXXXtX5XOX>X>X,X,XF X ; ; ; 8 7 8 8 8 8 3 3 3 3 8 3 8 V : i p >.U.D.M.M.J.SXQ.=.X.y y.D.s.u.g W P.s.1.+.r <.Y.p.p.t W J.,.r n.*X$X&XuXrXoXOXL AXIXFX",
"!./.PXIX|.$ 1XnX6X#XOX&XCX@XY K . > ; 2 3 3 8 8 8 3 8 8 8 8 3 3 3 0 - j ` 1.L.l.D.M.T.Q.E.q...y 1.D.s.a.f W Y.s.u.+.r <.I.2.p.f _ M.4.R N n.MXCX-X7XxX0XO L IXPX",
"V.FXIXPXMXO XXnX2X%X%X&X&XU 3 > @ ; > 3 3 3 8 8 3 3 8 8 8 5 8 8 ; c i  .<.z.L.l.G.T.T.J.h.d.&.t ;.D.3.y.d Q Y.s.i.O.p <.P.s.p.f _ H.3.{ O.L Y %XOX6XyX9XO I IXIX",
"^.GXPXAX$XF oXkXwXwX3X6X%XU X : , 2 > 2 3 3 8 3 3 8 ; 3 8 0 0 0 ; z u $.S.L.z.k.H.[.Q.-.*.h.>.y ;.H.3.q.f Q P.s.3.O.y <.I.p.d.f _ D.A.;.@.k }.8X2X0XaX2XF |.AXLX",
"!.PXAXc J iXrX7XlXzXmXfX1XU X & 0 > 2 3 3 8 8 3 ; 8 3 : 8 D D 0 ; i u | H.F.l.l.H.[.[.-.*.h.*.t -.H.i.0.d Q J.4.s.$.y <.P.p.p.d _ l.A.q.( x >XzXaXyXZXOXiXOX2 BX",
"!.PXAX@ H vXrX XuXjXfXrXH D & ; 0 3 3 3 8 3 3 3 8 8 3 ; 8 0 C 0 8 i u | M.5.l.F.H.].Q.q.y.h.#.t 1.I.1.0.d Q P.k.k.O.d <.P.3.p.f _ L.s.1.' u =XfXfXiXCX6XcXXXO MX",
"B.PXAX@ b.cXeX;X>X2X>XOX+ & ; 4 3 ; 3 3 3 8 8 3 ; 8 8 5 8 3 3 8 0 v w %.5.5.z.H.J.[.Q.;.d.h.@.T ;.H.1.0.d Q P.4.4.+.y <.I.s.p.f _ F.S.2.[ a Y %X6X<X#X2XxX+XO $X",
"~.IXAXX XXcXwX#X&X#X%Xn.. @ 5 5 ; 8 8 8 8 8 3 ; ; 8 8 8 8 3 2 3 4 v w #.H.5.F.H.G.DXQ.=.q.g.$.t %.G.i.0.p Q P.k.s.X.y <.I.s.y.f ~ D.l.4.[ u M D :XMXOXwXnXoXO MX",
"~.IXAX  b.bXwXVX@X+X4XU . & , 3 7 8 8 0 8 8 8 3 8 8 8 8 3 3 3 3 3 c i { L.l.L.F.F.[.Q.=.d.y.*.t -.G.s.=.d ~ P.S.3.O.y <.L.p.a.R ' D.z.j.^ j $ O  X@X#XwXnXXXX NX",
"(.IXAX. XXnX2X,XOX%X&XU + @ 5 8 3 ; 3 ; 3 3 3 8 8 8 3 3 8 3 3 8 3 z u #.H.l.I.S.P.SXSXq.d.0.&.r 1.S.3.;.g ~ K.k.i.o.t <.I.k.y.g _ D.z.j.' l $ . }.@X%XeXmXXXX NX",
"V.LXBX= XXzX2X7X+X<X@XI O @ ; 0 8 8 3 3 ; 3 8 5 8 3 3 3 3 3 3 3 3 z a :.F.l.Y.3.S.W.W.0.0.*.@.r ;.S.u.9.g Q S.k.u. .y :.Y.s.y.R _ G.S.i...l # X #X%X>XeXmXoX= |.",
"V.K U XX2XrX-X:X$XOXS 6 & : 3 8 ; 8 3 ; 8 8 8 8 3 3 3 3 3 4 8 3 3 v a #.F.F.P.} [ $.&.! ( ! E d ;.P.s.=.d Q K.s.a.o.d <.I.i.;.d ! M.s.u.^ k # X }.MX$X>XrX2XXXOX",
"v.  A mXjXwXrX1X7X+X* O - 0 2 ; : 3 2 ; 3 8 8 8 3 3 3 8 3 3 8 3 4 x w { I.k.3.] ~ _ ! E ( ^ W d &.s.;.X.g Q K.s.0.O.d <.U.u.;.g ~ G.S.a.( p # X -X7X7X6X3XpXhXJ ",
"m.. A nXyXpXlXyXlXsX* O : 0 = 9 5 0 0 ; ; 8 8 8 ; 8 3 3 8 3 3 8 5 x a { Y.| / 1.s.3.a.s.h.s.$.d W ~ h l r / K.h.y. .d <.U.u.0.d ~ F.s.0. .k # % wXgXgXgXgXcXvXG ",
"V.. A vXvXtXuXyXaXsX+ O 6 0 = 9 5 K D 9 ; 8 8 8 8 3 3 3 4 3 3 8 3 x u ' Y.Q t s.E.k.k.S.k.S.<.^ ' @.^ ..y Q 2.*.&.N r <.Y.u.0.d ' F.s.y...k # % 2XaXiXiXpXlXvXG ",
"m.  A vXjXCX<X6X,X1X+ . : 0 = C c I K C 8 8 8 8 2 3 3 8 8 2 3 4 3 v u ' E.} t k.K.u.1.0.0.a.h.i.K.k.A.a.W R / E k k a -.P.a.0.f Q D.s.y.^ g o . OX,X,X4X;XeXnXG ",
"V.  F bXpX$X>X&X;X#X+ . - D C K K I K 0 8 > 8 8 3 3 3 3 3 8 3 3 3 z a $.Y.] r 3.Y.3.0.9.e.C.g.h.k.4.K.i.%.} ] } &.( p X.=.&.@.t ' M.A.y.@.f o + |.>X;X%X:XwXbXH ",
"V.  F nXuX#X%X%X>X&X+ . 5 K I K K K 0 3 2 3 8 8 3 3 3 3 3 3 8 3 3 i a $.P.] R 3.S.a.=.9.C.C.A.q.1.0.q.a.h.S.5.j.U.*.g W R R ! a ` K.g.q.( a o +  X*X&X%X#XrXnXH ",
"m.  F cXuX#X*X%X&X#XO   Z I U K K 5 3 > > 3 8 8 8 3 3 3 3 3 3 3 4 i w %.G.2.%.%.#.[ `  .w.C.C.q.0.w.t.R.A.k.4.4.j.1.] %.%.:.&.p g %.X.X.( r # O  X>X&X%X:XtXnXH ",
").X S cXuX$X%X@XMX$X= @ K K I 0 0 3 3 ; ; ; 8 8 8 3 3 3 8 3 3 3 3 v e %.H.G.k.%.Q R p p o.6.7.=.;.8.C.NXw.;.y.y.w.A.s.G.x.U.u.~ R Q R ! g t q o }.&XMX&X:XrXbXH ",
"V.X S cXiX$X%X%X:X7XC , L K D 2 > 3 2 > 3 3 8 3 3 3 8 3 8 4 3 3 8 v w %.F.H.U.2.%.g y p ! ( ( ( ..` e.C.w.9.t.C.NXt.d.j.j.h.p.<.:.:.1.;.W E t q @X<X X+X;XeXvXH ",
"^.  A xXiX6X1X6X7XtXS 1 M D 9 ; < 3 3 3 3 ; ; 3 3 3 3 8 3 3 8 3 V x u %.5.D.H.z.K.' ' _ R f d d d g  .9.7.7.+.e.NXt.w.>.y.w.t.k.k.K.U.x.{ Q E i *X2X6X2X6XeXvXH ",
"/.  S vXlXdXmXzXhXKXS : 1 0 ; 7 > 3 3 3 3 3 3 3 3 3 3 3 3 3 3 3 4 x s #.M.D.l.D.P.T.R.-.~ g f g p d l ! ' ^ ! o.C.e.y.*.w.C.Z.R.i.a.>.h.-.1.) v =XgXiXgXkXzXvXG ",
"~.  F vXzXKXkXhXhXKXA % > 8 ; 7 ; > 3 3 ; ; > 3 8 3 3 3 4 3 3 3 4 x s { D.D.F.z.D.DXQ.q.$...W d ` [ g h h E R W 9.+.&.$.9.C.C.C.;.y.0.R.R.A.Q j =XgXaXaXdXzXnXJ ",
"/.X F xXaXZX8XZXZXZX* . 5 > 8 8 3 3 3 3 8 8 8 3 3 3 3 3 8 8 3 3 4 x a { H.l.F.G.G.].Q.1.0.a...r *.5.W j j h ~ d b l h h h 9.e.w.;.y.t.NXt.s.W j @X8X<X1X,XeXnXH ",
"/.  D cXfXZX5XZX<X&XO   5 1 7 7 8 3 3 3 3 3 3 3 8 3 3 3 3 3 9 3 3 x a ] H.l.H.F.H.[.Q.1.a.g.O.f 1.z.#. .p h %.! a l r d g  .o.&.' ' w.BXg.h.! s @X>X#X+X,XwXnXJ ",
").X D cXdXZX5X=X<X#X+ X 1 8 < 8 8 3 3 3 3 3 3 3 3 3 3 3 3 3 3 3 3 x a ] H.l.H.z.z.].Q.1.y.g.$.f 1.I.1.=.g Q S.%.g l r R W d j ! g p &.8.w.y.( v @X<X&X%X;XrXnXJ ",
"!.. I nXhXCX%X@X&X@X+ O 0 0 3 3 5 8 3 3 3 3 3 3 3 3 4 8 3 3 3 3 3 x a ] H.l.L.z.D.].Q.1.1.q.O.y 1.H.3.=.p Q U.a.` ! r ' #.g d p f p _ N ..@.u $ n.<XVX%X;XeXnXH ",
"V.@ U mXsXVX%X%X&X#XO . 0 5 ; 7 3 3 3 < 3 3 3 3 3 3 3 3 3 3 3 3 3 z a ] H.l.H.F.H.].[.a.y.g...f 1.H.1.=.g Q U.x.-.o.d <.s.' h d g h Q s d k # # }.>X$X%X:XrXnXJ ",
"^.: I nXpX:X+X+X>X#X+ . 6 3 3 < 5 3 3 3 3 3 3 3 3 3 3 3 3 3 3 3 3 z a ] H.l.F.F.H.].Q.u.y.a...t ;.I.3.=.p Q L.k.1.o.f 2.Y.%...g W -./ p f a o o OX%X&X*X>XeXbXJ ",
"~.4 }.bXpX,X1X4X4X&XO   1 > 3 7 3 3 3 3 3 3 3 3 3 8 3 3 8 8 3 8 3 z a ] H.l.L.F.H.].[.3.d.a...t y.L.u.9.p Q K.k.;. .y :.Y.1.*.g ~ E.>.W E k @ X OX1X&X1X>XeXnXJ ",
"!.: J zXlXsXfXfXfX5X* . 5 > 8 8 5 8 8 8 3 3 3 3 8 4 3 3 3 4 3 3 3 z a { H.l.F.F.D.].Q.p.d.e...R 1.F.u.9.p Q H.k.y.o.f <.Y.u.0.p ! I.2.X...k $ O 8XaXsXpXsXjXnXJ ",
"!.O F vXlXdXcXlXlXsX*   > 3 4 3 5 8 8 8 8 3 3 3 3 3 3 8 3 3 3 8 3 z a ] H.l.L.F.H.].W.j.d.8.N T <.F.u.w.p Q H.k.a...f :.U.1.0.d ~ F.k.q. .k # + eXzXjXzXkXjXvXH ",
"!.  A vXjX6X2X2X6X6X+ . 1 8 4 3 1 8 8 8 8 8 8 3 3 3 3 3 3 3 3 3 3 z s { H.5.H.F.F.].Q.d.7.L i t 1.D.1.w.d Q H.k.p.O.t :.I.1.0.g ~ I.s.q...k # O -XeX6X2XrXpXvXG ",
"^.X A vXiX;X>X#X:XOX+ . 1 8 2 8 > 8 8 8 > 8 3 3 3 3 3 3 3 8 3 3 3 z s { H.5.F.F.F.Q.[.6.L Y K s 0.H.u.w.p Q H.4.i...R <.I.u.0.d ~ H.s.y...k # X OX<X$X+X,XeXbXJ ",
"^.  A bXpX X%X#XCX#XX o c 5 4 8 1 8 8 3 8 8 8 8 3 3 8 8 3 3 4 3 3 z s { H.5.L.F.F.Q.SXN P CXY i 9.G.u.w.d Q H.k.s.O.f :.P.y.0.d ~ G.k.u.^ k # . }.7XMX%X#XrXnXJ ",
"~.X S bXuX$X%X%X<X&XO   1 8 V 9 ; 8 8 8 ; 3 8 3 8 3 3 4 3 3 8 8 3 z s { H.5.L.F.F.[.SX1 U HXr.c e.H.u.w.d Q H.k.a.O.y <.P.1.0.d ~ G.k.p.^ p # .  X4X&X+X;XrXnXH ",
"^.  S cXpX$X%X%X<X&X+   > 7 9 9 > ; 3 3 8 8 8 8 8 3 8 3 3 3 3 3 3 z s { H.5.L.F.F.[.SX1 I HXY 1 e.G.u.w.d Q H.k.s...t <.P.a.0.d ~ G.G.p.' j o X  X>X&X+X:XrXnXJ ",
"!.X S cXdX$X%X#X;X#X+ X < 7 9 8 > 8 ; 3 8 8 8 8 8 3 3 3 3 3 3 3 3 z s { H.5.L.F.D.].DXn J JXr.1 e.S.y.w.p Q L.k.a...R <.Y.1.0.d ` G.z.p.' j $ .  X;XMX%X XrXnXJ ",
"v.  A vXjX:X7X4X7X>X+   : 7 4 5 < 3 3 3 > 8 8 3 8 8 3 3 3 3 3 3 > z s ] H.l.F.H.D.].SXM L BXr.v 9.G.3.0.p Q I.j.h.O.d <.P.i.0.d ! M.z.s.[ j # . #X6X,X7X7XrXvXH ",
"v.X F vXlXdXaXaXaX8X% . < 7 6 5 < 3 3 3 8 8 8 ; 3 3 8 8 4 3 3 2 2 x s { H.l.F.z.G.].].o.6.U I r 0.J.j.i.p Q U.z.s.O.r <.Y.p.i.f _ G.M.s.' k o + wXaXfXiXdXjXvXH ",
"(.X F vXvXpXgXyXxXsX= o > 2 6 5 = < < 8 8 ; 3 3 3 3 3 8 9 4 8 3 ; x s { H.l.F.F.G.W.[.0.6.D 0 w a.J.k.i.p _ H.z.d.O.r <.I.p.p.f ' D.k.s.' k # + rXxXgXgXjXlXvXG ",
"!.X A vXjX,X8X6X7X1X+   < 7 6 , < 3 8 8 8 8 3 3 8 3 3 8 0 8 8 0 8 x s { H.l.F.F.G.].[.0.6.K c r <.J.j.i.p W I.z.a.O.d <.Y.3.i.f _ M.5.i...g # . >XrX7X3XtXdXnXJ ",
"^.X A xXdXVX&X#XVX+XO o < 9 6 6 = > 3 8 ; > 8 3 3 3 3 8 8 8 8 0 0 x s } L.D.F.z.D.].[.;.7.M M t <.J.j.i.g _ x.z.a...r <.I.p.p.d _ D.z.h.@.k #   OX:XVX<XCXtXcXH ",
"V.X V xXuX:X1X+X>X+XO   < 2 6 4 = 3 3 8 8 8 8 3 3 3 3 8 9 0 8 8 8 x s ] H.5.H.z.M.W.[.h.w.0 c t 1.G.j.i.p Q U.z.a.O.r <.I.p.p.d _ H.S.p...h # . #X<X&X%X<XrXcXH ",
"!.X S cXuX$X%X%X,X#XO o : = 0 0 = 8 8 8 3 3 3 3 3 3 3 8 9 3 8 3 8 x s ] H.l.F.F.D.].].i.w.0 c t :.G.j.p.p W U.j.;.O.r <.Y.2.p.f ` H.S.a.' p $ . #X1X&X*X$X8XnXJ ",
"!.. A cXuXVX%X%X&X;X@ o < = 5 6 < 8 8 < 3 3 3 3 3 3 3 8 8 3 3 4 ; x s ] H.l.L.z.D.].].a.w.0 M R :.G.j.p.g W I.k.a.O.y <.P.p.p.f _ H.S.y.! p $ .  X>X&X%X$XrXcXH ",
"^.. A cXuX$X%X@X&X#XO o , 3 4 8 = < 8 8 3 3 3 3 3 3 8 8 8 3 3 3 ; z s } H.5.F.H.P.].W.s.w.9 Z T -.H.k.i.g W P.4.1.o.t 1.P.i.y.g _ J.s.y. .l $   }.<XMX%X&XeXbXG ",
"!.. A xXaX&X4X4X,X>X+ . x 6 4 7 < 3 8 < 3 3 3 8 8 3 3 3 3 3 3 3 8 z s { H.l.H.G.G.].W.k.6.D Z T | H.p.u.d Q P.s.3.o.y 2.J.y.*.R Q G.A.1...l # . -X>X>X1X>XeXxXH ",
"v.X F vXzXtXfXaXpX8X* + n > 9 8 : 8 8 8 3 8 8 3 8 3 3 3 8 3 3 3 8 z s } H.5.H.F.D.DXW.3.6.m Z E | H.s.a.y Q Y.s.3.+.y 2.G.1.&.W W H.z.h...k o + 6XaXdXaXdXjXvXH ",
"V.X A vXnXkXmXzXzXsX* . < 3 9 8 : 8 3 3 8 3 8 8 3 8 3 3 3 3 3 3 3 z s { H.5.L.F.l.].T.A.6.m v T <.H.j.d.f Q Y.k.3.O.t 2.P.a.0.h ! z.z.j.@.s o + 8XzXkXzXkXzXvXH ",
"^.. A vXjX6XuX3XeX6X% . : 3 9 3 : 8 8 8 > 8 8 8 8 3 3 3 3 3 8 3 3 z a { H.5.L.F.F.].Q.q.8.Z x s >.H.s.a.f Q Y.k.s.O.t 2.P.a.9.h W D.G.s...p # + >XpXrXwXrXpXbXH ",
"~.  S bXpX X*X+X>X;XO . , 3 4 4 < 8 3 8 8 8 8 8 8 3 3 8 8 4 3 8 3 z a { H.5.L.F.G.].[.8.P L K u >.H.s.a.f Q Y.z.s.O.t 2.K.y.w.!  .G.k.a.^ g # X #X>X#X+X,XeXcXH ",
"~.. A cXpX$X#X@XCX$X@ o c 5 2 2 < 8 8 8 3 8 8 3 3 3 3 3 3 3 3 4 3 z s { H.5.F.F.F.[.SXM I NXY n f.G.i.a.f Q U.k.p.&.t 2.K.g.t.+.9.M.S.a.' g # X }.<XMX#X$XrXnXJ ",
"B.. F bXpX$X%X%X&X#XO . , 3 2 8 > 8 8 8 8 8 3 8 8 3 8 4 3 3 3 3 3 z s { H.5.L.F.F.[.SXm U AXY n f.L.i.q.t Q U.k.p.$.t 2.Y.A.t.+.+.M.S.s.^ g # . OX<X$X%X;XeXbXJ ",
"N.X F bXpX#X*X%X%X&X+ . > 2 2 9 , 8 8 8 3 8 8 8 8 3 8 3 3 3 3 3 3 z a { H.5.F.F.L.SXSXc U JXY : t.F.a.q.g Q I.k.2.O.g s.E.K.h.(  .D.G.s...p # . #X&X@X%X>XeXbXJ ",
"B.X F bXpX$X>X%X:X#XO . > 2 9 8 , 3 3 3 3 3 3 3 3 3 3 3 3 3 3 3 3 z a ] H.l.L.F.K.DXDXv U HX@Xz e.K.u.0.g Q K.P.3.o.! h.SXh.h.! ! D.x.i. .j $ X }.<X@X%X;XrXbXH ",
"~.@ A vXaX;X4X>X<X%X+   1 3 4 7 ; 8 ; 8 3 3 > 3 8 3 3 3 8 3 3 3 3 z a { H.5.F.z.H.[.SXM P ZXY v 9.H.i.9.f E P.K.i.9.` a.W.s.d.E ! G.k.a...l # X -X,X:X4X,XuXvXG ",
"~.% A vXlXtXiXuXuX8X%   , 6 2 2 < 8 ; 8 8 8 8 3 3 3 3 3 3 3 3 3 3 z a { H.l.L.F.H.].[.N L Y L u q.H.2.=.d ~ E.E.g.e.` A.Y.p.d.g ! G.k.i.@.k o + 1XpXuXuXdXaXvXH ",
"B.n A vXbXdXcXxXvXsX*   x 6 3 7 7 8 8 8 8 ; 8 ; 3 3 8 3 4 3 8 3 3 z a ] H.l.F.F.F.].[.9.6.L j p a.H.3.&.p ^ E.E.g.e.` 1.Y.p.d.R ! J.s.u.^ k # + 8XxXzXxXfXzXvXJ ",
"^.c.F bXaX7XuX3X3X8X%   , 6 4 ; < ; 3 3 8 ; 8 8 3 3 3 3 8 3 3 3 3 z a { H.D.F.F.D.[.Q.q.w.6. .f 1.J.2.=.l o.E.E.R.&.g <.U.i.y.g _ J.k.1.^ g o + 1XuX8XeXtXpXbXH ",
"!.v.D bXpXVX<X;XVX>X+   1 5 4 7 < 8 3 ; 8 8 3 3 3 3 3 8 8 2 8 8 3 z a { H.l.F.F.H.[.W.a.y.g.&.t >.G.a.q. .O.E.E.g.o.y %.U.i.y.f _ G.S.i...k # X OX:X|.>X,XrXbXJ ",
"!.!.B vXpXVX<X<XCX#XO . 5 2 9 8 : 3 8 8 3 3 3 3 3 3 3 3 4 8 3 3 8 z a { H.l.L.F.H.[.W.;.y.g.&.t 1.P.h.R.o.&.W.R.q...r <.L.2.0.f _ D.k.a.~ j $ X }.<X.X%X:XpXnXn.",
"^.!.v.bXpX:X=X&X:X$XO o > ; 2 4 1 8 ; ; > 3 8 3 3 8 3 3 3 8 3 3 3 z a { H.l.L.z.H.DXQ.1.y.h.$.r u.P.A.R.+.&.E.K.0.o.d <.K.2.;.R ! L.s.X.! g w @ }.<X,X;X$XuXxXv.",
"!.^.^.qXuX$X>X%X&X:X@ . 1 3 2 2 , 7 8 8 8 3 3 3 3 3 3 3 3 3 3 3 3 z a { H.l.F.F.H.[.DXy.u.h.$.r u.Y.A.E.` ~ E.h.1.o.d <.S.u.7.R ! I.1.h R R y i n.@XeX:X.X0XqX/.",
"!.!.!._.0X@X%X+X%X>X+ o c 4 4 2 < 3 3 8 3 8 3 3 3 3 3 3 3 3 8 3 3 z a { H.l.F.F.L.[.[.3.u.g...f g.E.P.R.h R K.h.i.O.e <.U.1. .g ! <.%.{ #.[ R j P Y >X,X|.qX_.^.",
"^.!.!.!._.&X>X&X:X-X% . x 6 4 9 < 3 3 > 3 8 ; 8 3 3 3 8 3 3 3 3 3 z a { H.l.L.F.H.[.Q.a.u.g.&.! R.E.s.a.! Q K.k.i.O.e 2.I.~ f W R R } x.K.h.' l k ( #X,X@X_.~./.",
"!.!.^.(.!._.=XuXuX8X* . , 6 0 7 7 3 8 8 ; 8 ; 8 3 8 2 3 3 3 3 3 3 z a ] H.l.H.z.H.[.Q.a.d.q.9. .R.Y.s.=.g ~ K.p./ N d #.<.$.#.%.:.$.<.x.p.A.$...y b 2XqX_._._.v.",
"!._.^.!.!.).V.iXgXsX* . , 6 C 9 < 3 ; 8 3 8 3 3 8 4 8 3 3 8 3 3 3 z a { H.l.F.F.D.[.Q.h.R.R.e. .g.G.a.&.d Q x.u.T p W R Q p.E.x.l.A.g.d.*.q.;.;.E M qX_.V./././.",
"`.`.`././.'.`._.qX=Xn . > 1 0 9 < 3 3 3 8 3 3 8 2 8 4 8 3 3 3 3 3 z a { H.l.H.z.H.[.SXE.E.NXq...y.K.%.! p R #.>.>.=.| :.<.y.h.h.3.a.g.R.C.q.d.;.X.n.`.`.`.`.'.'."
};
