/* XPM */
static char *ezgif_com_gif_maker__1_1673087572[] = {
/* columns rows colors chars-per-pixel */
"40 40 65 1 ",
"  c #649C1C",
". c #68A11C",
"X c #669D21",
"o c #6BA424",
"O c #6DA826",
"+ c #6DA52A",
"@ c #6EAA2B",
"# c #70A72B",
"$ c #73AC2C",
"% c #7AAE2F",
"& c #75B02F",
"* c #79B22E",
"= c #75AC32",
"- c #79AF34",
"; c #75B231",
": c #7BB434",
"> c #7EB837",
", c #7DB539",
"< c #7EBA3A",
"1 c #7EB840",
"2 c #81B636",
"3 c #82BB36",
"4 c #82B63C",
"5 c #83BC3C",
"6 c #88BE3C",
"7 c #86C13E",
"8 c #8AC33D",
"9 c #84B740",
"0 c #85BD42",
"q c #89BE44",
"w c #86C242",
"e c #8BC444",
"r c #8DC946",
"t c #8DC54A",
"y c #8ECA49",
"u c #90C647",
"i c #92CA46",
"p c #91C64B",
"a c #92CB4B",
"s c #98CD4B",
"d c #95D04D",
"f c #9AD24D",
"g c #8EC752",
"h c #8EC850",
"j c #94C751",
"k c #95CD52",
"l c #98CE55",
"z c #96D251",
"x c #9AD254",
"c c #9ED957",
"v c #97D05A",
"b c #9CD459",
"n c #A0D757",
"m c #A0D954",
"M c #A1D65D",
"N c #A2DA5B",
"B c #A7E05F",
"V c #9FD863",
"C c #A5DC61",
"Z c #A9DE64",
"A c #AAE364",
"S c #AEE56D",
"D c #B3E66D",
"F c #B2EB6D",
"G c #B5ED72",
/* pixels */
"ss2 .6iueti0,wdrryyieeeaf3 >i7ierrrww@r7",
"8fs26iiqiu0-@<hywtuweaaaeae86ezawzr<;@rr",
"6isiuuq6ietw4wztai5#$8aieyae8i8,wyr<;7r7",
"ssu8sssswebNxkyrAc8:3eaai6zaiwO#wrwzrzd7",
"s622pu66eebby<wwNaeiayeeeyBmiq:7yrrzwzrr",
"u4%2pe:#eell1&<wt66iaeeaeifreaerrryr;;<z",
"puquxs64ewzct<wditeyeixBe6$,eiaerwzw;;<z",
"quueeeepztkchtvFeizierzbw:Oea5earyBzyyyw",
"sqqqjjlq#Xpqtyt<a65ii>:6aaieeialyrwwrw;@",
"244sq94j-:paezwtoO5aw*O,76wiae&o7rrrrw;@",
"4XqD#=qqqaaawywy:5izi6wiAfere5*;rydrrwry",
"4qqD999ZlbptrywkiiytyiaaBziaiw7a7yywwrrz",
"9MjMljqDxzw4zayyweeeaaier>%5erifeadraywe",
"jMjMlMqlaq,=ywaeeisae8eia,O3aaieya7:wyaa",
"jZ99ZZ9qe0:::;etiiiw:$5fiwezBNi4e0%o:eyi",
"l2#4qlMqtp4t+Owatww63,wNiieeeabNiaw6ezte",
"hww0wxVkitvalZkad8e8eiaeitte0tbbtqtj0,1t",
"yrrtryw;:tCbMZpqaiffe887uwCNkaqkSkt0=#9j",
"yzzyyt<=,tl6qjpx87ei8rzdb6Mztt-gltazgtti",
"tdw<yywwkCzqtkMD8738eie3o:Nl=#qGppnmkytr",
"ww;&wyyk0ttxnqqp**3iai6#oexx1@gx-6zci888",
"yw>:wrrtaaaMMupqO*7i8ee7lz,tjttXo>ie3888",
"yrrreryeae00#=uuiuii66ei55,etwzqiai*.*88",
"rwyderliwelt+#nei8iirdbc:$9aattt8az8:8i8",
"wrrdzw<7a5exetlufwp3ouNuqqpluwttk==eetaw",
"yyr87;@<lfeelpulie56>wAxNza5%%wtj=+<tla6",
"rydr87<ree0exxuaexwaaaAlsaa5#,eatgjlaqqa",
"rr8rr87w:o,i6ue$+tesMie$:5aawtt6<w0qt<@,",
"rr87rrrz6&waqueO%rainb>o:0alii8$ qae6$Oe",
"7rdrdrr8eaiilsqeyla0zCe6aaiieue,iceiNN86",
"rdr7r7&.5uieuueaaw%:taieateeeraeimfifi8s",
"d7OOrcr<irBNuunua, <swaw,:wiire88ii38888",
"rr37eAmiAAxbwt,:rrrryrrzO;w<;;<hcyoonx2i",
"rrrrebNBwe:qC0X2rr77y8wr<rd<@1ycAw;wnnae",
"dr7dMAxi4 +eCe0ttyryyr<wzrr7wy1,t00klieq",
"rrrdipeuSeetjake5ydy8;;<d<wyzy@oqxlzAx6l",
"ryt:$4ppCZt0tltjehrwr<1twrzw111het45lu4t",
"dy6#,ulq--=tekakze,,tzhjwhg;@wggktkp-4jl",
"<ycee6jpqX1l0qkqy0=;wgtthhh11vg1tqkj+#tj",
"zyaelalpljjtvjlvbvgvvggkzhgVVvgVklppllpl"
};
