/* XPM */
static char *_34299a9360c4b42f9111074744a5ed5YxrKScGhMdwN4kKJ[] = {
/* columns rows colors chars-per-pixel */
"80 80 186 2 ",
"   c #0E0E18",
".  c #110A14",
"X  c #130E1B",
"o  c #1A0E1A",
"O  c #15121C",
"+  c #1C151D",
"@  c #1B181F",
"#  c #1B0F25",
"$  c #1B1523",
"%  c #1D1A24",
"&  c #1F1529",
"*  c #1D1A2A",
"=  c #221624",
"-  c #221C25",
";  c #221729",
":  c #231D2B",
">  c #2B1E2A",
",  c #252127",
"<  c #25222C",
"1  c #2A242D",
"2  c #2D2A2E",
"3  c #272B2A",
"4  c #31262F",
"5  c #312C2F",
"6  c #31312E",
"7  c #262230",
"8  c #2C2532",
"9  c #2D2A33",
"0  c #2E2A39",
"q  c #2E253A",
"w  c #322533",
"e  c #322C35",
"r  c #392F37",
"t  c #302738",
"y  c #342D3B",
"u  c #392E3A",
"i  c #353235",
"p  c #393535",
"a  c #393936",
"s  c #36323C",
"d  c #3A343C",
"f  c #35393A",
"g  c #3C3A3D",
"h  c #353C35",
"j  c #40363E",
"k  c #403D3D",
"l  c #3D433E",
"z  c #42423F",
"x  c #363442",
"c  c #3B3542",
"v  c #3D3A43",
"b  c #3B3748",
"n  c #3F3B4A",
"m  c #423342",
"M  c #423C44",
"N  c #483F46",
"B  c #413748",
"V  c #433D4A",
"C  c #4A3F4A",
"Z  c #493F50",
"A  c #3C4242",
"S  c #3D4842",
"D  c #444245",
"F  c #494446",
"G  c #424945",
"H  c #45434B",
"J  c #49454C",
"K  c #46494D",
"L  c #4D4A4C",
"P  c #51464F",
"I  c #514C4E",
"U  c #4E504F",
"Y  c #50504E",
"T  c #464452",
"R  c #4B4551",
"E  c #4D4A52",
"W  c #4E4B59",
"Q  c #524D54",
"!  c #534E5A",
"~  c #545255",
"^  c #5A5356",
"/  c #555A56",
"(  c #5A5955",
")  c #55525B",
"_  c #5B545C",
"`  c #565A58",
"'  c #5C5A5D",
"]  c #62575F",
"[  c #625D5E",
"{  c #5C625E",
"}  c #62625F",
"|  c #565462",
" . c #5B5561",
".. c #5E5A63",
"X. c #5E5A68",
"o. c #615663",
"O. c #625C63",
"+. c #695F65",
"@. c #625768",
"#. c #635C6A",
"$. c #695D6A",
"%. c #5C6560",
"&. c #656265",
"*. c #696465",
"=. c #676966",
"-. c #6B6966",
";. c #66636A",
":. c #6A656B",
">. c #6C6A6C",
",. c #70666D",
"<. c #726D6D",
"1. c #6E726E",
"2. c #73716E",
"3. c #78726E",
"4. c #676571",
"5. c #6C6671",
"6. c #6E6C72",
"7. c #6D6978",
"8. c #726774",
"9. c #726D73",
"0. c #796F74",
"q. c #736D7A",
"w. c #796F7B",
"e. c #6F7273",
"r. c #747374",
"t. c #797575",
"y. c #767974",
"u. c #7B7976",
"i. c #767479",
"p. c #7A757B",
"a. c #76797B",
"s. c #7C797C",
"d. c #817A77",
"f. c #81757E",
"g. c #817C7D",
"h. c #7E807D",
"j. c #83817E",
"k. c #777481",
"l. c #7B7682",
"z. c #7D7B82",
"x. c #7E7A88",
"c. c #827782",
"v. c #827D84",
"b. c #837D89",
"n. c #8F7F89",
"m. c #887D83",
"M. c #857E90",
"N. c #848185",
"B. c #8A8486",
"V. c #86828A",
"C. c #8A858C",
"Z. c #87888D",
"A. c #8D8A8D",
"S. c #8A8987",
"D. c #91868D",
"F. c #918C8E",
"G. c #92918F",
"H. c #868492",
"J. c #8B8692",
"K. c #8D8A92",
"L. c #8E8799",
"P. c #8F8B99",
"I. c #918792",
"U. c #928D94",
"Y. c #998D96",
"T. c #938D99",
"R. c #949195",
"E. c #999496",
"W. c #95929B",
"Q. c #99949C",
"!. c #9C989D",
"~. c #9C9B97",
"^. c #A0979A",
"/. c #A09B9F",
"(. c #928FA0",
"). c #9693A0",
"_. c #9B95A2",
"`. c #9D9AA4",
"'. c #9D9BA8",
"]. c #A29DA4",
"[. c #A29EAA",
"{. c #A29FB2",
"}. c #A5A1AB",
"|. c #A8A5AD",
" X c #A7A8AD",
".X c #ABA5B2",
/* pixels */
"T.K.V.V e W.'.W.K.P.P.K.K.P.P.P.b.t Z )._.'.T.I.J.T.I.K.R.I.N.K.x y (.'.W.K.R.G.R.S.A.| < H.{.(.L.I.Y.I.U.T.U.C.J.B s L.'.).P.P.I.Y.I.I._.L.M.L.| 7 L.).W.T.Z.T.",
"z.7.W.) J  Xx.z.z.z.z.l.a.l.z.k.(.W #.'.b.k.q.p.p.v.s.t.g.s.g.C.! | [.Z.a.l.a.6.s.>.W.=.x '.H.x.l.z.z.s.f.g.z.p.R.o.R ].V.b.i.l.s.m.w.p.c.b.x.J.#.B '.H.s.v.a.i.",
"a.9.Z.L ~ `.6.r.r.i.i.r.r.i.i.r.s.C O.W.w.q.p.c.0.s.t.8.r.3.d.B.T | ).q.e.u.s.s.i.>.S.' K _.k.i.i.t.r.0.r.p.u.i.c.' L !.s.l.q.v.r.f.q.0.w.w.k.J.| H '.z.9.s.s.t.",
"i.s.=.D ~ A.i.u.r.i.y.i.i.u.i.i.6.M X.Y.p.p.p.p.i.d.s.t.t.t.3.3.V ) T.i.s.r.1.s.s.s.=.Q G H.b.i.r.r.i.t.p.p.s.t.i.L Q C.c.0.u.i.r.u.p.u.l.t.q.t.^ M T.N.r.r.r.t.",
"<.s.} D ' G.u.u.2.r.y.u.y.2.<.>.:.F *.Y.r.r.r.2.t.r.t.3.t.3.3.} N _ W.q.s.t.-.t.3.d.O.~ Q J.b.0.2.2.y.y.u.r.r.1.-.F I B.s.<.f.t.r.r.t.u.u.i.9.:.! M F.g.t.t.u.t.",
"u.2.2.D ( ~.>.y.u.y.u.u.t.1.-.=.[ M =.E.0.<.u.g.t.2.t.3.3.d.t.} d _ W.:.r.s.t.t.u.t.2.I L W.i.i.u.u.y.y.r.2.>.-.[ I I ^.0.t.0.d.y.2.2.i.i.s.u.>.D F D.t.2.u.g.3.",
"s.r.=.a L R.r.u.t.t.i.i.r.>.-.-.[ g &.E.r.0.i.t.u.<.u.t.3.u.3.} M  .].0.t.p.t.<.d.r.:.N d U.c.l.s.y.r.y.y.>.-.>.} I I E.t.0.<.0.s.r.a.a.9.i.s.;.J Q E.p.r.<.d.,.",
"=.>.L i F S.A.h.9.>.-.6.-.=.;.:.Q - Q Y.N.V.c.t.t.9.u.r.>.>.*.L d C I.b.C.c.t.m.O.8.Q B d m._.l.e.1.=.>.>.=.;.-.I 4 j n.D.m.n.g.i.r.a.i.:.>.:.` i d C.D.D.w.f.n.",
"J H i % 2 W ;.;.L v G x H ~ K H 1 - i _ ;.] ^ ) Q N J J H J Q e $ x ! 5. .o.! ! P R u = : W $.$.T A K K H K L H i @ 4 Q $.+.^ ^ ! K K K K v E e $ e F O.$._ _ ) ",
"_ A 9 0 s s v R K < O y E ) H v e y s s s B M 9 1 . d H J N J y u y t B c 7 $ w ) C u y y u B T T 8   3 K ) W H e e d u r j m u y X 7 H T V E v e d d B C ; . w ",
".XW.J.).Q.P.J.W.b.) y z.Q.`.T.T.Q._.T.b.s.T._.L.X.2 p.I._.C.T.T.L._.T.L.n.T T J..X(.T._._.L.J.W.P.7.0 4.T.'.P.P.W._.Q.b.w.n.Q.Y.5.0 #.T.Q.P.Q.T.W.T.I.L.L.@.b l.",
"k.z.z.s.z.x.l.a.P.5.g T.P.x.z.x.l.q.8.5.:.8.v.V.l.d T.T.L.s.v.b.c.b.l.c.T.R x s.b.l.l.l.v.l.x.x.Z.k.0 b.).J.l.b.m.q.8.:.:.8.c.b.L.x k._.K.x.s.l.s.l.l.k.I.@.q l.",
"e.s.s.7.r.s.s.5.V.>.v E.s.7.r.e.0.:.9.a.0.,.i.g.t.i I.N.w.5.q.i.q.s.y.u.T.) D z.q.s.i.6.r.i.s.i.z.z.i J.K.0.:.s.u.:.:.t.t.8.w.u.b.u c.T.0.9.8.<.w.c.z.9.Z.4.s z.",
"a.i.i.r.r.r.i.i.>.' f R.s.s.N.s.<.r.m.N.u.p.p.r. .e C.v.t.s.v.c.6.s.s.2.6.D L N.r.i.i.u.t.i.r.y.r.7.e V.C.i.9.z.>.r.m.N.s.s.l.t.;.e p.J.9.t.N.j.r.d.i.5.i...v i.",
"t.r.i.u.u.i.s.s.6.~ g A.s.t.i.>.*.r.g.u.9.u.p.,._ D S.N.u.i.9.2.j.y.-.1.} U Y y.i.r.y.u.u.y.y.u.<.O.e s.v.t.t.t.&.0.j.s.2.y.u.<.O.j f.D.9.,.u.r.r.y.r.r.:.K T e.",
"r.i.t.u.t.i.t.t.<.L F R.g.t.u.t.0.r.d.u.<.i.u.2.I k d.j.t.s.t.s.2.2.h.j.( z Y j.2.u.y.2.2.y.3.y.:.[ M N.m.s.t.r.t.t.u.u.2.r.u.<.' u 0.F.u.2.u.3.y.2.y.N.>.A Q i.",
"0.g.9.0.i.p.m.0.0.Q P U.s.u.<.p.t.s.i.s.v.:.s.0.^ r B.g.[ >.i.s.s.t.2.i.e.I L s.6.r.N.;.v.u.t.p.<.] M B.D.,.<.t.i.t.s.s.r.r.N.r.o.d 0.U.*.[ s.t.<.u.t.u.e.~ K a.",
"A.p.0.t.r.:.$.k. .p j c.n.D.f.s.l.i.;.&.<.:.0._ N 4 m.E.v.r.>.=.>.6.i.:.J 9 H N.W.s.r.:.s.9.&.r._ N e 0.U.V.N.v.i.i.5.>.;.=.7.%.C > #.].V.0.<.:.r.2.' i.) 9 s a.",
">.o.' Q _ Q C W B = : ! *.:.O.^ _ W E H J J _ B - + L ;.:.' E H K v E J e , x $.6.:.) ! ! Q J R M 1 + J ;.,.o...O.~ v K Q ) ! v w X c 5.:.] Q F D L s ) i * x ) ",
"M F v e : X 8 x c : 8 y c e d e 7 O * v m c C m w y e y D E K e 1 O d M y 2 < 1 d H N s 1 . 1 y m > 1 4 y d e c < , @ s x i v E t 8 c x B P F g < % e H 0 9 7 * ",
"J.W.b.Z.#.7 l.{.'.P.).P.T.V.W.W.z.x R P._.T.T.L.J.[.M.b.K.T.K.N.d B I._.T.T.Y.Q.W.n.J.b.i.< 5.).[.T._.I.L.T.L.Q.V.W 0 z.[.[.K.Z.J.L.T.n.J.W.C.K.E : z.T.'.P.L.(.",
"s.Z.l.J.5.s _.).x.k.l.q.b.s.z.a.W.b | '.T.c.c.b.k.n.c.n.x.i.a.P.W ) [.I.b.c.c.l.C.k.b.b.b.w b._.m.w.b.t.v.b.p.l.J._ E Q.T.z.k.H.x.b.b.b.b.l.s.C.:.d }.H.Z.l.k.x.",
"6.i.r.z.;.K '.i.k.k.k.i.x.a.i.i.Z.T :.].p.6.8.s.q.p.0.s.i.i.9.R.Q ! Q.p.p.p.r.i.;.i.z.s.t.B T.K.i.9.l.q.v.p.p.8.J._ ! Q.x.i.e.7.c.q.k.t.p.w.q.C.' H |.s.9.i.s.i.",
"N.>.a.z.! 9 P.z.q.a.a.i.a.e.1.u.r.d o.W.8.z.l.9.i.u.i.r.0.v.:.i.B E W.0.r.p.p.p.p.c.9.s.;.2 g.C.q.0.s.i.l.5.p.s.i.J J R.r.i.s.a.s.w.s.9.i.c.t.t.) d N.m.z.7.i.s.",
"r.y.j.[ L k N.h.i.i.y.y.y.1.y.y.;.d :.E.i.s.2.t.u.u.u.9.<.d.u.} a Q E.u.u.t.3.3.d.3.3.<.L j f.B.t.t.t.r.r.t.t.t.:.L I G.d.t.<.B.t.r.t.u.u.s.f.<.D F G.t.v.d.0.u.",
"2.3.d.} Y L R.z.r.i.a.r.y.1.y.2.{ p *.F.>.u.2.r.r.2.t.r.3.t.2.*.F ^ G.,.,.<.3.d.3.<.d.<.] z B.g.u.y.r.y.t.s.t.t.*.z I S.u.u.<.<.y.y.u.r.<.u.r.&.I I D.<.2.2.r.d.",
"d.d.3.-.I F Y.s.r.y.s.y.y.h.y.1.[ a -.F.1.s.N.s.y.y.u.d.t.3.3.*.N o.~.g.d.d.d.3.d.d.d.*.Y k D.B.0.r.s.u.t.2.t.u.*.z ( F.u.g.d.d.u.u.u.y.r.y.u.=.L Y E.B.d.u.t.3.",
"3.d.u.3.I M F.0.i.i.s.r.2.y.y.r.,.M >.F.>.>.y.1.y.r.y.u.t.t.3.*.k ] F.0.} -.3.u.-.3.d.<.[ p f.g.r.r.i.t.r.r.t.s.,.F [ F.t.,.<.r.s.>.2.s.u.i.0.0.J F B.d.-.-.3.t.",
"<.t.8.$.j j L.I.u.s.i.6.>.>.6.5._ p $.I.N.i.z.k.u.r.>.:.>.i.<.] u  .n.b.3.,.3.3.<.3.,.+.P w c.(.Z.a.5.6.i.i.r.6.o.d Q U.m.s.c.c.z.e.>.e.e.7.4.;.M M m.C.0.:.0.r.",
"o.+._ C > w 8.c.w.4. . .....` _ y > R k.V.q.i.i.6...' ..O.O._ m ; Z l.n.p.+.] P +.O.] F e ; @.b.s.;.....X.....X.M - u q.b.m.p.i.;.%...' ..#.X.V 1 y q.J.s.:.o.~ ",
"> w j w = ; q x B 7 # 7 v A x s = # 7 x R y 0 7 0 * * x V x w ; ; ; t B u w 4 4 > r u u ; ; ; q b 8 * < 0 x x c 1 X # y C B y 7 9 $ * s n n x * & $ t B x u e e ",
"f.f.f.,.,.w.8.b.7.B t | b.J.z.k.i.l.q.$.b.k.l.q.H i R z.T.v.w.l.l.k.q.b.c.t.0.0.s.c.l.8.@.b.k.k.q.T 0 T z.P.b.7.i.l.q.8.l.l.l.w.) 9 b k.P.z.q.l.x.7.8.z.v.c.8.0.",
"S.S.B.s.s.N.A.C.R.:., W.!.W.z.A.N.A.A.N.N.B.V.U.p., R.`.K.Z.V.Z.n.J.C.A.B.C.C.A.A.B.C.s.r.m.E.C.S.V., N.}.A.Z.Z.Z.K.A.C.S.N.B.F.K.8 a.].P.N.N.S.A.S.S.A.B.S.A.A.",
"3.y.i.>.-.2.i.i.N.e.g !.v.i.>.s.2.y.r.1.t.t.r.c.p.i E.A.e.e.a.z.9.<.2.2.r.2.<.r.i.i.t.r.&.>.u.2.m.V.i V.A.r.e.e.1.r.1.2.r.r.t.u.A.x l.P.i.i.r.y.2.>.2.2.<.2.2.2.",
"2.u.u.<.=.:.>.r.i.' v R.a.a.i.i.y.y.r.r.t.t.t.u.*.p R.N.>.i.a.e.r.r.u.y.i.i.i.r.i.i.i.r.-.=.<.2.i.0.s v.Z.a.s.e.a.y.i.i.p.d.t.t.8.s z.Z.r.i.i.2.y.2.y.u.2.y.u.r.",
"i.s.s.t.i.r.i.s.r.~ v Z.z.s.z.i.a.y.r.r.i.0.t.r.] d N.N.7.z.k.e.t.u.u.i.u.s.s.a.s.i.i.s.y.r.2.u.9...d N.z.a.z.a.a.i.y.y.p.t.t.9.X.x l.Z.i.i.u.r.u.r.u.s.i.s.s.i.",
"r.9.i.i.i.s.s.z.6.E E P.x.6.i.7.y.e.r.s.i.i.u.8.' J s.V.i.e.i.i.r.r.i.r.9.i.a.i.i.9.7.i.s.u.i.z.9.^ J A.v.6.e.i.i.6.i.i.i.i.u.8.X.n l.V.s.7.r.i.u.i.i.r.1.i.i.r.",
"s.u.i.i.i.6.5.e...g D N.U.h.z.s.z.i.a.s.r.r.9.#.M M a.Y.b.i.k.z.i.i.i.6.6.i.i.8.z.s.r.r.i.6.-.e.;.B s x.K.Z.k.i.z.i.a.a.<.9.i.:.T x 7.Z.K.z.i.z.u.i.i.r.>.r.r.-.",
"5.;.&.;...~ ! ) v , < _ i.7.7.6.4.` ..#.E E W H - 2 ! i.7.>.5.6.' ' .._ ) ) ) E ;.6.;.....` E _ L < * ~ 6.k.e.;.>...#.&.E ! ) L 8 * ! 4.i.6.:.:. .....' ! ` ) L ",
"v g v v d i s A i , * 9 s 0 s D K g v H i s v i 3 % : y v H K v v D H v g g s 7 9 H H v v d i v y 9 , < < i i v A g D D i s V s 3 $ 9 9 g c v D v M H D s a s 1 ",
"C.V.z.K 8 z.Q.Z.N.N.V.N.Z.C.C.v.x.s v P.K.K.Z.N.z.Z.V.b.K.Z.z.v.H 0 Z.W.R.V.N.V.C.z.z...* s.K.W.V.Z.V.N.V.C.C.V.x.L 0 s.Q.K.K.x.N.Z.b.V.P.Z.x.Z.) - z.E.U.Z.S.s.",
"b.a._.) H |.Z.K.x.N.v.x.z.x.x.x.K.J _ `.Z.z.z.x.s.x.z.a.v.v.v.K.E E Q.C.x.z.V.z.z.N.K.9.v U.W.J.z.h.x.x.z.N.x.z.K...V !.H.V.k.v.x.b.s.k.v.x.x.P.7.v R.W.N.z.Z.z.",
"i.4.Q.E K |.5.r.q.i.a.r.e.r.r.i.C.E ..!.x.6.r.a.i.z.i.r.i.i.z.C.~ ) _.z.r.i.s.i.6.s.N.;.v W.V.5.r.i.r.e.r.i.t.8.C. .J ].z.e.a.a.u.s.i.r.i.i.s.V.;.A P.N.6.>.i.r.",
"i.l.i.H Q P.i.r.i.i.s.t.i.i.u.u.i.M ) I.a.e.i.i.i.a.a.r.i.r.r.9.E E P.z.i.7.i.u.i.i.i...f P.x.5.s.i.i.r.i.a.s.c.a.J E K.z.4.z.6.r.i.i.i.i.i.q.i.` v P.v.r.r.u.i.",
"i.z...J _ Z.z.s.r.r.i.u.s.u.r.2.:.M ' K.i.a.z.r.a.a.s.y.u.t.0.*.K E P.s.z.s.i.i.s.r.-._ v R.b.s.a.i.r.r.u.t.t.r.:.J Q A.a.r.Z.7.y.r.i.s.l.s.i.5.E v U.v.i.s.s.i.",
"s.i.;.J ' K.r.i.i.r.2.i.i.2.>.&.o.J :.E.7.r.s.e.a.r.r.r.i.f.u.-.H ) W.9.i.s.u.<.s.r.;.' A K.a.i.e.1.i.y.u.<.5.$.[ ~ Q !.e.i.a.a.s.r.2.u.i.s.a.>.! v Z.a.9.i.r.9.",
"z.i.>.D ~ R.i.i.s.s.s.s.u.2.>.<.' g ..W.i.e.a.i.y.e.i.r.,.t.t.*.v ) W.r.i.u.r.2.y.s.>.~ v K.z.i.s.y.y.s.s.r.,.:.] I F E.a.i.e.s.u.2.r.i.6.i.i.:.! D U.v.s.u.i.t.",
"5.5.' 9 v A.Z.s.6.>.6.e.-.&.&.;._ 2 J W.N.s.z.a.r.r.s.u.-.>.:.^ c L T.v.N.i.r.N.:.6.[ g 1 K.V.V.r.1.>.>.-.=.:.-.] s s V.T.s.s.x.i.r.s.s.>.6.9...v i Z.N.c.s.w.b.",
"E W v * 0 X.k.7.! W W n W | E W t ; c #.c.@.#.$.X.J X.W Q Q P d ; y #.q.:.#.O.#.! ! B = 8  .q.q...W W T W | | W b * w o.w.8.$.$.X.W | X.T E #.s $ y  .k.$.#.@.4.",
"K s , * : 0 x n b 7 $ 0 H H v v 8 : q t x x c w q $ > B B u C 8 t : 1 y B 8 X : R c 8 : : 8 x v b 8   7 b S S A * q t 8 w B m w q * * x n x s s 9 % ; c B c # ; ",
" XR.Z.U.R.V.V.U.H.W * 6.!.}.K.N.T.T.C.c.w.J.I.b.o.e o.F.U.B.R.C.b.J.K.K.l.R d b.[.Y.K.W.T.n.V.U.Z.4.7 | G.'.P.k.(.K.Z.n.f.f.n.Y.:.y ! V.P.C.N.W.R.I.I.T.l. .q q.",
"N.s.s.s.N.x.z.z.P.5.g G.G.N.h.N.v.g.8.r.$.w.c.V.B.5 C.!.C.U.p.B.v.N.c.m.V.Q i N.N.c.s.z.c.x.v.s.Z.x.A a.W.Z.N.N.s.h.u.;.+.f.n.f.W.e 8.|.Z.Z.N.N.g.s.c.s.C.:.8 u.",
"2.y.y.2.r.t.t.>.v.9.k G.s.-.1.r.3.2.<.u.-.<.3.s.d.5 F.F.>.u.*.<.s.s.>.t.A.} g u.i.t.r.2.2.i.i.r.a.a.a N.A.>.2.y.r.2.2.<.,.d.d.,.U.4 t./.<.<.2.<.r.t.2.>.A.s.s i.",
"u.3.3.y.u.r.i.s.r.[ 6 S.j.h.d.2.-.3.d.g.t.d.u.r.[ p g.S.-.r.N.s.-.u.u.r.2.F z u.y.t.i.u.u.y.2.u.h.>.e t.R.y.u.r.y.-.3.S.d.-.3.g.*.p 9.B.t.u.2.d.<.g.j.2.1.' 2 e.",
"3.3.3.u.u.i.i.c.>.' F E.u.<.3.3.-.3.d.t.3.u.g.<.[ D g.F.t.r.m.<.u.i.u.r.&.U L r.i.1.2.u.u.r.r.s.>.' M s.S.=.u.j.} y.j.u.<.t.d.3.*.N 3.D.t.t.<.t.2.y.2.r.>.' G a.",
"2.u.u.u.t.t.r.0.>.I D F.d.u.y.y.u.2.d.t.u.<.u.9.^ 2 N.B.0.c.i.r.s.1.s.h.&.G Y y.u.s.y.r.r.i.y.y.r.~ k u.A.9.p.<.2.t.u.j.2.2.t.0.O.w ,.F.,.t.B.<.y.u.r.s.>.E H q.",
"r.9.v.t.i.v.8.p.8.&.M U.N.9.r.s.t.0.u.g.u.t.u.p.&.e v.V.O.5.k.z.r.s.z.6.6.L ~ a.6.r.z.6.z.z.7.x.i.o.N l.T.:.p.p.s.,.s.s.r.y.s.s.#.d ,.I.:.$.s.u.s.i.x.a.O.%.T k.",
"C.v.:.t.p.#.q.w._ H y l.C.v.g.p.z.r.6.;.8.q.6.' D : v._.b.7.5.4.i.;.e.7...9 v k.K.z.a.4.a.:.%.i.#.C y 8.T.b.b.s.b.9.9.:.6.7.e...R 1 @.].b.9.8.;.&.6.;.i.;.x x k.",
"0.i.! X.$.! @.W Z 8 9  .q.t.5.;.&.....E ) ) ) L 1 % ) k.q.X...) | K ! ! s 3 v 4.i.5.&.W %...| W E e 8 W q.w.5.$.$.O. .E ) L | ) s & Z q.8.:.o.Q R ;.K ! R * q | ",
"c V v 8 7 $ : t q X : < y s e u < O % < v y b b < : 7 y x H V 8 < $ s x * * % < x v n 8 0 $ 8 < 0 $ $ : t u 8 u 8 $ $ : s 0 v n : ; q 0 d R V s @ : * 9 x $ 7 0 ",
"C.m.b.b.o.: @._._.b.Y.b.n.b.V.C.i.c V a.Q.Z.V.P.x.K.z.z.V.Z.V.i.s 8 6.!.R.C.v.J.V.b.J.V.;.- o.P.).H.T.V.b.J.b.I.w.P s 9.R.K.Z.Z.x.H.J.k.x.U.b.z.) 1 :.W.).b.b.M.",
"m.C.p.W.9.1 T.].J.k.L.l.b.V.m.m.W.T W _._.x.x.V.V.K.N.Z.Z.v.v.R.Q Q !.Q.Z.v.z.v.m.v.C.I.s.e s.`.Z.z.Z.x.b.J.c.m.I.] M Y.Q.A.V.N.Z.V.H.H.C.C.v.A.:.9 !._.J.n.M.n.",
"0.p.<.n.,.M [.p.w.8.w.w.s.u.u.0.C.R ..`.a.5.9.r.r.r.r.s.9.r.r.F.P ' ].8.8.t.c.t.9.0.i.f.c.N F.C.e.6.e.q.i.s.w.t.D.O.J ].s.9.6.e.i.4.7.i.a.r.9.V.<.j ].f.:.w.c.0.",
"d.:.g.N._ e I.c.p.0.s.s.0.0.r.i.s.M ~ Q.>.z.Z.6.i.t.s.i.<.j.<.u.J J E.9.c.r.i.0.s.t.0.s.9.- l.Z.i.a.a.a.0.0.p.f.p.~ p ].<.u.s.i.a.a.z.a.r.i.9.s.' 5 U.s.s.8.t.p.",
"u.0.g.*.I k c.N.t.t.u.t.t.y.u.u.} N ^ !.r.i.a.s.r.y.s.r.2.u.u.*.V K U.i.i.r.2.u.u.3.u.0.Q 8 m.C.r.i.i.2.i.u.s.s.>.F L A.N.i.i.s.y.1.1.y.1.y.u.>.P d B.g.s.2.2.y.",
"<.<.p.<._ F B.p.t.t.i.r.2.2.2.<.*.F _ E.6.r.i.>.r.r.i.u.t.u.d.*.E ! W.i.i.i.t.u.3.2.t.9._ x b.b.i.i.i.r.r.r.i.<.>.D L S.s.i.r.>.1.y.h.y.1.h.p.>.^ N F.u.r.t.u.h.",
"m.t.0.,.Q M E.m.i.i.s.y.u.3.y.y.] m ] E.r.z.N.i.a.r.r.u.r.3.,.+.J ) W.z.s.s.r.<.t.t.p.i.O.C M.n.r.t.s.s.s.u.t.i.&.D K K.u.s.z.u.y.y.h.1.r.t.r.:.P F E.S.t.t.s.-.",
"t.t.w.t.Q M A.s.r.i.i.i.y.y.3.h.<.J O.W.r.i.z.6.h.a.i.i.p.f.d.:.K  .K.6.-.6.t.u.u.u.r.0.^ B l.L.0.i.i.s.i.i.s.s.>.U ~ R.9.r.a.i.h.1.1.h.s.p.p.8.Q J V.g.O.-.g.t.",
",.3.w.8.N d N.V.z.a.r.r.6.>.1.r.O.M _ R.v.a.z.i.i.q.r.>.9.p.0.o.s ! L.c.8.<.0.u.0.0.0.,.J r 8.Y.l.s.i.r.6.5.e.r.O.H L W.z.i.s.s.s.r.2.i.r.t.q.:.C M m.D.9.*.2.t.",
"$.,.] P 1 w 8.D.z.7.%.#.&.%.` %.d , N z.b.i.i.a.:.&.&...O.+._ D $ V v.J.s.:.] ^ &.] ] ] m w o.b.b.i.;.&.&.;.#.&.D 3 i i.N.z.s.i.5.-.;.' _ :.o.C > e 8.U.m.=.] [ ",
"4 r r > + $ e V A 9 $ < g l f 9 % + : v R v i i i < 1 v D v e , $ = d J M p e e e r e 4 + o w B J y * , s n v i < @ % s E D v 9 s 2 1 s v N d - + + e N M d 5 e ",
",.,.,.o.] $. .5.| v 9 K e.k.e.=.;.;.....7.6.;.;.v 3 v :.z.q.>.:.5.X.O.8.8.5.*.O.+.0.,.$.o.O.$.o.X.v 9 n ;.z.a.4.&.;.;...9...6.;.E 1 y ;.c.q.:.8.*.;.O.$.<.8.O.O.",
"Y.D.D.m.p.C.Y.J.T.q.% U. XR.K.K.K.P.K.Z.K.P.K.P.z.- v.[.W.Z.K.K.P.K.I.T.J.K.T.U.U.I.Y.c.w.D._.M.C.H.< i.|._.W.H.K.K.P.G.C.Z.R.P.J.1 5..XW.K.C.T.T.C.I.W.U.U.U.U.",
"d.8.f.8.;.8.b.k.M.k.s W.Z.>.e.i.r.a.i.i.u.s.s.v.b.g K.T.a.q.k.a.q.i.i.t.i.0.0.q.0.q.p.0.$.8.c.p.v.H.c x.U.7.e.9.i.r.i.i.r.i.s.s.T.n q._.l.l.i.t.i.>.q.u.r.6.i.i.",
"0.r.f.0.;.8.i.7.k.5.x K.v.7.l.i.i.i.i.r.7.r.r.a.;.s N.V.4.e.a.7.i.i.s.a.i.i.i.t.r.8.i.s.8.*.6.p.s.q.s x.P.9.i.i.i.r.i.i.r.r.i.6.q.c 8.L.7.a.e.e.z.r.i.s.i.i.a.i.",
"u.p.f.s.i.q.p.l.i. .v C.v.i.N.u.a.r.i.s.i.a.s.i.` x z.N.a.x.z.a.i.i.s.y.i.u.t.i.g.t.s.c.s.<.0.s.k...s z.K.i.x.s.z.i.s.s.t.s.t.r.$.b q.L.a.z.z.k.a.a.a.s.i.a.z.a.",
"r.r.2.i.i.i.a.l.8.) J I.m.5.0.i.a.e.e.y.t.s.u.8.O.J s.V.e.e.e.i.r.y.a.r.e.r.y.i.i.r.2.r.t.i.t.s.a. .H z.N.6.i.e.i.>.r.r.2.u.u.r.#.R 7.J.k.e.e.e.a.e.e.a.1.y.a.e.",
"s.u.r.r.i.r.6.i.#.V M V.U.m.p.p.h.1.y.a.2.<.9.O.D v a.K.v.a.e.x.r.y.a.e.1.r.i.r.i.s.i.2.r.t.<.9.:.K v r.K.N.s.s.s.r.2.t.2.2.2.-.J b ;.P.V.k.e.a.y.y.a.e.e.e.y.e.",
"-.-.=.&.=.' ~ ..J 2 1 ' s.c.9.0.1.{ =.=.^ ( [ L , 2 ..a.k.k.e.a.( { { / / / / U -.1.-.} =.{ ~ ( E 0 < ~ a.z.7.6.2.-.-.} ( ( ( Y w 8 ! i.k.a.e.e.%.{ { { / ` / K ",
"a z l z D s 9 D e < + e d m r N z h D G 6 6 k p 3 + 3 6 f S A A g G G l l h p 3 f D l g D a 6 l d , % 1 g i p D z g D l 6 a a a 1 $ 7 s l A S S S S S S f f f 3 "
};
