/* XPM */
static char *b764696de9ab405e9f2271b89cdf93efhXF4JUsxc2SoInZq[] = {
/* columns rows colors chars-per-pixel */
"80 80 256 2 ",
"   c None",
".  c #020203",
"X  c #010A03",
"o  c #02040A",
"O  c #080707",
"+  c #150305",
"@  c #041109",
"#  c #050A14",
"$  c #011315",
"%  c #041819",
"&  c #171116",
"*  c #270801",
"=  c #2F0D02",
"-  c #31331D",
";  c #111A25",
":  c #022725",
">  c #182929",
",  c #143130",
"<  c #262B2E",
"1  c #2A2B28",
"2  c #352A2C",
"3  c #28332C",
"4  c #35332B",
"5  c #242D33",
"6  c #2A2F32",
"7  c #282C38",
"8  c #332C33",
"9  c #362A37",
"0  c #253333",
"q  c #2C3134",
"w  c #283539",
"e  c #313539",
"r  c #383736",
"t  c #1C231E",
"y  c #5A1802",
"u  c #58110B",
"i  c #6D1B00",
"p  c #691701",
"a  c #741C00",
"s  c #771A02",
"d  c #670B00",
"f  c #5A2507",
"g  c #4E2B18",
"h  c #6C2B00",
"j  c #62260A",
"k  c #64290C",
"l  c #6B2505",
"z  c #752301",
"x  c #7B2301",
"c  c #782A07",
"v  c #793307",
"b  c #692912",
"n  c #773515",
"m  c #702F12",
"M  c #462A21",
"N  c #492B26",
"B  c #4E3429",
"V  c #723926",
"C  c #364432",
"Z  c #4E4837",
"A  c #69512D",
"S  c #373940",
"D  c #213D4B",
"F  c #113148",
"G  c #513C4B",
"H  c #1A454B",
"J  c #1C4953",
"K  c #0C4F4D",
"L  c #274654",
"P  c #334A4D",
"I  c #16706A",
"U  c #28696A",
"Y  c #2D7070",
"T  c #2B5E5F",
"R  c #4B4E51",
"E  c #6C5752",
"W  c #6A6555",
"Q  c #536D71",
"!  c #6D7371",
"~  c #5E5D61",
"^  c #8C1805",
"/  c #852903",
"(  c #873707",
")  c #93350A",
"_  c #973808",
"`  c #873913",
"'  c #953C18",
"]  c #8D290D",
"[  c #903C26",
"{  c #A53915",
"}  c #8B400F",
"|  c #8C4217",
" . c #974319",
".. c #9D460E",
"X. c #AD4917",
"o. c #AE4B19",
"O. c #A34A1A",
"+. c #B24E1B",
"@. c #8B4728",
"#. c #964929",
"$. c #9B4C32",
"%. c #9B5536",
"&. c #8E5230",
"*. c #A44926",
"=. c #A65527",
"-. c #B75827",
";. c #A75937",
":. c #B85937",
">. c #B14829",
",. c #B86439",
"<. c #AF6735",
"1. c #A7622C",
"2. c #C85C38",
"3. c #CD5C2B",
"4. c #C9652C",
"5. c #C8683A",
"6. c #D46A38",
"7. c #D6733D",
"8. c #C8713E",
"9. c #FC7C3E",
"0. c #F77738",
"q. c #E7763B",
"w. c #E85A37",
"e. c #945749",
"r. c #AF5B48",
"t. c #AA6647",
"y. c #B86844",
"u. c #BC7448",
"i. c #AB6A54",
"p. c #B26A54",
"a. c #A97558",
"s. c #B87658",
"d. c #AD7449",
"f. c #B37966",
"g. c #966746",
"h. c #CB6C42",
"j. c #C56A47",
"k. c #D26D4B",
"l. c #D76B44",
"z. c #C97348",
"x. c #D37344",
"c. c #D97648",
"v. c #C87756",
"b. c #D87755",
"n. c #CA6C53",
"m. c #E66B43",
"M. c #E67846",
"N. c #FE7E42",
"B. c #F87949",
"V. c #EF7851",
"C. c #CA7867",
"Z. c #D65E4E",
"A. c #30857E",
"S. c #6C8478",
"D. c #508A75",
"F. c #F8843C",
"G. c #B8866F",
"H. c #928770",
"J. c #D58459",
"K. c #D48C51",
"L. c #EB8548",
"P. c #FD8444",
"I. c #FC844B",
"U. c #FE8B4D",
"Y. c #F68848",
"T. c #F5934D",
"R. c #EA8656",
"E. c #FE8552",
"W. c #F48B55",
"Q. c #FB8C54",
"!. c #F98A59",
"~. c #FB925A",
"^. c #E7974C",
"/. c #CF8C6D",
"(. c #FB9764",
"). c #EF936D",
"_. c #FBBA78",
"`. c #F3AE6E",
"'. c #E0B268",
"]. c #F9C776",
"[. c #F6CB74",
"{. c #DDC762",
"}. c #6C7A90",
"|. c #5C7A8E",
" X c #8C7994",
".X c #8D7AA5",
"XX c #2F9392",
"oX c #32A496",
"OX c #5A9899",
"+X c #538C92",
"@X c #688998",
"#X c #77889A",
"$X c #679799",
"%X c #77969A",
"&X c #6F8B89",
"*X c #58A499",
"=X c #47A399",
"-X c #67A69A",
";X c #599AA6",
":X c #5693A7",
">X c #788AA3",
",X c #6998A5",
"<X c #7697A5",
"1X c #6992AC",
"2X c #58A5A6",
"3X c #58AAB6",
"4X c #51B3B3",
"5X c #67A5A6",
"6X c #77A6AA",
"7X c #66A9B7",
"8X c #69B8B7",
"9X c #72B0B4",
"0X c #5BD2B8",
"qX c #59B9C8",
"wX c #42B8C2",
"eX c #66B9C7",
"rX c #71B1C9",
"tX c #36FDED",
"yX c #2AE9D3",
"uX c #57C8CB",
"iX c #58C9D2",
"pX c #57D7D8",
"aX c #4DD0CF",
"sX c #64C9D3",
"dX c #6CCECF",
"fX c #4EEAD9",
"gX c #55D8E6",
"hX c #49FCEB",
"jX c #55FBEB",
"kX c #49FEF8",
"lX c #5BFEF2",
"zX c #56FDF8",
"xX c #51E9E8",
"cX c #67FBFA",
"vX c #6AEAEB",
"bX c #6CDCE6",
"nX c #37CCAF",
"mX c #868799",
"MX c #8D8E93",
"NX c #8599A6",
"BX c #8B8CA8",
"VX c #8CAAB4",
"CX c #AFADAE",
"ZX c #A6A096",
"AX c #EEB988",
"SX c #D0A38E",
"DX c #FBCA86",
"FX c #FDD589",
"GX c #E0C9B3",
"HX c #9BAEC7",
"JX c #8DDADD",
"KX c #FEFCFD",
"LX c #FCFAF8",
"PX c #F1F5F2",
"IX c #D4DFE0",
"UX c #C7B9C9",
/* pixels */
"                      tXtX X%XOX$X$X|.2XJX0XX + o t < e q < 1 q e 5 > 6 B / m.B.V.).'._.GXAX&.<.T.m.h.l ( Q.B.z.$.^ 5.L.l.j.a h b E #XbXcX                      ",
"                  XX:XqX5X&X*X#X6X$XNX;XI K > t & > 6 6 6 < 5 q 7 0 < - g p 6.U.B.`.'.AXAXv.h 5.T.q.h.l ( E.V.h.$.x 6.L.M.j.z c a E +XOXrX3X+X                  ",
"              & + fXhX:XBX@X2XBXOX@XmX|.% @ P 2 < 6 6 6 < < 6 q < 6 q - k / q.F.B._.FX_.n.&.y 5.T.m.l.l ( Q.M.z.$.s 6.L.c.j.c v ^ A -XNX1XyXpX7 .               ",
"            KX7 & bXtXyXeXNX@X>X$X<XR 7 , > e 2 8 q 6 6 6 6 6 < 8 1 4 g ;.6.N.F.I.'.[.).y.$.p 2.Y.m.h.h ( !.m.z.#.s 5.Y.V.j./ ( 0. .R VXfXtXjX+ > KX            ",
"          LXIXJ F eXjXhXxX2X@X,X$X}.& + r 6 1 5 q q 6 6 6 6 6 < 4 1 - k h.E.U.F.B.^.[.'.y.;.i 2.U.m.k.h ( E.m.8.#.a 4.W.M.j.] ` ~.3.p &XxXkXvXF : IXLXLX        ",
"        LX~ 5 2XyX7XVXVXuXtXdX-XP > @ 1 9 8 8 5 < < < 6 q q q 6 5 4 B p 2.B.N.U.9.^.FX`.y.%.i l.U.m.l.h ( E.c.u.&.i 5.W.b.2./ ` ^.w.b ! 8X:XqXnX8XF G LX        ",
"      LXPXN % iXkX:X&X}.3XzX9XQ t . 3 C 1 8 r 0 < 5 6 6 6 q q q 5 q B y 3.B.9.U.B.^.FX`.:.%.p h.Y.m.l.c ( E.m.u.#.p 5.W.b.j./ ` T.3.u ! 6X}.2XkXdX$ r LXLX      ",
"    PXPXLX~ % iXcX}.5XOX;XrXR @ r % C 3 1 r q w q q q 6 1 < q q 7 q g y 6.Q.9.L.I.F.[.`.:.r.p 2.Y.m.l.z ( Q.M.,.&.p 4.W.V.2./ ) F.w.d ! 5X>X,XbXbX% R LXPXKX    ",
"    LXIXVXY K rXJX:X5X:X@X<XT # < < < 6 6 q q q q q 6 6 q q q 6 D 1 g l :.~.I.0.F.T.]._.g.=.h 5.P.7.z.z ) W.c.8.$.a 4.T.l.k.x ` ^.w.i D.=X$X@XpXdXK T MXPXPX    ",
"  LXPX! 2 8XxX1X+XQ $X6X<XNXR o < < < 6 6 q q q q q q 3 6 6 < q 7 1 f h 2.V.N.F.F.T.AX`.d.#.a 5.P.x.j.c ) !.c.8.$.i 4.W.c.k.x } F.w.a W -XNX%X8X7XjXdX& R KXKX  ",
"  LXPX&X* XXzX7X%X%X%XmXS.R q X < 6 6 6 q 6 q 6 6 q q e 6 6 q < 4 - n 1.7.E.F.U.F.`.`.J.z.*.a 5.U.7.z.z ) W.M.8.$.i 4.~.l.k.z ` T.6.] &.E S.#X+XHXtXnX+ W KXLX  ",
"LXLXPXNX; XXxXwX2X2XOX@XR O 1 1 < < 6 6 6 q 6 6 6 6 q q e e q < M f 1.L.E.Q.9.U.[.`.z.5.b.:.a ,.U.7.j.z ` W.c.x.$.i 4.~.c.k.z } U.L.:.$.b ! -X+XXXhXwX# ! KXKXIX",
"LXUXW Q oX3XrXfXpXsXsX9X|.o ; r < 6 6 6 6 6 6 6 q 1 < q S R 8 q g y 1.T.U.P.0.Y.[.[.<.-.b.2.s ,.U.7.y.x ) W.c.7.$.a 4.Q.7.k.a } B.K.j.>.g *XvXpXfXrX=X=X@XG CXKX",
"LXZXO U lX8X}.cXcXcXbXOXQ $ ; 9 1 6 6 6 6 6 6 6 q 6 < q r P e q g y -.U.9.9.B.U.[.[.,.j.b.>.s ,.U.8.y.z ) W.q.c.$.l 4.Q.m.k.z } !.c.y.[ B -XvXvXfXBX1XjXXX# %XLX",
"PXUX% I hXuX>X2XwX3XOX: 5 ; 8 S 3 6 6 q 6 6 6 < q q 6 q q e e e B y -.F.0.N.U.T.[._.u.z.b.*.s :.T.8.y.z ) T.q.M.$.i 4.~.l.k.z ` Q.M.5.' k &X7X4X7X}.3XjX=X# MXLX",
"LXZX$ XXvXwX,X#X$X%X}.. & r r > 6 6 6 6 6 6 6 < 6 q e q < < 5 e N y -.P.9.I.E.Y.DXAX<.y.n.>./ 2.Q.h.y.z ) W.q.M.%.i 4.T.l.k.x } P.F.q.X.l W }.<XmX+XaXjX=X% S.KX",
"KXCX. A.kXqX}.6XOX$XQ o & 8 1 e q e e e q q 6 6 6 6 6 7 6 6 6 6 B k o.Q.N.B.U.Y.DX_.<.v.k.:.p -.U.x.,.l ` W.L.7.$.z 3.U.7.j./ ..P.N.m.{ b = # #XMX@X4XzXoXX MXPX",
"KXCX. Y cX3X.XS.$X,XD.$ t 8 6 5 5 6 6 6 6 6 6 6 6 6 6 6 6 6 6 6 8 f o.E.B.~.L.F.].`.<.j.j.:.s 5.q.x.t.c ' W.V.x.#.a 3.!.c.j.c ' Y.I.l. .k * o |.S.%XqXvXA.. ZXKX",
"KXCXX XXjXwX9X=X6X1XQ o # 1 e 0 6 6 < < 6 6 q q 6 6 6 6 6 6 e 6 M f 3.N.9.~.M.~.DXAXJ.v.y.>.d <.L.x.y.c ) M.m.h.@.i 4.~.c.z.x } Y.M.m. .n = @ @X-X2XqXcXXX@ MXKX",
"MX%XK =XpX3X6X$X@XQ R & & 3 e q q 6 6 6 6 q q q 6 w 6 6 6 6 6 6 N j -.B.I.~.4.4.K.J.;.;.*.[ z u.T.z.;.z ) R.R.c.&.a 4.~.l.y.z ..L.M.k.#.n * X @X%X@X3XbX4XJ }.CX",
"X T iXqX7X>X}..X+X% ; & r 0 < < 6 5 < 6 q r q 6 q 6 6 6 6 6 6 6 B p *.E.E.W._ a l i d d a a a u.(.z.;.x ' L.x.,.&.z 4.~.h.y.s ' U.M.z.' i * o +X.X.X#X:XqXsXD.# ",
". K cXxXqXpXnXpX8X: o 2 P > < 8 6 < < < q q q 1 6 6 6 6 6 q 6 6 N p =.~.3.+.-.-.1.,.,.5.5.O.x  .+. .@.a O.R.b.u.&.z 2.!.5.y.z | P.c.,.@.b * $ 7XuXpXuXaXxXcXI . ",
"* K kXtXpXzXtXtXJX: # 2 q > w 9 R e q 5 6 q q q 7 q q 6 6 6 6 6 M j +.(._ / J.(.R.R.(.!.R.=.i z a i c p _ R.b.v.@.i 4.!.j.y.c | B.c.y.#.n = : qXtXtXfXjXkXkXI + ",
". K kXcXHX<XqXrX4X# o 9 C , e 2 ~ R r 6 6 6 6 3 6 6 6 6 6 6 q 5 B f _ `._ s M.V.c.6.7.4.M.7.,.z.x.y.y.v / +._ ] V p 2.~.h.y.z | E.M.n.[ s * @ 2XrX9X5X5XgXzXI . ",
". J jXuX}.<X<X#X+X$ @ t e 7 R R ~ R r q 6 q 6 6 6 6 6 6 6 6 6 q N k #.(.-.d M.T.5.,.t.i.s.v.R.Q.N.(.c._ ^ / c b p l <.K.K.2./ _ P.7.8.>.c O X }.,X#X$X>X3XjXU . ",
". L lXuX#X5X,X<X>X% O 4 P R R R R P e q 6 q q 6 6 6 6 q q 7 6 6 g j =.!...s c.~.z.d.a.f.G.J.j.4.6.h.z.x.M.q.m.!.:.c ( v v n i @.P.K.u.' h * ; }.;X#XOX@XeXjXU . ",
". L lXuX#XOX-X-X#X$ . r ~ Q ~ R r e 3 < 6 6 q 6 6 6 6 q 6 q 7 6 N y -.Y.-._ 4.6.y.;.g.G.SX/.u.u.i.p.s./.~.9.B.E.-./ / / ( @.j n V.s.i.[ k + $ |.*X%X-X%XeXlXU o ",
". L lXuX&X$X$X<X@X# + R R ~ P C q < < < 6 q q 6 6 6 q 6 6 6 q 6 B y -.U.M.x.o.] / p b &.i.t.d.<.a././.p.4.6.2.:.K.7.Y.~.(.v.v h / z n c a = o }.%X#X$X>XeXlXU o ",
". L zXuX#X$X#XMX<Xw 1 W R R 6 1 0 5 < < 6 6 6 6 q 6 6 6 6 6 q 6 B y 3.U.U.~.-._ / z c [ r.;.;.,.&.G.SXt.t.s.C.f.C.z.V.V.V.h.{ _ _ )  ./ / d = &XNXmX$X#XeXzXY o ",
". H hXaX,XOX@X>X9XP 3 E P S < 3 6 6 6 6 6 6 6 6 6 6 6 6 6 6 6 6 N y -.F.U.Q.M.M.h l a s s a a x m g.a.i.p.p.G.CXf.n.Z.2.j.b.I.P.~.(.W...^ / g D.,X>XOX1XqXkXU o ",
". D tXfX9XuXuXsXJXC , r S 7 7 q 6 6 6 6 1 6 6 6 6 6 6 6 q 6 6 6 N b -.9.N.P.I.~.d.<.=.` x x z h z ` &.$.*.[ %.ZXf.y.:.t.g.G.v.m.b.V.M.1.X.{ B -XaXqXaXqXiXtXU o ",
"+ H kXzXbXcXcXcXJXH > - 8 > 7 1 6 6 6 6 < < 6 6 6 6 6 q 6 6 6 6 N g o.F.U.N.N.9.FX[.K.| z c h l l c c ] / / ) d.p.j.<.K.ZXZXG.y.j.>.z.K.R.{ B dXtXzXkXvXzXkXU + ",
". T lXpXVX8X9XHXVX> O 8 6 q 7 < 6 6 6 6 6 6 6 6 6 6 6 q 6 6 6 6 N j o.U.N.I.I.I.].`.,.,.j.@.d :.M.( m n ` ` z &.n | ` ( s.a.s.,.u.C.ZXf.c.( m %X8XVX8X5XsXzXY o ",
". L hXpXVXVX9XVX6X% o 2 1 q 6 q 6 6 6 3 6 6 6 q 6 6 6 6 6 6 6 q N j o.U.N.I.I.I.[.].8.h.v.=.a 2.0.) n f z  .c j l h x c t.t.u.,.;.C.ZXC.c.v f ! *X$XOX@XqXlXU . ",
". P jXdXHXVXNX%X$X# O 8 6 q w 8 6 6 6 6 6 6 6 6 6 6 7 q 6 q 7 q N k o.U.N.I.I.I.[._.,.j.v.=.x h.~.,.1.h ) x.*.l n p c x m n | v v ;.H.s.b.| V &X5X>X2X>XeXzXY o ",
"o R vXdXVX6X$X#X@X$ O r q 3 6 8 6 6 6 6 6 6 6 6 q 6 6 6 6 6 6 6 N u o.U.N.I.I.I.[.`.8.j.n.#.z 5.T.8.<.h _ W.5.( n p ( _ i l c z l #.g.;.:.m M }.<X#X$X>XeXlXU . ",
"& ~ cXdXBX$X$X%X@X$ # B 4 < 5 6 6 6 3 6 6 q 5 6 6 7 q 6 q 6 6 6 M j o.U.N.I.I.I.]._.8.j.z.#.s j.U.7.1.l _ !.M.=.@.z -.8.( c z x z / n v ` = * Q ,XmX$X>XqXzXU o ",
"t Q cXsX>XOX$X-X&X$ o e 3 < 0 6 6 6 6 6 6 6 q 6 6 6 q 6 6 6 6 6 M j X.U.P.I.I.I.].].8.h.n.#.a 5.~.8.<.c { !.R.z.%./ x.!.*.` l x } _ f h b * + &X,X%X$X1XeXlXY o ",
"t Y kXuX@XOXOX$X@X# o 8 1 6 q e 6 6 6 6 6 6 6 q 6 6 6 6 7 6 6 6 M k X.U.N.I.I.I.[._.z.j.n.@.i 5.I.5.;.h ) V.c.,.V i 4.~.,.;./  .^.3.v ] b + o +X;X$X*X@XqXlXU . ",
"S |.zXpXVX8X8X9X6X% o 8 6 q w 8 6 6 6 6 6 6 6 6 6 6 6 6 6 6 6 6 M j X.Q.N.I.I.I.[._.8.h.z.#.z 5.E.z.d.m ) Y.M.,.%.x 3.(.h.:.z ` ~.3.v ) V & o $X8X6X8X6XiXzXY o ",
"+ L kXkXbXzXzXzXdX: X 1 q 8 8 1 4 q q 6 6 6 6 6 6 6 q q 6 7 6 6 M k X.U.9.I.I.I.[.{.m.V.G.&./ 4.I.h.p.l _ U.c.x.#.s 4.W.5.y.z ` B.c.u.@.m * : sXzXxXzXcXzXkXU + ",
"o L kXxXrXaXaXqX8X: X 4 q q 5 4 q q q q q 6 6 6 6 6 6 6 6 6 6 6 M k X.U.9.E.I.I.[.[.Z.r.A n s 5.U.h.p.l _ E.q.x.$.x 4.!.h.y.z ' U.L.u.#.m * $ 3XiXqXuXeXgXtXU o ",
"o J kXaX>X;X:X1XOX$ X r 8 5 7 4 q q 6 q 6 6 6 6 6 6 6 q 6 6 6 6 M k o.U.9.E.Y.I.`.AXp.e.R B i j.P.h.p.l _ I.M.x.#.x 4.W.j.y.c ` U.c.j.#.c = o :X7X>X;X1XqXkXI # ",
"o J kXiX#X$X#XmX@X@ O B e 5 5 6 q q q 6 6 6 6 6 6 6 7 6 6 6 6 e M k X.U.9.E.I.I._.SXe.~ &X! g t.P.h.p.z _ I.M.k.#.x 3.W.8.y.z ' I.c.5.' n = O |.<X#X$X>XeXzXY o ",
". J lXuX}.$X%X<X#X$ O 4 e w q 3 6 q 6 q 6 q 6 6 6 6 6 6 6 6 6 6 M k o.U.9.I.I.I.].AXZ ~ HXS.B d.U.h.p.l _ U.M.x.#.s 4.!.5.y.z ` Y.M.h.[ m * o }.6X%X$X%XeXlXU . ",
". J lXuX#XOX$X6X>X# O 2 6 w q 1 6 6 6 q 6 6 q q 6 6 6 q 6 6 6 6 M k X.U.9.E.I.P.].AX- Y UXS.4 a.P.h.p.l _ E.M.x.$.x 3.W.j.y.z ' Y.L.m. .l * o #X$X$X*X#XeXlXU . ",
". L lXiX>X$X$X$X#X$ . 3 5 w w 1 6 6 q q q q q q 6 6 6 6 6 6 6 6 M j X.U.9.E.I.I.[.DXq Q UX! 4 a.P.h.p.l _ U.M.c.#.x 4.Q.8.t.z | Y.L.M. .b * o }.,X#X$X>XeXjXY . ",
"X H jXuX.X,X$X#X@X$ X 3 5 w q 1 6 < 4 q q q q q 7 6 q q 6 q 6 6 M j X.U.N.I.I.I.{.DX- T UX X4 a.P.5.p.i _ Q.M.c.#.x 4.!.5.y.z ' Y.V.M.| m * o }.1XmX%X>XeXjXI . ",
". H kXgXrXeXrXrX4X% . 3 q 9 9 3 6 6 6 6 6 6 6 6 6 q q 6 6 6 5 < M k o.U.N.I.Y.I.DX{.V e.S.! m ;.^.c.l.l ( !.B.k.$.i 4.~.l.k.z | F.L.x.#.m + @ 3XeX7XqXrXbXzXT # ",
"O L kXkXpXtXtXtXdX> + 4 0 9 2 , 6 6 3 6 6 6 6 3 6 6 q q 6 6 6 5 N k o.Q.N.I.B.P.'.DXp.i.R C d x.T.m.h.h ) !.B.b.$.i 4.~.7.k.x } F.Y.c.O.m * : rXkXxXhXxXkXtXI o ",
"o J kXhXeXpXaXiX8X: + 3 0 9 2 3 6 6 6 6 6 6 6 6 q q q 8 e q 6 6 N k o.U.N.I.B.I.[.[.y.e.C 4 y 5.^.m.k.h ( !.V.x.#.i 4.Q.l.k.z | P.M.l. .c * $ 7XfXsXaXdXgXzXU + ",
"o H kXqX.XNX X.XOX@ . 3 w 9 8 > 6 6 6 6 6 6 6 6 5 q q q q e e e N k o.U.N.E.Y.P.[.[.-.e.R Z a 4.Y.m.h.h ( E.B.z.$.i 4.~.7.k.x } N.M.l.*.m * . +XBXmX<XBXrXlXY O ",
". D jXiX>X$X$X,XOXo + 3 w e 9 > 6 4 q 6 6 6 6 6 6 6 w 6 e e e q N k +.U.N.I.B.I.[.[.7.t.C B z 5.W.m.k.h } Q.M.z.$.i 4.~.l.k.x | P.B.b.#.c = . +X<XmX<X<XeXzXI O ",
"O D jXiX<X2X*X2X,X& O 3 , 9 8 , 6 6 6 6 6 6 6 6 6 6 6 e e 6 6 6 M k +.U.N.I.I.I.`.[.b.p.B - s 4.Y.m.l.h ( Q.m.z.$.i 4.Q.l.k.x } Q.R.x. .m = O @X2X,X2X<XeXjXU O ",
"o L jXdXmX%X&X#XOX# + 1 > 7 r 3 6 6 6 6 6 3 6 6 6 6 6 q 6 6 6 5 N j o.U.N.I.B.I.[._.j.i.r Z x -.U.m.l.h ( E.M.u.$.i 4.~.l.k.z | T.M.j.` l = X @X;X%X$X#X8XcXT + ",
"X K hXiX#X$X$X%X@X& + e w e 4 , 6 6 6 6 6 6 6 6 q q q 6 6 6 5 < M k +.U.N.I.Y.P.]._.n.i.e Z ] 4.Y.m.k.h } U.m.j.$.i 4.~.6.k.x } Y.M.z.' m = . |.<XMX-X#XqXkXI @ ",
". L jXuX#X$X@X<X}.# + M 2 7 0 3 q 8 q 6 q 6 q 6 6 6 q 6 q 6 6 q M k o.U.F.I.I.I.[.'.Y.g.P B s <.U.m.j.x ) W.M.8.@.d 6.Q.8.:.( ) T.c.,.#.n * o @X%X#X$X#X4XjXU . ",
". D hXgX7X8X4X3X9X: @ 4 6 7 5 3 6 q q q 6 q 6 q 7 q 6 6 6 q 6 6 M k X.U.9.I.I.I.[.`.q.g.P R ^ -.U.c.z.z ) !.7.7.%.a 6.R.5.;./ ( U.V.z.#.m * $ 2X4X3X4XrXaXhXI o ",
"o J zXzXJXcXcXvXdX: @ 3 6 7 q 1 q 6 6 q 6 q 6 6 6 6 6 6 6 7 6 6 M k o.U.9.E.I.I.[.'.z.e.C B ] 3.U.c.n.z ) W.M.h.$.s 6.W.z.;.n ' I.B.m.#.b + % 8XzXvXcXbXcXkXY # ",
"o J kXzXrXgXpXgX8X: @ 3 6 e 5 1 q 6 q q q 6 q 6 6 6 6 6 6 6 6 6 M j X.U.9.U.I.I.[.'.K.e.r M ] 2.U.m.z.z ) ~.M.7.#.i 6.~.z.y.v ( B.B.b.*.m + @ 8XgXbXgXsXgXkXU . ",
". H jXaX@X=X:X;X<X$ . 2 6 7 0 3 6 q q 6 6 q q 6 6 6 q 6 6 6 6 6 M k X.U.9.E.I.I.[.].a.W R M f 2.U.c.z.x ) ~.M.c.$.s 6.W.z.,.m n F.L.z. .z * o ,X;X1X=X:XqXhXU . ",
". L cXuX#X$X&X<X#X# + B 9 5 0 0 q 6 6 q q q 6 q 6 6 6 q 6 6 6 6 M k o.U.N.I.I.I.DX`.A ~  XW g j.U.x.n.z _ !.M.c.;.s 4.R.z.p.&.;.F.K.z. .c = . |.NXmX$X#XeXcXY O ",
"o J jXuX#X$X%XNX#X# + 4 6 5 0 6 6 q q 6 6 q 6 q 6 6 6 7 6 6 6 6 M k o.U.N.I.I.I.].AX4 Q CXa.C v.Y.7.u.z ) E.M.m.%.s 6.W.b./.e.y.Y.L.c.[ c * . |.NXMX$X#XeXjXU + ",
"# L zXaX#X*X$X$X@X$ . 6 6 7 8 4 q q 6 q q 6 q q 6 6 6 6 6 6 6 < M k o.U.9.Q.I.P.DXAXC Q UXD.: C.Y.x.j.z ) ~.M.7.$.s 7.(.J.f.@.@.P.I.M.' c * X +X$X&XOX,XqXzXY # ",
"o D lXuX#X*X$X,X#X# O 4 > q e 2 6 6 6 6 6 6 6 6 6 6 6 q 6 6 6 6 M k X.U.P.I.I.I.].AX4 Q UX&XM a.R.j.p./ ) !.B.6.&.v K._.V.C.` ` B.R.x.| k = # @X6X#XOX,XeXlXY . ",
"o L kXiX#X<X%X>X@X@ X 4 q 7 6 1 6 6 6 6 q 1 6 6 6 q 6 6 6 6 6 6 M j X.U.N.E.I.I.].AXB Q JXS.B d.Y.j.t.c ) R.R.l.e.n K.(.b.b.] n P.M.k.#.m * o |.>XmX$X#XeXkXI o ",
"@ J kXaX1X4X2X;X5X% . 4 e 7 5 3 6 6 3 6 6 6 6 6 q q 6 6 6 6 6 q M j o.U.N.I.I.I.[.'.A ~ MXW B d.U.8.:.l ) (.W.z.a.@.K.(.b.n.c ` Y.M.x.*.n * $ :X7X<X3X7XaXkXI . ",
". J kXkXbXlXzXzXdX: . 2 9 < 5 w 6 6 6 6 6 6 6 6 6 6 6 6 6 6 6 6 M j X.U.N.I.I.I.[.[.g.E E B f z.U.6.;.z ` ).).v.s.| 8.~.l.Z.] ` T.M.h.#.m + % eXkXjXjXvXxXkXY O ",
"+ L kXxXdXfXhXfXdX: . N 8 5 0 0 6 6 6 6 6 6 6 6 6 6 6 q 6 q 6 6 M k X.U.N.E.Y.I.[._.u.g.&.V i h.U.5.:.m @.).)./.t.` 5.W.l.j.c | T.c.5.' c + $ 8XxXfXfXsXgXzXU + ",
"  L zXiX.X,X:X|.5X$ . 4 8 7 5 3 6 6 6 6 6 6 6 6 6 6 6 6 6 6 6 6 M j X.U.N.B.Y.I.].`.z.j.n.$.^ 2.P.7.d.n $.`.).v.$.z -.W.l.j.z | L.m.h.#.m * X :X1X}.,X1XqXjXT   ",
"  H jXsXBXNXBXCX@X$ O 4 6 w 0 1 6 6 3 6 6 6 3 6 7 q 6 6 6 q 6 6 M j X.U.N.I.I.P.[.`.8.z.C.y.s 2.W.x.C.@.;.`.).p.@.p -.W.6.y.z ` P.M.z.| m * . |.mX X@X>XeXcXY   ",
"    kXaX#X5XOX>X#X% + 1 > 7 e 2 6 6 6 6 6 6 6 6 6 q 6 6 6 q 7 6 M j o.U.N.E.I.U.FX`.<.,.v.;.d 5.W.J.C.%.;.`.J.y.#.a 4.!.l.2.c | E.Y.z.| b = # |.5X$X*X,XuXzX    ",
"    zXiXmX<X#X.X#X# + 2 < 5 6 2 6 6 3 6 6 6 6 6 6 6 6 6 q 6 6 6 N j X.U.N.I.I.I.DXDX8.h.M.=.a j.~.K./.%.=.(.c.,.&.l 4.Y.5.r.' ] !.h.v n ^ d M D.%XrX}. X0XtX    ",
"      aX$X2X*X2X<X% O B 6 5 5 1 6 6 6 6 6 6 6 6 6 6 q 7 6 6 6 6 M j X.U.N.E.I.I.].].8.h.b.#.a z.(.).).v z W.R.j.&.x 4.L.J.,.z ' I.4.( x / z B H.S.0X1X#X0X      ",
"        }.%X#X>XOX% @ B 8 5 0 3 6 6 6 6 6 6 q 6 6 6 q 6 6 6 6 6 M j o.U.N.I.I.I.].AXx.h.v.$.( b.(.x.J.n ) R.l.l.[ d 6.(...z h x ) +.l.c.5.` m V [ &X1X}.0X      ",
"        BX7X,X<X2X% O 2 9 w w 3 6 6 6 6 6 6 6 6 6 6 6 6 6 6 6 w M j X.U.N.I.I.I.].].8.z.s.;.#./.`.x.t.v { R.M.Z.e.p 6.W._ c _ ] s +.).(.).=.` d ] #XrX1X        ",
"            kXtXdX: O 4 N S w 3 6 6 6 3 6 6 6 6 6 7 6 6 6 6 6 7 M k X.U.N.I.I.I.]._.h.v.n.t.@.C.B.k.:.p ) R.2.s p c / ) x.R.l.B.^.h.h.>.,.,.:.] Z fX            ",
"              xXdX: X 4 7 S w 3 6 6 6 6 6 q 6 6 6 6 6 6 6 6 6 6 M j X.U.N.E.Y.I.]._./.).SXs.@.n.W.h.;.n O.c.h.) v | ( _ b.).!.V.K.J.v.r.y.z.y.' Z               ",
"                  $ . 1 7 w e 8 6 6 6 6 6 6 6 6 6 6 6 6 e 6 6 6 M k X.U.N.I.Y.I.FXDX/.SX/.i.@.,.W...y y d / +.R.(.L.T.W.,.t.n.-.:.s.SXSXu.j.;.                  ",
"                      4 7 5 q 8 6 6 6 6 6 6 6 6 6 q 6 6 6 6 6 6 M j X.U.N.E.I.I.DXAXJ.C.i.@.x +.6. .%.1.O...-.).0.0.0.L.J.s.s.y.j.f.H.H.[                       "
};
