/* XPM */
static char *_10c2f2bd49b4ba0bf16da07de7f4b614WJmpIrmuPzHkqr6[] = {
/* columns rows colors chars-per-pixel */
"40 40 230 2 ",
"   c #0A0502",
".  c #170702",
"X  c #150902",
"o  c #1D1304",
"O  c #220E04",
"+  c #3A0705",
"@  c #2A1808",
"#  c #341602",
"$  c #351A04",
"%  c #3B1C08",
"&  c #291B12",
"*  c #27290F",
"=  c #3C360B",
"-  c #3A2618",
";  c #313212",
":  c #353539",
">  c #4B0905",
",  c #580806",
"<  c #481007",
"1  c #541308",
"2  c #491811",
"3  c #680A08",
"4  c #6B0D0C",
"5  c #740B06",
"6  c #7D0E05",
"7  c #740E0A",
"8  c #7B0E09",
"9  c #6A160C",
"0  c #72140C",
"q  c #7C130B",
"w  c #73180E",
"e  c #7A1C0E",
"r  c #6C1D11",
"t  c #721C11",
"y  c #781E18",
"u  c #512F0F",
"i  c #59360D",
"p  c #483517",
"a  c #643B0D",
"s  c #6B2614",
"d  c #762816",
"f  c #6B3A16",
"g  c #723016",
"h  c #4B3B29",
"j  c #5A3924",
"k  c #6E3822",
"l  c #37481A",
"z  c #3F4424",
"x  c #3D5220",
"c  c #424C1A",
"v  c #47561E",
"b  c #54571C",
"n  c #684619",
"m  c #774B17",
"M  c #715214",
"N  c #61621C",
"B  c #7F6114",
"V  c #484829",
"C  c #56432A",
"Z  c #485528",
"A  c #674721",
"S  c #764B25",
"D  c #6D5622",
"F  c #775428",
"G  c #6F553F",
"H  c #785733",
"J  c #4C6724",
"K  c #59772B",
"L  c #696726",
"P  c #76652A",
"I  c #746C2A",
"U  c #697924",
"Y  c #77762D",
"T  c #747B36",
"R  c #745645",
"E  c #7D6E43",
"W  c #616163",
"Q  c #830E07",
"!  c #880E06",
"~  c #861007",
"^  c #8B1107",
"/  c #831209",
"(  c #8B1209",
")  c #911107",
"_  c #931208",
"`  c #90160D",
"'  c #9C130A",
"]  c #99180D",
"[  c #981B11",
"{  c #A2130A",
"}  c #AB130B",
"|  c #AD180F",
" . c #AE1C13",
".. c #982C1B",
"X. c #AA271B",
"o. c #B1231A",
"O. c #B3291F",
"+. c #843428",
"@. c #9A3627",
"#. c #B42D22",
"$. c #AA3225",
"%. c #B6342A",
"&. c #BA3D32",
"*. c #895E15",
"=. c #8F741B",
"-. c #934A3C",
";. c #8B583D",
":. c #BD463A",
">. c #B55630",
",. c #8C613C",
"<. c #9A6E34",
"1. c #A57227",
"2. c #BA7938",
"3. c #975444",
"4. c #B15746",
"5. c #946B4E",
"6. c #A9634A",
"7. c #AD7444",
"8. c #B3784F",
"9. c #A96B54",
"0. c #A57A51",
"q. c #B47554",
"w. c #887F79",
"e. c #B47C65",
"r. c #C14F42",
"t. c #C35648",
"y. c #C97B4B",
"u. c #CB6853",
"i. c #388236",
"p. c #659D1D",
"a. c #68A11D",
"s. c #67852A",
"d. c #73812C",
"f. c #669427",
"g. c #688733",
"h. c #638B31",
"j. c #748534",
"k. c #788A34",
"l. c #6C9639",
"z. c #789838",
"x. c #6CA424",
"c. c #6DA42A",
"v. c #6DAA2A",
"b. c #73AA2A",
"n. c #72AC2B",
"m. c #75B12F",
"M. c #78B12F",
"N. c #74AB32",
"B. c #7BA939",
"V. c #75B230",
"C. c #7BB335",
"Z. c #7EB937",
"A. c #7DB53B",
"S. c #7EBA3B",
"D. c #578C42",
"F. c #7CAB44",
"G. c #7EB840",
"H. c #87913B",
"J. c #8AAC3D",
"K. c #80B635",
"L. c #82B53D",
"P. c #86BE3A",
"I. c #83BC3C",
"U. c #C5853C",
"Y. c #86C13E",
"T. c #8AC33D",
"R. c #8C8F4B",
"E. c #BB8254",
"W. c #86AB45",
"Q. c #92AD48",
"!. c #83B441",
"~. c #85BD42",
"^. c #89BE44",
"/. c #8ABC4A",
"(. c #94B953",
"). c #A1B548",
"_. c #AB8C6E",
"`. c #BB926C",
"'. c #94B877",
"]. c #C48B58",
"[. c #C6915D",
"{. c #D48D6C",
"}. c #C99766",
"|. c #D3946C",
" X c #CD9C76",
".X c #CD997A",
"XX c #D49472",
"oX c #CDAD78",
"OX c #DAA778",
"+X c #E0B576",
"@X c #86C342",
"#X c #8BC444",
"$X c #8DC946",
"%X c #8DC54A",
"&X c #8ECB4A",
"*X c #90C747",
"=X c #92CA46",
"-X c #91C64A",
";X c #92CB4B",
":X c #99CD4C",
">X c #94D04D",
",X c #9BD24E",
"<X c #8EC851",
"1X c #93C652",
"2X c #96CC52",
"3X c #99CD56",
"4X c #95CF58",
"5X c #9BD254",
"6X c #9BD558",
"7X c #A1C65E",
"8X c #A0D758",
"9X c #A2DB5B",
"0X c #9FD863",
"qX c #A6DD63",
"wX c #A7E663",
"eX c #ABE364",
"rX c #9E9D88",
"tX c #DAB18C",
"yX c #E4A786",
"uX c #E9B586",
"iX c #F3BF8D",
"pX c #CAB9A6",
"aX c #B9C5A0",
"sX c #EFC394",
"dX c #F2C69A",
"fX c #DDCCB0",
"gX c #ECCCAC",
"hX c #F7D6AB",
"jX c #FDD5A9",
"kX c #FCDCB1",
/* pixels */
":X:XK.p.a.P.:X*X@X-X=X@XC.@X&X%Xz.T L.%X#X@X*X:X:XS.p.C.=XY.=X%X@X$X$X@X@Xv.T.T.",
"T.,X:XK.P.=X*XP.=X%X^.N.c.A.<X&XY g L J.#X=X-X*X#X;X#XY.Y.#X>X:X$X&X$XS.V.v.$XT.",
"P.=X:X=X=X-X^.P.-X#X#X@X~.@X2X&XH.s t M f.^.=X$X@X=X:X@XY.*XY.C.@X&X@X@XV.Y.$XT.",
":X:XT.*X:X:X:X:X@X%X6X(.z.j.g.j.F r 8 w n s.j.z.L.I.2X;X*XY.v.n.@X&X@X>X$X6X>XY.",
":X^.K.K.*X*XI.^.@XB.z.H r 0 w q 0 7 / 7 0 w e d P J.wX6X=X@XV.Y.&X&X&X>X&X>X&X&X",
"*XK.M.K.*X^.C.f.g.k y 0 0 ( _ _ ) ^ ) ^ ) ) ^ / w P z.z.z.z.!.$X&X@X&X$Xv.V.S.>X",
"*X*X^.-X5X;XK.Y g 9 8 ( _ } } } } } } } } } { ) ^ q w w w w P B.&X@X6X@XV.V.S.&X",
"@X).*X^.#XL.I s 7 Q ' { } | } } } } } } } } } } } ' ^ ^ ^ ! q F V.@XwX&X&X&X&X@X",
":X*X-X*X/.I t 4 / ] | } } } } } } } } } } } } } } } } }  . .' / m z.G.@X&X@XV.v.",
"N.L.L.^.F.D 7 [ &.&.#.| } } } } } } } } } } } } } } | #.4.u.&.' / g k.@X$XY.V.V.",
"I.f.^.7Xn 9 4 ..t.u.:.&.%. .} } } } } | } } } | o.%.:.t.r.:.:.O.] g k.$X$X@X$X&X",
"L.^./.(.A 4 7 ` o. .[ X.&.%. .| o.o.o.%.%.%.:.r.t.t.t.:.:.:.#. .' g k.T.@X@X$X>X",
"L.8X1X(.S 4 4 7 Q ( 8 q ` [ { } } } | | |  .o.#.%.%.O. . . .| ' ( g k.$X;X&X#X@X",
"3X8X3X(.S 7 4 4 7 Q 4 4 7 Q ) ) } } } } } } } } } | } } } } } ' / s d.Z.@X$X;X;X",
"1XqX!.B.Q.S , + , 4 4 -.9.+.3 3 5 ' } } } } } } } } } } } } } { ~ s U x.C.#X$X;X",
"3XB.c.A.!.P + - ;.y 3 9.gXtX.X.X6.q ) ' { } } } } } } } } } } ' / s T I.%X>X$X^.",
"<X@X~.~.!.W.Z V .X.X+.d 3.9.e.e.q.3.` q _ ' ' ' { } } } } } } ' ~ s k.1X^.C.~.%X",
"&X&X$X%X@X@XK p E.iX.X6.e.rXR : _.{.@.7 8 , > Q ' { } } } } { ) ( e A z.N.c.G.1X",
"&X>X2X$X<X$Xh.v H }.uXiXtXw.: W pX{.X.Q , - i 1 5 ' } } } } ) ! 8 7 w g k.!.%X;X",
"&X>X@XI.&X&X^.h.z 0.uXuX`.: : F.fXXXX._ +.0.0.- , { } } } } ' 6 s A P P k./.=X=X",
"@X@XV.m.@X$X%Xl.V _.dXsXoXD.i.rXfX{.X.] u. XR 2 5 ' } } } { ) 8 n z.-X3X=XT.T.T.",
"&X@XZ.V.@X$X%Xh.Z rXkXkXfX'.'.aXfXyX$.' u.5.2 8 ^ ' } } } ) ! Q f f.#XP.K.T.T.T.",
">X@X$X$X$X#X$Xh.V _.hXhXhXkXhXkXkXyX%._ 7.q./ 8 ~ _ { } { ^ ~ d P J.=XM.a.n.Y.T.",
"$X@X&X>X#X%X;Xl.v H [.iXjXkXkXkXkXtX>.X.>.8.-.y ! ^ ' { ^ Q 7 S B.=X>XT.Z.T.=XT.",
"@X$X$X>X>XT.S.S.F.v H E. XsXjXjXjX+XU.2.6.5.5.s , Q _ ' ^ 7 r I /.N.N.@X@X-X:X@X",
"&X&X$X$XY.m.m.S.:X/.T p V 7.|.XXOXy...g ;.G - & @ > 6 ^ ~ w P ^.1XN.c.S.;X2X=XI.",
"$X&X&X&X$XS.S.$X#X%XL.L.H.f 2 j `.|.@.r 2 G  XOX].j + 6 ~ 0 I $X%X<X1X2X1X^.^.2X",
"$X$XT.T.&XT.Y.T.V.x.C./.s.= j _.hXOXS @ G tXdXuX].f + ~ ~ w Y I.S.#X~.^.%XI.v.C.",
"$X$XT.Y.T.&X&X>XP.M.@Xh.p m 2.+X+X1.m # h }.iX}.j < 6 ~ / w I v.p.@X:X#XP.b.x.%X",
"Y.>X>X>X>X&XT.T.#X>X=XK = *.].E.=.f @ $ m <.8.7.p > ^ ^ Q w I C.;X,X%X$X9X9X#XP.",
"T.>XT.T.T.Y.m.a.Z.$X$Xs.i i i a u . o i m a u % 1 6 ~ ^ ~ w Y %X:X6X,X=X,X=XT.=X",
">XT.v.v.T.9X&XZ.;X$X9X2XU * . . % n M n i % X . , ^ ^ ! 7 4 s I K.=XT.P.T.T.T.*X",
"T.$XZ.S.#XeX8X;XeXeX5X5Xh.h G C C  X}.j X X     > 8 / g N s.U B.3X-Xf.x.8X5XK.=X",
"$X>XT.&X#X6X9X9X#X#XC.I.Q.N A - & h h & X X X O b m 7 f s.A.$X6XeX@XC.@X8X8X=X#X",
">X$XY.>X8XeX3X-XI.f.v.^.).=.n # # O . # # # $ = g.B.A f l.%XS.A.&X^.^.:X3X=X@X^.",
"T.&X>X>X=X*X%X-XeX#X#X%XJ.=.m u $ $ # # # # $ = g.G.z.k./.%Xv.c./.5X:X3XeX6XP.5X",
"$X>X%XM.M.K.-X;X9XqX^.l.N B n @ A ,.;.5.;.F S p g.~.<X~.G.G.G.<X@X%XI.I.3X-XL.%X",
":X$X^.c.C.-X2X^.C.C.N.l.c u o   V R.T E ,.;.F = x l.<XN.c.@X<X<X3X@X1X1XC.C.1X3X",
"~.$X6X^.#X^.;X;X/.c.A.4Xl.J x l h.l.J * @ u u * ; D.2XG./.4X<XG.#X~.2X-Xc.c.%X3X",
"3X%X:X%X3X;X3X-X2X-X-X/.4X%X1X&X4XF.Z l l b N b l.G.4XqX0X4X<X4X3X5X:X-X3X3X-X3X"
};
