/* XPM */
static char *_41af73aa1f1489bf878a6fa5a858c72B7FrnBrZGVNTJgxy[] = {
/* columns rows colors chars-per-pixel */
"80 80 256 2 ",
"   c #020203",
".  c #010B03",
"X  c #02040A",
"o  c #080607",
"O  c #150305",
"+  c #041109",
"@  c #060914",
"#  c #011315",
"$  c #041819",
"%  c #171116",
"&  c #270801",
"*  c #320700",
"=  c #2B1505",
"-  c #31331D",
";  c #111A25",
":  c #022725",
">  c #182A29",
",  c #133130",
"<  c #262B2E",
"1  c #2A2B28",
"2  c #352A2C",
"3  c #28332C",
"4  c #35332B",
"5  c #242D33",
"6  c #2A2F32",
"7  c #282C38",
"8  c #352B35",
"9  c #253333",
"0  c #2C3134",
"q  c #283539",
"w  c #313539",
"e  c #383736",
"r  c #1C231E",
"t  c #5A1802",
"y  c #58110B",
"u  c #660B00",
"i  c #6D1B00",
"p  c #691701",
"a  c #741C00",
"s  c #771A02",
"d  c #700C00",
"f  c #5A2507",
"g  c #4E2B18",
"h  c #6C2B00",
"j  c #62260A",
"k  c #64290C",
"l  c #6B2505",
"z  c #752301",
"x  c #7B2301",
"c  c #782A07",
"v  c #793307",
"b  c #692912",
"n  c #773515",
"m  c #702F12",
"M  c #462A21",
"N  c #492B26",
"B  c #4E3429",
"V  c #723926",
"C  c #364432",
"Z  c #4E4837",
"A  c #6B512C",
"S  c #373941",
"D  c #213D4B",
"F  c #182B46",
"G  c #513C4B",
"H  c #1A454B",
"J  c #1C4854",
"K  c #0C4F4D",
"L  c #274755",
"P  c #324A4D",
"I  c #16706A",
"U  c #27696A",
"Y  c #2C7071",
"T  c #2A5A60",
"R  c #4B4E51",
"E  c #6C5752",
"W  c #6A6555",
"Q  c #536E70",
"!  c #6D7371",
"~  c #5E5D62",
"^  c #8C1805",
"/  c #852903",
"(  c #873707",
")  c #94350A",
"_  c #973809",
"`  c #873913",
"'  c #963C18",
"]  c #8D290D",
"[  c #A33808",
"{  c #903C26",
"}  c #9D3229",
"|  c #8B400F",
" . c #8C4317",
".. c #974319",
"X. c #9D470E",
"o. c #AD4917",
"O. c #AE4B19",
"+. c #A34A1A",
"@. c #B24E1B",
"#. c #8B4728",
"$. c #964929",
"%. c #9B4C32",
"&. c #9B5536",
"*. c #8E5230",
"=. c #A44926",
"-. c #A65527",
";. c #B85927",
":. c #A75937",
">. c #B85837",
",. c #B1492B",
"<. c #B86539",
"1. c #AF6735",
"2. c #A7622C",
"3. c #C75C39",
"4. c #CD5C2B",
"5. c #C9652C",
"6. c #C8683A",
"7. c #D46938",
"8. c #D6733D",
"9. c #C8713E",
"0. c #FC7C3E",
"q. c #F77738",
"w. c #E7763B",
"e. c #E85A37",
"r. c #935748",
"t. c #AF5B48",
"y. c #B86844",
"u. c #BC7448",
"i. c #AB6A54",
"p. c #B26A54",
"a. c #A97558",
"s. c #B87658",
"d. c #AB6A48",
"f. c #B47966",
"g. c #966746",
"h. c #CC6C42",
"j. c #C56A47",
"k. c #D56C46",
"l. c #C97348",
"z. c #D47344",
"x. c #D97648",
"c. c #C87756",
"v. c #D87755",
"b. c #CA6C53",
"n. c #E66B43",
"m. c #E67846",
"M. c #FE7E42",
"N. c #F87949",
"B. c #EF7851",
"V. c #CA7867",
"C. c #D65E4E",
"Z. c #30857E",
"A. c #6C8478",
"S. c #508A75",
"D. c #F8843C",
"F. c #B8866F",
"G. c #928770",
"H. c #D58459",
"J. c #D48C51",
"K. c #EB8548",
"L. c #FD8444",
"P. c #FC844B",
"I. c #FE8B4D",
"U. c #F68848",
"Y. c #F5934D",
"T. c #EA8656",
"R. c #FE8552",
"E. c #F48B55",
"W. c #FB8C54",
"Q. c #F98A59",
"!. c #FB925A",
"~. c #E7974C",
"^. c #CF8C6D",
"/. c #FB9764",
"(. c #EF936D",
"). c #FBBA78",
"_. c #F3AE6E",
"`. c #E0B268",
"'. c #F9C776",
"]. c #F6CB74",
"[. c #DDC762",
"{. c #1E6D82",
"}. c #6C7A90",
"|. c #607B90",
" X c #8C7994",
".X c #8D7AA5",
"XX c #2F9392",
"oX c #32A496",
"OX c #5A9998",
"+X c #538C92",
"@X c #688998",
"#X c #77879A",
"$X c #679798",
"%X c #77969A",
"&X c #6F8B89",
"*X c #58A499",
"=X c #47A399",
"-X c #67A69A",
";X c #599AA6",
":X c #5693A7",
">X c #788BA3",
",X c #6997A5",
"<X c #7697A5",
"1X c #6993AD",
"2X c #58A5A6",
"3X c #53B0B4",
"4X c #67A5A6",
"5X c #78A5A9",
"6X c #69B8B7",
"7X c #6DADB5",
"8X c #58CEB8",
"9X c #59B9C8",
"0X c #42B8C2",
"qX c #66B9C7",
"wX c #71B1C9",
"eX c #36FDED",
"rX c #2AE9D3",
"tX c #58C8CA",
"yX c #57C9D2",
"uX c #57D7D8",
"iX c #4DD0CF",
"pX c #6ACDD0",
"aX c #4FEBD9",
"sX c #55D9E5",
"dX c #6DD7E6",
"fX c #49FCEA",
"gX c #56FBEB",
"hX c #49FEF8",
"jX c #54FEF3",
"kX c #5BFEF2",
"lX c #57FCFB",
"zX c #51E8E9",
"xX c #67FBFA",
"cX c #6AEBEC",
"vX c #62E9DA",
"bX c #37CCAF",
"nX c #868799",
"mX c #8F8E92",
"MX c #8599A6",
"NX c #8B8CA8",
"BX c #8CAAB4",
"VX c #A9A59F",
"CX c #EEB988",
"ZX c #D0A48E",
"AX c #FBCA86",
"SX c #FDD589",
"DX c #E0C9B3",
"FX c #9CAEC7",
"GX c #8DDADD",
"HX c #EBF9F6",
"JX c #FFF5FC",
"KX c #FEFDFE",
"LX c #F7FAF7",
"PX c #F0EEEE",
"IX c #DBE4E0",
"UX c #C7B9C9",
/* pixels */
"HXKXKXLXLXHXKXLXHX% F eXrX X%XOX$X<X|.2XGX8X  O   % < w 0 < < 0 w 5 > 6 B c m.N.B.(.`.CXDXCX*.1.Y.n.h.l ( W.N.l.%.^ 7.m.x.j.z h b E #XvXxX, o IXLXLXKXLXPXKXKXHX",
"KXPXLXKXKXPXLXmXQ Z.:XqX5X@X*X#X4X@X5X,XI K > 1 ; > 0 0 0 < < 0 7 q < 1 f p 7.I.N._.).)._.s.h 6.Y.w.h.l ( R.B.h.%.x 7.K.n.j.x h a E +XOXwX3X+XY mXPXPXKXKXKXJXKX",
"PXKXKXJXIXKXKX% o aXfX:XNX$X2XNX$X@XMXQ $ + P 2 1 6 0 0 6 < < 0 < 6 4 - b / w.D.N.).SX_.c.*.t h.U.n.k.l ( W.n.l.%.a 6.K.n.j./ v ^ A -X<X1XrXuX5   KXKXIXPXKXLXKX",
"KXLXKXKXKXKXKX7 % vXeXrXwXNX@X>XOXMXR 7 , > 0 2 0 6 6 6 < 6 0 6 8 1 4 g :.4.M.D.N._.'.`.y.*.u 3.E.w.k.l ( !.n.l.%.s 6.U.v.j.v ( N.$.Z BXsXeXgX% > KXJXJXKXKXHXKX",
"LXKXLXPXKXJXIXJ F wXgXfXaX2X@X;X$X}.% O e 6 < < 0 0 < 6 0 0 < < 6 1 M f l.R.P.D.M.~.]._.y.:.a 3.U.n.k.h ( R.m.l.$.a 5.E.B.j./ ` /.3.t &XfXhXcX; : IXJXJXPXPXKXKX",
"KXPXIXKXJXR , 2XrX3XBXBXyXeXpX5XP > + 1 8 2 8 5 < < < 6 0 0 0 1 < 4 B l 6.N.L.L.M.J.SX_.y.&.i k.U.n.k.h ( R.m.<.*.l 6.E.B.3./ ` D.n.s A.3X:XqXrX6XF G JXLXPXPXKX",
"JXKXHXKXPXB $ pXhX:X@X}.3XjX6XQ r X 3 C 1 8 S 5 < < 0 6 6 0 0 0 5 4 B t 4.M.0.I.M.~.SX_.>.%.p h.I.n.k.h ( R.n.u.$.p 6.E.v.3./ ` Y.4.u ! MX}.;XhXpX# S PXLXLXKXJX",
"JXPXHXLXJX~ $ iXxX|.4X$X;XwXG . e $ C 3 1 e q q 0 0 0 6 < < 0 w q 0 g y 7.Q.M.K.I.D.]._.>.r.p 3.I.w.C.z | I.x.<.*.i 6.Q.B.3./ ` D.e.u ! 4X>X,XcXvX# R JXLXHXLXJX",
"HXKXPXIXBXY K wXGXOX4X:X:X<XT @ < < < 6 6 w 6 0 w 0 < < 0 0 6 6 F 1 g h >./.M.0.D.U.'.).1.*.h 6.L.w.l.z ` E.x.9.%.i 5.!.8.k.z | ~.e.s S.=X$X@XuXpXK T mXHXHXJXJX",
"PXKXPX! 2 6XzX1X+X|.<X<XMX%XR X < < < 6 6 6 4 0 6 0 0 0 6 6 < 6 q 1 g h 3.R.M.0.D.Y.AX_.d.$.z 6.L.x.l.h ) E.x.9.%.i 5.W.k.k.z | D.4.a W -XmXnX6X7XgXpX% R LXJXPX",
"KXJXHXmX& XXlX1X%X%X%X%X! R e . < < 3 6 6 0 0 0 6 6 0 w 0 < 6 6 4 - n -.8.N.D.I.~._.(.^.l.-.i 6.L.z.l.z ) E.x.8.%.i 5.E.k.k.z | Y.w.) r.E &X#X+XFXeXbXO W JXJXHX",
"LXLXHXMX; XXgX0X*X2X+X&X~ o 1 1 1 6 6 6 0 6 6 6 6 6 0 w w w 0 < g g 2.D.W.R.M.I.]._.9.<.v.>.a <.I.8.j.z ) E.m.z.%.a 5.!.k.b.z | L.J.>.,.b ! *X+XXXfX0X@ ! KXKXIX",
"LXUXW Q oX3XwXsXuXpXpX7XQ X ; e < 6 6 6 6 6 6 6 0 1 < 0 S R e 0 g t 2.Y.I.L.w.U.].].1.;.v.3.s <.I.8.y.x ( E.w.8.%.a 5.!.n.k.x | N.J.u.} g *XvXpXaXqXOX=X@XG VXKX",
"LXVXO U gXqX}.xXxXxXdXOXQ $ ; S < 6 6 6 6 6 6 6 0 6 < 0 e P w 0 g t ;.I.0.0.M.I.].].<.h.v.,.s <.I.9.y.z _ E.x.x.%.l 5.W.8.b.z | R.x.y.{ g 5XkXcXaXNX1XfXXX@ %XKX",
"PXUX$ I fXpX>X2X0X3XOX: 5 ; 8 S 6 6 6 0 6 6 6 < 0 0 0 0 0 0 w w B t ;.D.q.M.I.Y.'.).<.c.v.=.s <.W.h.y.z _ E.w.x.%.i 5.W.k.b.z ` W.m.6.' k &X6X3X7X}.3XgX=X@ mXKX",
"LXVX# XXgX3X$X#X,X@X}.  % e S ; < 6 6 0 3 6 6 6 < 0 w 0 < < 5 w N t ;.L.0.P.R.U.AX).1.u.b.,.^ 3.E.h.y.z _ T.D.m.%.a 5.W.8.k.x | L.D.w.o.j W }.,X.X+XiXgX=X$ A.LX",
"LXVXo Z.jX0X}.MX$X,XQ + % 6 1 q 0 w w w 0 0 < < 6 6 0 5 0 6 0 6 B b O.W.M.P.I.U.AX).1.c.l.>.d ;.I.z.1.l ) T.K.k.%.z 4.W.8.j./ ..L.L.n.' m = @ #XmX@X3XlXoX. mXHX",
"KXFXO {.xX3XnX&X+X5XS.@ % 8 8 5 < 6 0 0 0 0 0 0 6 6 7 0 6 6 6 6 4 t O.I.N.Q.U.D.)._.1.j.j.>.a 6.D.9.y.c ' E.T.7.$.x 4.Q.x.h.v _ U.N.n.' k & X |.A.%X9XcXZ.. VXKX",
"KXVX+ XXgX0X7X*X1X<XQ X % 1 0 q 0 < < < < 6 0 w 6 6 7 6 0 6 6 6 2 j 4.N.0.!.m.!.AXAXH.c.y.,.p 1.K.z.y.z ) T.x.7.#.a 5.!.z.l.x | U.m.k.=.n =   |.*X;XyXxXXX# mXJX",
"mXmXK oXuX3X5X$X@XQ R % r < 0 9 0 0 0 < 0 0 0 0 6 0 0 6 6 6 6 6 N i ;.P.N.!.5.5.J.H.:.:.=.{ z l.E.l.:.i ) T.B.k.#.z 5.!.z.j.x ' U.m.k.$.n = X @X%X,X;XdX3XJ }.VX",
". T yX9X1X>X}..XS.: ; % e 3 < < 6 < < 0 0 0 0 < 0 6 6 6 6 6 6 0 B p =.W.I.T._ a j i t u i z a y.!.l.1.z ' K.x.y.*.z 5.!.h.<.z ' I.m.j.' i & X +X XNX}.:XqXpX+X. ",
"  K xXzXyXuXiXuX6X: @ 2 P > 5 8 0 5 1 < 0 w 0 6 6 6 6 6 6 6 0 7 N p ;.!.5.@.;.;.-.<.6.6.6.+.z ..;...{ i ' T.x.y.*.z 3.Q.6.y.z ` P.x.u.` b * # 3XtXvXiXiXzXxXI X ",
"= K hXeXuXjXeXeXGX: @ 2 0 > 0 8 P e 0 5 < 0 4 0 6 6 6 0 6 6 6 6 M j -.!.[ ^ v./.T.T./.E.T.;.a l z i c p _ E.v.c.#.i 5.Q.h.y.z  .M.x.y.#.n * : qXeXeXaXgXhXeXI & ",
"  K lXlXFX<X3XwX3X@ @ 8 C , w 2 ~ R e 6 6 0 0 5 0 7 6 6 6 6 6 6 B f _ _.X.s v.m.m.7.7.6.x.8.<.x.l.y.y.( / @._ ` V p 3.!.h.d.c ..R.m.j.} b & + 2XwX7X5X4XsXlXI   ",
"  J gXtX}.<X>X>X@X# + r F 7 R R ~ R S e 6 4 6 5 6 6 6 6 6 6 6 0 g k $./.;.u z.I.<.<.d.i.s.v.T.W.M./.x._ / / ] p p l 1.J.J.>./ [ L.8.9.,.x + . }.,X#X$X@X3XgXU   ",
"  L jXtX#X-X,X,X%X$ o 4 R R R R R P w 6 6 0 0 6 6 6 6 6 6 6 6 6 N f -.E.o.a x.!.l.u.i.F.F.s.9.6.7.l.j.x.m.w.n.(.>.c | v v v p $.P.J.u.' l = $ }.OX@X,X>XqXgXU   ",
"  P kXtX#X*X*X5X@X@   e R Q R R e w < < 6 0 0 6 6 6 0 6 6 6 6 6 g p ;.U.;._ 5.8.y.:.r.F.^.^.s.<.i.p.f.H.W.D.M.R.;./ / / (  .f n B.u.p.{ p & @ |.4X$X-X%XqXkXU   ",
"  L jXtX&X$X$X%X@X%   R R ! P Z 0 < < < 6 0 0 0 6 6 6 6 0 0 7 6 B t ;.E.m.z.O./ v i b *.a.a.1.u.a.^.^.y.6.7.3.t.J.8.U.W.(.v.n h / l n m b * X |.%XnX$X>XqXkXU X ",
"X L jXiX#X$X#XnX<Xq 1 W R R 9 < 0 6 < < 0 0 0 0 6 6 6 6 6 6 6 6 N t ;.I.W.!.;.[ / z z { t.:.:.<.*.F.ZXi.t.s.V.f.^.k.B.B.B.h.[ [ _ _ ../ / u = &XMXnX$X#XqXlXU X ",
"  H hXiX>XOX,X>XBXP 3 E P S < < 6 0 6 0 0 < < 6 6 0 6 6 7 6 0 6 N t 5.0.L.W.m.m.x h a x s s z z m g.a.i.p.p.F.VXf.p.C.3.j.v.U.I.!./.E.X./ ^ g S.,X>XOX1X9XfXU X ",
"  D eXaX7XtXtXqXpXH 3 C e 7 7 4 6 0 6 0 < 6 6 0 6 6 6 0 0 6 6 6 N b ;.0.0.L.P.!.F.2.-.` x z z h h ` #.%.=.#.*.ZXs.p.>.:.g.F.c.n.x.B.v.;.o.[ B -XiX9XiX9XsXeXT X ",
"O H jXjXcXxXxXxXGXP > - w > 7 1 < 6 < < < < < 0 7 0 6 6 0 6 6 6 N g @.D.I.L.N.M.SX`.J...v z c h i c c ] / x ` p.d.j.1.J.VXVXF.y.j.,.l.J.E.} B pXeXlXhXcXlXhXU O ",
"X L hXvXFXBX6XFXFX; o 6 6 0 5 < 6 6 6 6 6 6 6 6 0 7 6 0 6 6 6 6 N b o.I.L.P.N.I.].).;.<.u...p ;.m.c m n ` ` c *.n  .` ( s.a.s.<.y.V.VXs.n.v n %X6X5X6X7XyXxXY X ",
"X L fXpXBX6XBXMX5X$ X 2 1 0 6 6 6 6 6 6 6 6 6 6 6 6 6 6 0 6 6 6 N j o.I.0.I.P.P.].).9.l.c.%.s 3.N.) n h x ..z j b h z v d.d.u.<.:.V.VXV.x.v t A.*X@X*X@X9XgXU X ",
"  P gXpXBXBXMX5X$X@ X 2 4 0 0 w 6 6 6 3 6 6 6 6 6 0 6 6 6 6 6 6 M k O.W.M.P.P.P.].).6.j.c.-.x h.!.<.2.h ) z.+.l n i x x n n  .c v :.G.s.v. .V &X,X%X4X>X9XlXY X ",
"X R gXpXBX5X$X@X$X# @ e 4 9 9 8 6 6 6 6 6 6 6 0 6 6 6 6 6 6 0 6 M y O.I.M.I.P.P.].).<.j.l.$.s j.Y.l.1.h _ Q.6.( n u ( _ i i v z j $.g.:.>.m M }.<X#X$X>X6XxXY   ",
"% ~ xXdXNX$X$X%X&X# @ e 0 3 5 6 6 3 6 6 0 < 0 0 6 6 6 6 7 0 5 6 M j o.I.M.P.N.I.].).9.j.l.$.s j.I.7.:.h _ R.x.-.#.l ;.h.( z z c h / n v ' = & Q ,XnX$X>X9XkXU   ",
"r Q xXpXnXOX$X%X@X+ o 8 1 3 0 6 6 6 6 6 0 < 0 < 6 6 7 6 0 6 0 6 M k o.R.M.P.P.P.].).9.j.b.$.a 6.!.8.d.v _ Q.T.l.&./ 8.E.=.` a z ) _ f h p & O &X,X%X,X<XqXlXY X ",
"r U fXtX#X=XOX$X@X@ X 8 < 6 0 8 6 6 6 6 0 0 0 7 6 6 0 0 6 6 7 0 M k o.I.M.P.P.P.'.).9.j.l.#.i 6.P.6.1.h ) B.m.<.V i 4./.3.:.v ' ~.4.v ( b O   +X2X$XOX@X9XgXU X ",
"S |.lXuXBX6X6X7X5X$ o 8 1 0 q 6 6 6 6 6 < 0 5 0 6 6 6 6 6 6 0 6 M j o.I.M.I.P.P.].'.l.j.b.$.z 6.Q.j.d.h ) E.m.<.&.x 5.!.h.<.x ` /.4.v ) V % @ OX6X5X6X7XtXlXY X ",
"O L hXhXdXlXlXhXpX, . 1 3 0 8 4 4 0 4 6 6 6 6 6 6 6 6 0 6 6 6 6 M k O.I.0.R.U.P.].[.e.B.F.*./ 5.I.h.p.a _ I.m.k.$.s 5.Q.h.y.z ` N.x.u.#.m & : pXhXcXlXcXlXhXU X ",
"X L hXzXwXiXiXyX6X: . 4 0 7 6 6 0 0 0 6 0 6 6 5 6 6 6 6 6 6 6 6 M j O.I.M.R.P.P.].].C.t.A n x 6.L.j.p.l ) I.m.h.%.x 5.E.6.y.z ' E.K.l.#.c & @ 3XyX9XiXqXsXhXU X ",
"X J hXiX1X;X@X1XOX# o 4 w 5 5 4 0 0 0 0 0 6 6 6 0 6 6 6 7 0 6 6 M k O.I.0.P.P.P._.CXp.r.R B i y.I.h.p.h _ P.m.z.$.x 5.E.j.y.c ` W.m.j.$.m * X :X1X1X;X1X9XhXY + ",
"X J hXyX}.$X#XnX@X+ O e 8 5 7 6 0 0 0 6 6 0 6 6 0 7 6 6 0 6 6 6 M j O.I.0.R.P.P.).CXr.~ #XW B d.L.h.p.i _ I.m.x.$.x 4.E.9.y.z ' L.z.6.{ n * X |.<XnX$X>X9XjXY X ",
"  H jXtX}.-X%XMX#X#   2 w q 0 6 6 0 6 0 0 0 6 0 6 6 6 6 6 6 6 6 M j O.I.0.I.P.P.AXCXB Q FXG.B i.L.h.p.l _ I.m.k.$.x 5.E.6.y.z ` U.m.h.' b * @ @X5X%X$X%XqXgXY   ",
"X L kXtX#X$X$X4X>X# O 4 0 q q 1 6 6 6 0 6 0 0 0 6 6 0 6 6 6 6 6 M j O.I.0.R.P.L.'.CX- Q UX! - a.L.h.i.z _ I.m.z.$.s 5.E.j.y.z ' I.K.x.' l & X }.*X%X*X@XqXkXU   ",
". L jXyX#X4X$X,X#X#   4 5 q w 1 6 6 6 6 0 0 0 0 6 6 6 6 6 6 6 6 M j O.L.0.I.P.P.].CX4 U UX! 3 a.L.h.i.z _ I.m.x.$.x 4.E.j.y.z ` U.P.x...b & X }.,X#X$X>XqXgXY   ",
". H gXtX.X%X@X#X@X+ o 3 , q 0 1 < 5 6 6 0 0 0 4 0 0 7 6 6 6 6 6 M j O.I.0.R.P.P.[.AXC T UX XC a.L.h.p.l _ R.m.x.%.x 5.Q.9.y.z ..U.m.n...m = + }.>XnX<X>XqXgXI X ",
"X D hXsXwXqXwXwX3X#   3 0 8 8 9 6 6 6 6 6 3 6 6 6 6 6 0 6 7 5 < N k O.I.M.I.N.P.SX`.{ r.A.! b 1.~.k.k.h _ Q.N.k.%.p 5.!.8.k.x | D.D.x.$.c O + 2XqXwXqXwXdXlXT O ",
"O J hXeXuXeXeXeXpX> O 1 9 2 6 3 6 6 6 6 6 6 6 6 6 4 0 6 0 6 6 6 N k O.W.M.N.U.L.`.].i.i.R e u l.E.w.h.h ( Q.N.v.$.i 5.!.7.b.z  .D.K.z.$.m O : wXeXgXeXsXhXeXI X ",
"X J hXfXqXuXiXuX6X: O 3 7 8 8 5 6 6 6 3 6 6 6 6 6 6 0 w 0 0 0 6 N k o.I.M.P.P.U.].].y.r.C C u 9.Y.n.h.l ( Q.B.x.%.i 5.!.x.b.x | D.N.k.' v & # 7XaXpXiXpXsXhXY X ",
"X H hX9X.XNX X.X*X+ O 3 q 8 4 > 6 6 6 6 6 6 6 6 6 6 0 0 w 0 w w M k O.R.M.P.P.P.].].>.r.Z Z i 5.Y.n.k.h ( R.N.l.%.i 5.!.7.k.z | 0.m.k.=.m & X +X>X.X<XNXwXxXU O ",
"X D gXyX>X$XOX,XOX@ O 4 q 8 8 > 6 6 6 6 0 0 0 0 6 6 0 w w 0 w 0 N k @.I.M.P.N.L.].].8.p.Z B l 6.Y.k.k.h ( Q.n.l.%.l 5.W.n.k.z  .P.K.x.=.n &   |.<XNX<X<XqXjXI . ",
"o D gXyX<X2X*X4X,X@ O 3 , 8 e , 6 6 6 6 < < 6 < 6 6 6 w w 0 0 6 M k @.I.M.P.P.P._.].v.p.4 M a 5.U.n.k.h ( Q.m.l.$.z 5.W.k.k.z | I.E.k.$.c * o @X2X$X2X<XqXjXU   ",
"X L gXpXnX%X&X#XOX@ O > , 8 e 9 6 6 6 6 0 0 6 6 6 0 0 0 6 6 6 6 M k O.I.M.P.P.L.].).y.i.C Z c ;.U.n.k.h | R.n.u.%.i 5.!.k.l.z | I.m.j.` j * . @X,X&X$X#X7XxXU O ",
". K fXyX#X$X$X%X@X% & 3 9 w 6 > 6 6 6 6 6 6 6 6 6 7 0 6 7 5 < < N k @.I.L.P.N.L.'.).b.i.0 Z ] 5.U.n.k.c | I.n.l.%.i 5.W.k.k.z ..K.K.l. .m =   |.5XmX-X>X9XjXI + ",
"  L kXyX#X$X$X>X@XX O M 2 7 5 9 6 0 6 6 4 0 6 0 6 6 6 6 6 6 6 6 M k o.I.0.I.P.L.].[.U.g.P B ^ 2.I.n.j.z ) E.x.9.#.d 7.E.9.<./ _ Y.J.<.#.n * X @X%XnXOX#X3XgXU   ",
"  H hXiX1X6X3X3X7X: . - 6 7 9 3 6 0 0 6 0 0 0 0 6 6 6 0 0 6 6 6 M k o.I.0.I.P.P.]._.m.r.P R ^ @.I.x.b.z ) E.w.8.&.a 7.T.6.:./ ` R.B.k.$.m & + 2X3X3X3X7XiXfXI X ",
"X J lXlXGXxXxXcXpX: + C 0 w 6 1 0 6 0 0 6 0 0 6 7 0 6 6 6 6 0 6 M k o.I.M.R.P.P.].`.x.r.C B ] 4.I.x.l.z ) E.m.8.%.s 7.E.j.y.v ' N.N.m.$.k O $ 6XlXcXxXdXxXhXY @ ",
"X J hXlXwXzXsXsX6X: + 3 7 0 5 1 6 0 6 6 0 6 6 0 6 0 6 6 0 7 6 6 M j @.I.0.P.P.P.].`.c.g.B M m C.I.m.b.z ) !.m.z.#.s 7.!.z.1.n ( N.N.m.=.b O $ 6XsXdXsXdXsXhXU   ",
"  H fXiX@X=X:X;X,X@   6 6 7 5 < 0 0 6 0 0 0 6 0 6 6 6 6 6 6 6 6 M k O.I.0.I.P.P.].'.a.W R 4 t 3.I.x.l.z _ !.m.8.%.a 7.T.j.1.m n ~.K.h...l & X $X;X:X=X1X9XfXU   ",
"  P xXtX}.$X&X<X#X% O N 8 5 9 3 6 0 0 6 6 6 0 0 6 6 6 0 6 6 6 6 M k O.I.0.R.P.P.'.).A ~ f.W g h.L.z.l.z _ Q.B.k.:.s 7.K.l.p.*.:.D.K.l...c * X |.MXnXOX#XqXxXY o ",
"X J gXtX#X$X%XMX#X@ O 4 6 5 9 3 0 6 6 0 0 6 0 6 0 0 6 6 6 6 6 6 M j O.P.M.R.P.P.'.ZXC ~ UX! C c.Y.z.j.z ) Q.m.k.%.s 7.Q.c.^.r.y.U.K.x...c *   |.MXmX$X#XqXgXU X ",
"@ L jXiX#X-X$X$X$X#   4 6 7 w 8 0 6 0 0 6 0 6 0 6 7 6 6 6 6 6 6 M j O.I.0.P.P.U.AXAXC Q UXQ : V.U.z.j.z _ W.m.7.:.s x./.H.s.*.#.L.N.x.{ c & . +X$X&XOX,X9XlXY @ ",
"X D jXtX#X*X$X,X#X# o 1 < 9 w 4 < 6 6 6 6 6 6 < 6 6 0 6 6 6 6 6 M j O.I.D.I.P.P.'.CX4 Q GXG.N a.T.h.t.n ) B.K.7.A ` J.).B.V.` ` N.Q.l. .k = @ @X5X#X*X,XqXkXY O ",
"X L jXyX>X,X%XNX@X+ o 4 6 q 9 1 6 6 6 6 6 6 6 4 6 6 6 6 6 6 6 0 M j o.I.M.P.P.I.'.CXB ~ FXA.B a.R.9.y.c ) Q.E.k.r.| J./.v.v.c ` N.B.x.$.m & X |.>XnX$X#X9XjXI . ",
"@ J hXiX1X3X2X;X4X$ . N 8 7 7 3 6 6 6 < 6 6 6 6 0 6 6 6 6 6 6 7 N j o.W.M.R.N.P.SX`.Z W mXW g a.I.9.>.z ) (.E.l.a.#.l./.v.b./ ` U.K.z.=.n & X ;X7X1X3X7XyXhXI   ",
"X J hXfXdXjXjXjXpX:   2 8 < 5 9 6 6 0 0 6 6 6 6 6 6 6 6 6 6 6 0 M j o.I.M.P.P.P.].'.g.W E Z f l.I.7.:.l ` (.(.v.s. .z./.k.C./ ` Y.x.h.} c O : 6XhXzXgXcXzXhXY o ",
"o L jXzXpXvXzXaXpX:   M 8 5 3 9 6 6 6 3 6 6 6 3 6 6 6 6 0 6 6 6 M j O.I.M.P.U.P.].).u.g.*.b p h.L.6.:.n ..(.(.^.d.v 6.!.k.h.c  .I.x.h.' b O $ 6XzXvXaXpXsXlXU O ",
"o L jXyX>X,X:X@X2X$ o 4 8 9 9 < 6 6 6 6 6 6 6 6 0 0 7 6 6 6 7 6 M j o.I.M.P.P.P.'._.l.y.p.t.^ 3.I.z.y.n $._.(.V.%.a ;.E.k.j.x ` U.m.h.{ m &   :X1X}.;X1X9XgXT o ",
"X D jXyXnXBXNXNX@X@   e 7 0 0 1 6 6 6 6 6 6 6 6 6 6 6 0 6 6 0 0 M j O.I.M.P.P.P.]._.9.l.V.y.s 3.Y.x.s.#.:.(.(.p.#.a ;.E.7.3.z  .D.m.l. .m & X |.nX X#X>XqXxXY @ ",
"@ J jXiX>X4X$X<X#X% o 1 > q 0 4 6 6 6 6 6 6 6 6 6 6 6 6 6 6 6 6 M j o.I.M.R.P.L.].).<.<.v.-.u h.E.H.^.&.t._.J.y.$.a 5.Q.k.y.z ` I.B.l. .k = X |.4X$X=X,XtXjXU X ",
"@ J jXyXNX<X#XnX#X@ O 4 5 5 6 8 6 6 6 6 < 6 < 0 6 6 6 6 6 6 6 6 M j o.I.D.I.P.P.AXAX9.k.m.-.a h.E.x.(.*.-./.x.<.*.l 5.U.6.t.' ` W.l.v n ^ p - A.%X7X.X X8XfX{.@ ",
"  H fXiX@X*X*X2X>X; O e 6 5 < 1 6 6 6 6 0 0 0 0 6 6 0 6 6 6 0 7 N j o.I.M.P.P.I.].).9.9.v.$.a j._.(.(.v z !.T.j.$.x 4.T.v.<.c ' P.5.( x / z b A.&X0X;X#X8XfXI o ",
". P gXtXnX$X#X#XOX$ O 4 8 6 9 3 6 6 6 6 0 6 6 < 6 6 7 6 6 6 0 6 M j o.W.M.R.N.P.'.).z.l.c.$.n H./.x.F.v _ K.k.k.} u 7.!.X.z h z ] @.k.x.9.` b V { &X,X}.6XgXY   ",
". H gXtX>X7X,X1X2X$ . N 8 w q 3 6 6 6 0 0 < 0 0 0 6 0 6 0 6 6 6 M k o.I.M.P.P.P.'.'.l.j.c.:.#.(._.k.y.v ' T.B.k.r.i 9.E._ c _ ) x @././.(.-.` d ^ %XwX<X9XxXU o ",
"  J hXhXdXlXeXhXpX: . N 8 S 0 > 6 6 3 6 6 6 6 < 0 6 6 6 6 6 6 6 M j O.I.M.R.P.P.'.).9.c.c.t.#.V.B.z.<.p ( E.3.d f x / _ z.T.k.N.J.8.k.,.<.1.>.] R aXhXsXzXxX{.  ",
"@ T hXhXdXlXzXzXpX: . 4 6 S q < 6 6 6 6 6 6 0 6 6 0 7 6 6 6 7 6 M j o.I.M.I.N.I.'.CX^.(.ZXs.#.j.Q.6.:.v ' x.7.' v X./ _ v.(.B.R.J.H.c.t.y.l.j.] Z bXlXsXzXxX{.  ",
"X H hXyX}.1X@X#X%X# . 1 7 q w e 6 6 6 6 0 6 6 6 6 6 6 6 6 6 0 0 M j o.I.0.P.N.I.AXAX(.ZX^.i.#.<.E.X.t t i / @.T._.K.I.E.y.d.c.,.>.s.ZXZXs.j.:.n { &X1X#XtXlX{.X ",
"X L jXtX}.$X$X5X@X# . e 9 5 0 8 6 6 6 6 5 0 6 6 6 6 0 6 6 6 6 6 M j o.I.M.R.K.E.AX_.^.V.i.#.x @.7...&.:.+.[ ;.(.w.q.q.K.v.s.s.y.j.f.G.G.{ >.-.A E $X,X&X8XgXU X "
};
