/* XPM */
static char *p1673087300[] = {
/* columns rows colors chars-per-pixel */
"40 40 203 2 ",
"   c #050404",
".  c #03040C",
"X  c #090709",
"o  c #0D0A0A",
"O  c #130C0B",
"+  c #0F160F",
"@  c #171609",
"#  c #020514",
"$  c #060A13",
"%  c #0A0A17",
"&  c #03061B",
"*  c #05091C",
"=  c #120E14",
"-  c #0F1415",
";  c #141213",
":  c #1A1717",
">  c #24160E",
",  c #221614",
"<  c #221C1A",
"1  c #291A18",
"2  c #19210F",
"3  c #1B2517",
"4  c #1F2914",
"5  c #222E15",
"6  c #2B251C",
"7  c #222D1B",
"8  c #273716",
"9  c #050B24",
"0  c #090F25",
"q  c #050D2D",
"w  c #0C1323",
"e  c #0A112C",
"r  c #131626",
"t  c #050E32",
"y  c #061034",
"u  c #0A1536",
"i  c #05123D",
"p  c #161D37",
"a  c #151D3D",
"s  c #1D2523",
"d  c #1F203E",
"f  c #202D22",
"g  c #332321",
"h  c #3B2A26",
"j  c #2D3D23",
"k  c #333726",
"l  c #4D1C31",
"z  c #4C382A",
"x  c #493B35",
"c  c #593E31",
"v  c #34451C",
"b  c #354C19",
"n  c #364A1C",
"m  c #3C4A23",
"M  c #3C5320",
"N  c #486B19",
"B  c #435C23",
"V  c #44413E",
"C  c #574233",
"Z  c #6A4839",
"A  c #734C3C",
"S  c #486626",
"D  c #4F6D29",
"F  c #516F2B",
"G  c #57792B",
"H  c #041342",
"J  c #06154B",
"K  c #091849",
"L  c #051652",
"P  c #081951",
"I  c #091B5B",
"U  c #242A44",
"Y  c #2F324E",
"T  c #292A58",
"R  c #061B61",
"E  c #091C64",
"W  c #041F6F",
"Q  c #091F6B",
"!  c #0D2269",
"~  c #142768",
"^  c #0B2275",
"/  c #0C257A",
"(  c #122779",
")  c #4B4948",
"_  c #58524D",
"`  c #6A4848",
"'  c #755746",
"]  c #7B6556",
"[  c #676963",
"{  c #845A46",
"}  c #87525A",
"|  c #936A57",
" . c #A06D57",
".. c #9B576F",
"X. c #93776A",
"o. c #A37660",
"O. c #E47559",
"+. c #C65C79",
"@. c #54811F",
"#. c #659D1D",
"$. c #68A11D",
"%. c #5B8525",
"&. c #5D842D",
"*. c #5D8331",
"=. c #618C2A",
"-. c #669D20",
";. c #68972D",
":. c #6C9935",
">. c #739E3B",
",. c #6BA423",
"<. c #6DA927",
"1. c #6EA42B",
"2. c #6FAB2C",
"3. c #70A72B",
"4. c #75AD2A",
"5. c #72AC2C",
"6. c #75B12F",
"7. c #79B22F",
"8. c #6FA131",
"9. c #75AD32",
"0. c #74A835",
"q. c #79AE34",
"w. c #76A53C",
"e. c #7BAD3B",
"r. c #75B231",
"t. c #7BB334",
"y. c #7EB937",
"u. c #7DB63A",
"i. c #7FBA3B",
"p. c #779E46",
"a. c #77A341",
"s. c #7BAB41",
"d. c #7EB840",
"f. c #80B635",
"g. c #81B63D",
"h. c #84BC38",
"j. c #83BC3C",
"k. c #86C13E",
"l. c #8AC33D",
"z. c #85BD42",
"x. c #89BE43",
"c. c #88B74F",
"v. c #AA8574",
"b. c #BB8972",
"n. c #C38D73",
"m. c #CC937D",
"M. c #86C242",
"N. c #8BC444",
"B. c #8DC946",
"V. c #8DC54A",
"C. c #8ECA4A",
"Z. c #90C747",
"A. c #92CA46",
"S. c #91C64A",
"D. c #92CB4B",
"F. c #98CD4A",
"G. c #94D04D",
"H. c #9BD24E",
"J. c #8EC752",
"K. c #8EC850",
"L. c #94C751",
"P. c #95CD52",
"I. c #98CE55",
"U. c #96D152",
"Y. c #9AD254",
"T. c #9DD956",
"R. c #97D05A",
"E. c #9CD459",
"W. c #9FD95A",
"Q. c #A0D856",
"!. c #A1D65C",
"~. c #A3DB5C",
"^. c #9FD863",
"/. c #A5DC62",
"(. c #A9DF64",
"). c #ABE364",
"_. c #ABE668",
"`. c #B4EA6F",
"'. c #0D2883",
"]. c #0D298B",
"[. c #122B8D",
"{. c #0D2B92",
"}. c #25358C",
"|. c #223591",
" X c #283996",
".X c #2A3C9B",
"XX c #454781",
"oX c #D3588B",
"OX c #CF6C8C",
"+X c #E76C98",
"@X c #FB71B3",
"#X c #979695",
"$X c #ABA8A8",
"%X c #C69E8A",
"&X c #E68587",
"*X c #E69D85",
"=X c #D1A592",
"-X c #E8A790",
";X c #EAB39A",
":X c #EC91A0",
">X c #F2B5A9",
",X c #F3B7A9",
"<X c #F3C4AD",
/* pixels */
"F.F.f.#.,.h.F.x.M.S.D.x.u.M.D.C.V.B.V.A.N.l.Z.D.G.h.$.t.B.l.S.B.B.M.B.M.M.2.B.l.",
"l.H.A.h.h.Z.F.x.D.N.x.4.1.i.K.C.N.B.B.N.N.D.F.S.N.D.N.k.j.N.G.F.M.G.B.i.r.2.B.B.",
"h.F.F.A.F.Z.j.Z.A.N.V.M.j.N.K.C.D.S.h.5.4.M.A.B.N.S.G.N.M.N.k.y.M.G.B.i.r.k.G.k.",
"F.F.N.l.F.F.A.F.M.V.E.~.Y.P.C.C.).Q.M.5.r.N.D.D.B.h.H.D.S.l.<.5.M.B.M.G.B.G.G.i.",
"F.j.f.f.x.A.j.x.N.V.Y.E.V.i.z.N.w.B j f s j M G z.B.~.~.D.k.7.k.B.B.B.G.B.G.B.B.",
"x.g.4.f.A.x.q.4.N.N.P.Y.z.9.0.B U ~ / '.].'.! w 4 :.H.N.N.F.N.A.B.M.G.B.r.r.i.G.",
"F.F.Z.S.H.L.j.h.N.M.U.W.V.u.S XX XW R L L H y y q - @.t.N.S.D.N.M.B.T.M.r.r.i.G.",
"x.x.x.x.Z.Z.Z.S.P.V.P.E.C.N.f T a a T T T d w # 9 9 8 k.F.h.N.D.B.M._.G.C.C.C.M.",
"F.c.F.x.L.L.F.Z.1.#.S.x.A.*.s T }. X X}.|.|.[.I * . 5 M.N.B.D.G.C.B.k.k.B.M.r.<.",
"f.g.j.x.x.x.g.L.q.q.S.S.F Y .X[.E t & # # & 9 P J 9 + w.D.l.7.,.k.B.B.B.B.k.r.2.",
"g.-.x.`.4.4.L.x.M.V.D.:.Y .XR * X , g ;   g > X . q t 4 g.g.r.7.B.G.C.B.B.M.M.G.",
"g.x.L.(.g.g.g.~.P.E.V.k  XI ; : X = 1 o o : O X O o y 0 D l.k.S.l.C.C.M.M.B.B.G.",
"g.!.L.!.I.L.g.(.E.P.w.d ^ . g o | A 1 A b.Z { A   O 0 a 5 M.N.G.N.G.G.B.G.C.M.N.",
"L.!.L.!.I.!.L.x.C.x.=.u e > O ] o.x n.;X,XZ Z ;XC O : 0 : C.S.N.S.D.k.t.l.C.D.D.",
"L.(.c.g.(./.g.L.N.x.;.$ : m.h :X` X %X,X<Xg O +X&Xz o.= 8 E.D.h.N.k.7.,.r.N.V.D.",
"L.f.8.f.c.F.!.L.V.V.g.n $ _ > oXOX} *X-X-Xv...@X+.6 x . F S.U.~.S.D.M.j.V.G.V.x.",
"C.M.z.z.M.E.~.P.D.N.U.w.+ * * l +X>X*XO.*X<X,XOXz & & 5 w.V.E.E.V.z.V.P.z.t.z.V.",
"C.C.C.B.N.V.M.r.t.V./.E.p.3 9 * g X.%X%X=Xb.{ 1 9 9 7 c.P.S.x.P.`.Y.c.z.0.0.i.P.",
"C.U.U.C.C.B.u.2.t.V.I.x.z.a.m $ # $ = h r ; % * = M c.U.V.V.e.V.P.N.D.U.C.N.V.S.",
"C.C.M.i.C.J.N.N.P./.I.x.N.P.F u # & q h y q * R 3 0.Y.P.9.8.N.`.S.D.E.Q.U.S.A.B.",
"M.M.r.6.M.C.V.U.z.V.V.P.!.>.p H q t &   0 q q P P G U.Y.u.2.J.Y.r.k.H.T.F.l.l.l.",
"C.M.y.y.M.C.V.B.D.D.D.W.Q.v ! * R / &   * / ! & E f t.V.P.N.C.#.,.t.B.B.y.l.l.l.",
"G.B.M.B.N.B.V.N.D.V.z.z.=.u / & ( {.i > H ].'.* K w 8.N.N.x.P.N.A.F.A.7.$.4.l.l.",
"B.k.C.G.B.N.U.D.M.S.D.V.N P E w |.{.H   i {.{.t . . &.P.V.V.V.V.k.D.Y.l.7.l.A.l.",
"M.B.B.G.G.l.i.k.D.g.N.Y.F % r r ! W &   9 J J # ' c F P.V.N.Z.V.P.9.9.N.N.V.G.l.",
"C.C.B.B.k.6.<.i.H.D.B.N.k %Xn.= t t t t . # # ; ;X .B h.3.q.x.S.L.0.1.i.D.P.S.g.",
"l.B.G.C.B.k.k.B.N.B.x.M.m X. .q {.'.t J Q I H = x m s.g.5.y.N.D.V.V.D.P.C.z.z.P.",
"C.C.l.l.B.M.k.l.t.,.t.S.e.G m & Q ^ q # ].{.J   %.u.D.S.x.V.N.x.u.V.z.x.V.g.9.y.",
"B.B.k.k.l.B.C.G.j.7.M.D.j.x.g.8 $ * $ $ i a = N q.j.D.D.Z.A.l.5.#.M.D.V.j.5.3.Z.",
"k.B.G.G.G.C.l.l.N.D.F.B.I.D.x.z.2 C > &.5 z @ w.D.D.D.S.M.Z.V.y.D.H.B.B.~.Q.l.h.",
"l.G.B.l.B.l.6.$.h.N.Z.Z.F.Z.l.S.n ) < 3.B ) ) G D.V.N.B.N.A.A.N.A.T.H.F.H.F.l.A.",
"G.l.<.<.l.T.C.y.A.Z.~.~.V.Z.E.N.F #X_ :.z.[ $XB t.r.k.D.V.N.N.l.l.F.l.h.h.l.l.Z.",
"B.B.r.k.l.).Q.D.).).Y.Y.N.V.u.D 2 _ m *.C.: V 2 @.r.M.i.6.r.i.C.T.C.-.,.Q.I.f.A.",
"B.G.l.B.N.E.~.~.M.N.u.z./.g.#.v o X # :.N.+ o o n M.C.y.2.i.C.~.).M.t.z.Q.Q.F.x.",
"G.B.l.G.Q.).Y.S.g.-.5.N./.x.j.w.M M *.N.V.&.b M a.B.B.M.M.C.i.u.S.x.x.P.I.A.V.x.",
"k.B.G.G.S.S.Z.Z.).N.N.V.D.D.U.M.u.M.C.C.M.r.1.9.C.j.M.C.U.K.2.<.M.Y.P.I._.Y.j.I.",
"B.G.Z.t.4.g.S.D.!.(.x.z.V.I.V.P.V.C.V.M.V.i.i.N.C.V.K.M.d.z.d.K.x.S.g.z.I.S.z.x.",
"D.C.j.3.f.S.P.x.t.q.e.V.V.P.S.P.U.M.r.u.V.P.J.L.M.K.J.9.2.M.J.J.P.V.F.L.q.e.L.I.",
"z.S.E.M.x.x.D.L.x.3.z.I.z.x.P.z.C.z.9.r.M.J.V.V.K.K.V.d.z.R.J.d.V.j.I.S.,.3.V.L.",
"Y.V.D.V.I.D.P.S.I.V.L.x.R.L.R.I.R.R.R.J.E.J.V.P.J.K.R.^.^.R.J.R.P.I.F.S.E.P.S.I."
};
