/* XPM */
static char *_37a2b3b41824c3ba7db8bd3de544f11cjr0fMo3wTFXXOR0[] = {
/* columns rows colors chars-per-pixel */
"40 40 230 2 ",
"   c #050302",
".  c #0C0502",
"X  c #070903",
"o  c #0D0A03",
"O  c #170B05",
"+  c #061203",
"@  c #111406",
"#  c #1B150A",
"$  c #250C04",
"%  c #360201",
"&  c #2A1705",
"*  c #361600",
"=  c #351C07",
"-  c #3B1C05",
";  c #281C12",
":  c #17200A",
">  c #1D240E",
",  c #28280A",
"<  c #34230A",
"1  c #2A2616",
"2  c #382818",
"3  c #1E1F20",
"4  c #490604",
"5  c #5D0505",
"6  c #4E1408",
"7  c #451E13",
"8  c #660C04",
"9  c #6D0D0B",
"0  c #750703",
"q  c #7D0E06",
"w  c #730D0A",
"e  c #7A0F09",
"r  c #66150C",
"t  c #6C110C",
"y  c #73100C",
"u  c #7D110A",
"i  c #691710",
"p  c #671811",
"a  c #7B1811",
"s  c #49260A",
"d  c #552B0B",
"f  c #5C330D",
"g  c #592E13",
"h  c #4C3611",
"j  c #53351C",
"k  c #5A361C",
"l  c #66350C",
"z  c #652D15",
"x  c #6A2A16",
"c  c #732714",
"v  c #693417",
"b  c #773812",
"n  c #553B27",
"m  c #6E2E26",
"M  c #2E4316",
"N  c #3B501C",
"B  c #256E1E",
"V  c #79560B",
"C  c #6A471D",
"Z  c #744E12",
"A  c #5D691F",
"S  c #676D1E",
"D  c #52442A",
"F  c #445B21",
"G  c #6D472F",
"H  c #6A5724",
"J  c #775433",
"K  c #476423",
"L  c #5B7426",
"P  c #636C24",
"I  c #6E6D2B",
"U  c #6B742B",
"Y  c #6A7A2C",
"T  c #717E30",
"R  c #7D6149",
"E  c #64666A",
"W  c #820F07",
"Q  c #870D07",
"!  c #930401",
"~  c #940D05",
"^  c #9A0E05",
"/  c #871006",
"(  c #8B1106",
")  c #821209",
"_  c #8B1209",
"`  c #931106",
"'  c #951209",
"]  c #9B1309",
"[  c #99170A",
"{  c #831B11",
"}  c #931C12",
"|  c #A4130A",
" . c #AB130B",
".. c #AB150D",
"X. c #AC180F",
"o. c #AD1D14",
"O. c #9E281B",
"+. c #A92117",
"@. c #B32219",
"#. c #83342A",
"$. c #B62D23",
"%. c #AE3328",
"&. c #B63327",
"*. c #BA352B",
"=. c #BC3F33",
"-. c #884C13",
";. c #9A6C0E",
":. c #9D6E15",
">. c #AC751D",
",. c #8B4738",
"<. c #95483A",
"1. c #865D36",
"2. c #AA4428",
"3. c #AE4A33",
"4. c #BD4739",
"5. c #9A6932",
"6. c #A67727",
"7. c #BA7C2F",
"8. c #A0693B",
"9. c #814E45",
"0. c #9A5E44",
"q. c #B05540",
"w. c #906C52",
"e. c #B26E4A",
"r. c #A67447",
"t. c #B17560",
"y. c #C14D40",
"u. c #C45547",
"i. c #C27B4B",
"p. c #C96456",
"a. c #649C1D",
"s. c #68A11D",
"d. c #6B9028",
"f. c #668D33",
"g. c #748935",
"h. c #6C9937",
"j. c #729E3D",
"k. c #799939",
"l. c #6CA424",
"z. c #6DA429",
"x. c #6EAA2A",
"c. c #71A52C",
"v. c #75AD2A",
"b. c #73AC2C",
"n. c #76B12F",
"m. c #79B22F",
"M. c #6DA331",
"N. c #75AC32",
"B. c #79AF34",
"V. c #74A43A",
"C. c #7CAC3C",
"Z. c #7CB335",
"A. c #7AB534",
"S. c #7EB53B",
"D. c #7EBA3A",
"F. c #5E8D55",
"G. c #668844",
"H. c #72A74B",
"J. c #7FB540",
"K. c #809B3F",
"L. c #B28326",
"P. c #81AB3E",
"I. c #80B635",
"U. c #81B63D",
"Y. c #84BC38",
"T. c #84BC3D",
"R. c #C29439",
"E. c #86C13E",
"W. c #8AC33D",
"Q. c #81B442",
"!. c #85BD42",
"~. c #89BE43",
"^. c #8AB049",
"/. c #938067",
"(. c #BB8B6D",
"). c #8FB77A",
"_. c #C38248",
"`. c #D08C52",
"'. c #D2925A",
"]. c #C3946E",
"[. c #D99A68",
"{. c #C89B73",
"}. c #D29F76",
"|. c #D7A26E",
" X c #D8A375",
".X c #EBB07C",
"XX c #86C242",
"oX c #8BC444",
"OX c #8DC945",
"+X c #8DC54A",
"@X c #8ECA4A",
"#X c #92CA46",
"$X c #91C64A",
"%X c #91C949",
"&X c #95CB49",
"*X c #92CB4C",
"=X c #95D04D",
"-X c #9BD24E",
";X c #8EC752",
":X c #94C452",
">X c #95CC52",
",X c #99CE55",
"<X c #96D152",
"1X c #9BD254",
"2X c #9CD35A",
"3X c #9AD458",
"4X c #A0D856",
"5X c #A1D65C",
"6X c #A2DA5B",
"7X c #9FD863",
"8X c #A5DB62",
"9X c #AADF65",
"0X c #ABE364",
"qX c #B2E66C",
"wX c #ADABA9",
"eX c #D6AF8C",
"rX c #DFB38E",
"tX c #D9B993",
"yX c #E9B487",
"uX c #F0B98B",
"iX c #E8BC94",
"pX c #EEC599",
"aX c #F8CA99",
"sX c #F8D3A6",
"dX c #FBD6AA",
"fX c #FDDAAD",
"gX c #FEDBB1",
"hX c #FEE4B8",
"jX c #DBD2CB",
"kX c #DAD3D6",
/* pixels */
"&X&XI.a.s.Y.&X#XoX+X%XT.S.XX@X@X@X+XOX#X+XW.oXP.I Y.a.Z.#XE.%X+XoXoX+XXXE.v.W.W.",
"#X-X&XY.Y.&X&XT.%XoXT.A.x.D.;X*XoXoXoXW.T.%Xk.C a ~.~.T.T.oX=X&XoX*XOXT.v.b.OXOX",
"Y.&X&X&X&X&X~.T.$X+X+X~.T.+X>X@X%X%XU.z.b.Y c w x ~.:X~.T.oXT.Z.E.*XXXE.n.E.OXE.",
"&X&X#XW.&X&X&X-XW.+X2X5X,X@X@XXX0XK.P A P p ) ) p P U T U U l.b.XX+XXX=XOX1X=XE.",
"-XT.P.I.$X#XT.T.oXoX,X2X+XS.!.oXg.c u e e w u W w e e e w 9 A I j.oXXX<XOX<XOX@X",
"~.Y.v.I.$X~.I.v.oX~.>Xg.U A L U u ) _ ] ' ] ] ] ' [ ] ] ` t w w v g.@XoXx.n.D.<X",
"&X&X~.&X1X&XT.I.~.P.U y w e e 9 / / ]  . . . . . . . . . .' ] u 9 p g.XXn.n.D.@X",
"~.~.&X~.~.$X~.$X^.H ) ` ' ` u w u e W ' | ]  . . . . . . . . .| W 9 p L J.@X@XXX",
"-X~.&X~.$X*X>Xg.z W [ &.=.o.~ ' w w 9 9 e e _ | | | ]  . . .| X.+.} y 9 g.!.b.x.",
"P.I.^.~.+XT.U.x W | $.p.p.4.$.o.[ ' ^ ! 9 9 0 q 0 e e (  .@.@.4.u.4./ y H h.n.x.",
"P.a.~.qXc.N.+Xz _ @.*.4.4.u.p.y.=.*.$.o.} o.a 9 9 w 9 w { %.%.4.u.4./ t 9 C !.@X",
"U.~.&XqXQ.S.J.v _ |  .&.&.$.*.y.u.u.q.*.*.*.o.~ ' ' ' / w q q ~ | ' / y r C oX<X",
"U.5X&X8X:X>XQ.x e '  . . . . .o.o.o... . .|  . . .....] W 5 5 q ~ / / ` e C XXXX",
":X5X,X8X,X5X;Xz e '  . . . . . . . . . . ... . .] 0 0 e a <.9.{ 0 q ( ) x I %X%X",
":X9X^.U.8X8XP.x e '  . . . . . . . . . . .| | ~ e <.,.#.t.gXhXt.#.#.r 9 A oX+X@X",
"1XB.c.Z.~.,X2Xz e '  . . . . . . .| |  .| ~ W a <.eXiXrXiXgXgXgXfX].  f g.=X+X~.",
"@XXXXX!.~.2X^.x u ` |  . . . . .| ^ 0 8 ) ) 0 <.yX9.n G eXpXsXsXaX(.X J.!.N.!.oX",
"@X@X@XoXU.T y u / W (  . . . . ._ q 6 ; 4 9 ! 4.yXwX3 E jXeXyXyX|.1., V.N.M.U.>X",
"@X<X*X@Xg.x z g p 9 (  . . . . .^ O D '.1 } ^ 3.pXkXD + n uXeXuXw.: @X1X@XoX+X%X",
"@X@XXXD.*X*XXXXXH y / |  . . . .' % n  XyX+.! =.iXkXF.B G.uXuXuXw.> 3X6X<X%X%XOX",
"XXoXn.n.XX@X+X>XH e / / |  . . .Q ` 4 2 yX$.! 4.pXjX).H.wXfXsXhX/.> =X-X#XW.W.W.",
"@XXXA.A.XX@XoX+XI c / / ]  . .| _ / 0 c yXO.! u.hXsXhXfXsXfXsXhX/.: W.OXY.W.W.W.",
"@XOXOXOXOXOX@XXX$XT y ) / ] | ( ( 0 m 0.i.$.[ 8.hXfXfXfXfXsXyX'.H 2 #Xm.s.v.E.W.",
"OXE.@X=XoXOX>X+X~.k.x r q ' | ( q 5 ,.].,.i.>.R.sXdXfXfXpX{._.D F +X=XW.A.W.#XW.",
"oXOXOX=X<XW.D.E.*XT.C.t W / / w O . o ; r.,.a 2.|. X}.[.5.; k g.:XN.N.XXoX+X*XoX",
"OX@XOXOXE.x.x.D.*X*XQ.p u ` 8 . $ < 6 $ o d 8 q.sX0.1 4 b c.S.oX>XN.z.D.*X>X*XT.",
"OX@X@XOXOXD.E.OX~.+XC.p W ` 8   - d s & #   * 0.sXsXw.7 , M.+X*XoX;X;X,X*X~.~.*X",
"OXOXOXW.OXOXE.W.A.l.z.p W / 5 # e..XR # {.3 s -.L.sX[.7.Z @ J.!.S.oX!.~.+XS.b.S.",
"OXOXE.E.W.OX@X=XT.n.C.r ) 4 < _.|.fX/.X n d b -.-.:._.L.V o B.b.a.XX>XoXT.v.z.#X",
"E.=X=X=X=XOXOXW.XX$XP.r / % # 8.6.8.n     s l l Z l - d f 2 U.A.#X-XOXOX6X6XW.T.",
"OXOXW.W.OXW.n.a.S.k.c i a $ # 6.f d = o o # 2 n j j $ O $ @ C.oX#X4X-X#X-X#XW.#X",
"=XE.x.x.W.4X@XA.>XoX:X^.Q.F & 6.f . D  X].eXrXtXrX}.2 $ 7 O @ f.W.&XW.Y.E.W.W.#X",
"W.OXD.E.oX0X4X#X0X0X3X1X~.K & 6.5.; O j j j j j n g V Z m m @ f.>X+Xa.z.4X1XI.#X",
"W.=XOXOXoX1X4X0XoXoXZ.!.8XK 2  X`.2   * s $ * & & d ;.C O : H.>X0XXXB.~.2X4X&XoX",
"=XOXE.=X4X9X1X$XD.a.x.~.8XS.f.1 < s = = s 6 s h < b ;.S V.V.J.S.*X!.~.>X-X$XoX~.",
"XXOXOX=X+X%X%X%X0XoX+X+X$X+XH.  o O & = . n (.{.1.}.L.d.<X@Xx.l.~.1X>X1X0X2XT.1X",
"OX=X%XB.v.U.$X$X5X9X+X!.+X,X!.H.> X N f.X j J J n J < K Z.U.J.@X~.+XU.T.,X$XU.+X",
"*X@XT.c.Z.%X>X~.Z.B.N.+X~.>X$X$X@ K z.Z.h.> # s V = # @ M ~.;X>X,XoX>X$XB.Z.:X,X",
"T.$X2X+XoX~.*X>X~.c.Q.3X!.~.:X!.H.B.N.N.XXV.h.j.C.H.j.f.h.;X;XJ.oX~.,X*Xz.z.+X>X",
"1X$X*XoX,X$X>X$X,X+X:X~.2X:X2X,X3X3X;X>X3X>X+X>X>XoX>X7X7X3X;X2X>X,X$X:X3X,X:X>X"
};
