/* XPM */
static char *_92dcaa0e61b4431d4695095510a6211KlBOltA94I3qOHwN[] = {
/* columns rows colors chars-per-pixel */
"40 40 209 2 ",
"   c #2B0906",
".  c #320706",
"X  c #2C1B06",
"o  c #2D1408",
"O  c #381804",
"+  c #291E13",
"@  c #28230A",
"#  c #36220E",
"$  c #2C2612",
"%  c #3C2515",
"&  c #343515",
"*  c #4C1A07",
"=  c #5C190C",
"-  c #650D0B",
";  c #6C0D0B",
":  c #700F07",
">  c #7D0E07",
",  c #740E0A",
"<  c #7C0E09",
"1  c #62120B",
"2  c #6C110D",
"3  c #671A0D",
"4  c #75110B",
"5  c #7C100A",
"6  c #731C0D",
"7  c #7C1E0E",
"8  c #691B11",
"9  c #741B10",
"0  c #422304",
"q  c #49290D",
"w  c #483209",
"e  c #552E17",
"r  c #513C17",
"t  c #78240F",
"y  c #653C0B",
"u  c #7C370D",
"i  c #682515",
"p  c #652D14",
"a  c #7A2712",
"s  c #742B13",
"d  c #623318",
"f  c #6D3318",
"g  c #673C1C",
"h  c #6B3B19",
"j  c #733218",
"k  c #723C1D",
"l  c #4D3E22",
"z  c #5A3E22",
"x  c #395613",
"c  c #4F471C",
"v  c #5D531C",
"b  c #7B4D0E",
"n  c #7D570B",
"m  c #644D16",
"M  c #6B451D",
"N  c #6B481E",
"B  c #784A1A",
"V  c #69571C",
"C  c #557217",
"Z  c #6A4A27",
"A  c #764420",
"S  c #754D23",
"D  c #695724",
"F  c #675923",
"G  c #745422",
"H  c #795625",
"J  c #614933",
"K  c #4D6224",
"L  c #4B6725",
"P  c #566927",
"I  c #57772A",
"U  c #5D7331",
"Y  c #6A6426",
"T  c #626E23",
"R  c #75692A",
"E  c #6A7529",
"W  c #74772C",
"Q  c #7B6831",
"!  c #607C30",
"~  c #747A32",
"^  c #850F06",
"/  c #880F06",
"(  c #820F08",
")  c #940F05",
"_  c #861006",
"`  c #8B1106",
"'  c #831109",
"]  c #8C110A",
"[  c #921107",
"{  c #951208",
"}  c #9B1209",
"|  c #A90F07",
" . c #A4130A",
".. c #AB130B",
"X. c #AE1B12",
"o. c #9E251A",
"O. c #AA2217",
"+. c #AD2218",
"@. c #B02017",
"#. c #B1231A",
"$. c #B42B21",
"%. c #B73329",
"&. c #B8362B",
"*. c #B9392F",
"=. c #80480F",
"-. c #885710",
";. c #88630A",
":. c #885C3A",
">. c #BC4135",
",. c #BD4539",
"<. c #896020",
"1. c #88623F",
"2. c #C0493D",
"3. c #886040",
"4. c #996447",
"5. c #B3794B",
"6. c #C14F42",
"7. c #C35345",
"8. c #C5594B",
"9. c #CA6556",
"0. c #659C1B",
"q. c #5A8427",
"w. c #628E2D",
"e. c #74832D",
"r. c #798429",
"t. c #718C2F",
"y. c #749C2D",
"u. c #678635",
"i. c #6D8E30",
"p. c #798535",
"a. c #768A33",
"s. c #7C8C35",
"d. c #659330",
"f. c #759336",
"g. c #7A9237",
"h. c #769C35",
"j. c #7C9E39",
"k. c #6CA324",
"l. c #6DA927",
"z. c #6DA42B",
"x. c #6FAA2C",
"c. c #70A72B",
"v. c #72AA2B",
"b. c #76AD2B",
"n. c #74B12F",
"m. c #74A133",
"M. c #76AD32",
"N. c #79AF34",
"B. c #79A43A",
"V. c #7CA53B",
"C. c #7EAB3C",
"Z. c #75B230",
"A. c #7CB335",
"S. c #7EB33C",
"D. c #7FBB3C",
"F. c #7FB940",
"G. c #83963B",
"H. c #81A53C",
"J. c #81AE3E",
"K. c #80B635",
"L. c #81B63D",
"P. c #84BD3D",
"I. c #88BF3D",
"U. c #86C13D",
"Y. c #8AC33D",
"T. c #829D42",
"R. c #BB8454",
"E. c #89AB47",
"W. c #82B743",
"Q. c #85BC42",
"!. c #89BE43",
"~. c #8EB753",
"^. c #BC9169",
"/. c #CC905C",
"(. c #D19561",
"). c #D7A273",
"_. c #E5A977",
"`. c #86C342",
"'. c #8BC444",
"]. c #8DC946",
"[. c #8DC449",
"{. c #8ECB4A",
"}. c #90C747",
"|. c #92C946",
" X c #91C64B",
".X c #91CA49",
"XX c #93CB4C",
"oX c #92CD4D",
"OX c #95CD4C",
"+X c #98CD4A",
"@X c #95D04D",
"#X c #9BD04D",
"$X c #8FC451",
"%X c #8EC850",
"&X c #96CC52",
"*X c #97CB57",
"=X c #99CE55",
"-X c #96D152",
";X c #9BD255",
":X c #9CD856",
">X c #9CD35A",
",X c #A0D757",
"<X c #A1D65B",
"1X c #A2DB5B",
"2X c #9ED763",
"3X c #A7DB63",
"4X c #A6E562",
"5X c #ABE365",
"6X c #B1E56B",
/* pixels */
"+X+XK.0.k.I.|.Y.'.[..X`.A.`.{.[.[.]..X[.'.'.]..X@XP.0.A.[.U..X].].'.].'.I.l.].Y.",
"Y.#X+XK.I.}.|.!..X].Q.M.z.D.%X{.'.].].'.'..X.X.X'.G.V t.U.].@XOX'.@X].L.n.v.|.Y.",
"I.|.+X|. X}.I.}.[.'.[.'.P.`.&X{.oX.XK.v.b.I.}.}.s.f d t.I.].I.A.`..X`.D.Z.U.|.U.",
"+X+X}.Y.+X+X|.+X'.[.;X>X-X&X{.[.5X:XY.A.A.'..Xs.s 5 j f.[.`.l.v.`.{.`.@X].;X@XU.",
"+XI.K.K.}.}.I.I.'.[.;X>X[.L.`.[.-XG.N N N N M s ' ^ k T..XP.M.`.{.`.{.:X].-X`.{.",
"!.L.b.K.}.!.N.c.'.H.~ D v v T V.W t 5 5 ' 5 ' ] { { 7 M F s.].].].`.{.].n.Z.D.-X",
"+X X!. X;XXXI.L.H.D i 4 ' ] a M s ] } } } }  . .....{ ' 5 j p.P.`.`.:X`.n.n.D.oX",
"I. X}.!.}.[.'.}.G.i 4 ' }  .' , ]  ................... .[ ^ j F w.D.4X{.{.{.{.`.",
"+X X X!.[.&X&XH.m 6 _ [  .} ( , { ................| ..&.>.o.] 5 t G m.`.{.`.Z.l.",
"H.K.K. X[.F.t.Z 4 _ [  ...} ( , } ....| | ..| ..X.#.*.8.9.,.O.{ _ 4 N h.`.D.Z.x.",
"L.0.!.6Xc.y.Q 2 4 { @.X... .^ , ] ..X.#.#.#.$.&.>.7.8.6.,.>.$. .] 4 : H `.`.`.{.",
"L.!.~.5XS.i.N 5 { +.2.*.X.} ^ ; 5 } +.&.&.*.,.7.7.7.,.*.&.#.X. .{ / < Z B.Q.{.-X",
"I.<X X<XE.S ' { ..X.%.2.%. .' : 5 ] } ..........@.*.&.X...........{ , 1 S C.`.'.",
"*X<X*X3XE.S 5 { ..........} [ ` [ } ................................] ; h j.[..X",
"$X3X!.L.~.H ' } ....................................................{ < ; h g..X",
"*XN.y.N.G.S 5 { ....................................................{ / < f p.I.",
"{.`.Q.P.j.S ( { ....................................................} 5 ; 1 p p.",
"{.{.[.H.M 8 5 { .................................................... .] - 2 i ~ ",
"{.-XG.h 2 4 / { ......................................................{ k Y Z W ",
"{.{.W i 5 ] ` { ....................................................} ' S H.V.J.",
"'.e.p ; , , ( { ....................................................} 5 B H.Y.Y.",
"{.h.T P Y f , ( } ................................................{ ' , M y.Y.U.",
"{.].].].L.a.g : / } ............................................ .[ > p C k.Y.Y.",
"].U.]..X'.W.R < ^ `  . . ............................... . .......[ 5 H b.I.].Y.",
"'.].Y.@X-XS.V 4 _ [ } { } ...... . .....................{ { .... .[ 5 G S.].@X'.",
"{.{.{.].U.k.V 4 < [  .{ } .... .{ } .................. .{ { .... .] 5 G [.&X[.P.",
"].].{.{.].A.E p , ` { [ } .... .) } ....................} { ....] ( < M s.S.!.oX",
"].{.Y.Y.].'.P.W = > / ] } | ....{ } ...... . .} { .... .{ {  .} / ; i e D B.v.S.",
"].{.Y.U.'.{.].I o 3 5 / {  ... .{ } ..|  .) { } { .. .{ ^ ^ ^ ` / 9 R '.P.v.l.Y.",
"U.{.@X.X@X].D.L w B t , / { } [ ` } } {  .{ } } { .. .[ , - ; ^ / 6 R [.1X,X'.U.",
"Y.@X].U.'.S.x w <.A 8 - , / / / ` } } { } { } } / [ } ] 2 = p 2 : O I |.#X+XY.|.",
"@XY.l.l.`.[.L J ).^.3.% . , / / ` } } {  .{ } { _ ` _ 2   % 1.4.f o L K.U.Y.Y.}.",
"].].A.D.'.>XL z (._.R.l   , ( ; ; < ` {  .[ _ > ; : ( -   l /.).5.r x k.,X;XK.}.",
"Y.@X].{.'.;X$XU + + $ K Q , > ; - > / ] ] / _ > - ; 5 6 v K + + & U c.Q.;X<X+X].",
"OX].U.@X<X5X;XW.d.C q.F.*XY 1 * * 1 > _ ` ^ , 1 * * p E F.F.d.w.B.C.!.&X=X}.'.'.",
"'.|..X@X}.}. X}.5X'.`.{. Xa.q O 0 y u ; : 4 u y O O r f.%X%Xz.k.!.=X&X=X5X;XQ.;X",
"].OX}.N.b.P.}. X<X3X[.Q. Xs.Z :.A y -.u 3 u -.y g :.v u.D.F.F.[.!.[.L.Q.;X}.L.}.",
"OX}.Q.c.A.}.=X!.N.N.M.[.!.u.l 3.Z q y b =.=.y q Z Z c I z.Q.%X%X*X'. X&XN.S. X=X",
"Q.}.>X!.!.Q.&X X'.k.W.>XQ.I @ # # X w n ;.n w X X X & q.F.%X$XF.[.Q.&X Xz.z.[.*X",
"=X}.XX[.=XXX&X X=X[.$X!.>XV.U K K P T r.r.r.P K K K ! ~.2X2X%X2X&X;X X X;X*X[.*X"
};
