/* XPM */
static char *w1673087314[] = {
/* columns rows colors chars-per-pixel */
"40 40 143 2 ",
"   c #561100",
".  c #551B00",
"X  c #5B1C00",
"o  c #621E00",
"O  c #572400",
"+  c #5D2200",
"@  c #5E2800",
"#  c #632400",
"$  c #6A2500",
"%  c #652A00",
"&  c #6B2D00",
"*  c #712500",
"=  c #722D00",
"-  c #7A2C00",
";  c #673200",
":  c #6C3200",
">  c #6C3900",
",  c #733400",
"<  c #7A3500",
"1  c #743A00",
"2  c #7B3B00",
"3  c #7B3B0A",
"4  c #7D4300",
"5  c #7E4108",
"6  c #794B0F",
"7  c #833600",
"8  c #823C00",
"9  c #8C3F00",
"0  c #844300",
"q  c #8A4500",
"w  c #844A01",
"e  c #8C4B01",
"r  c #84470E",
"t  c #8A4409",
"y  c #854B0A",
"u  c #8A4E0C",
"i  c #924300",
"p  c #924C01",
"a  c #994D00",
"s  c #9C4F09",
"d  c #8D5107",
"f  c #8D520D",
"g  c #945301",
"h  c #9B5401",
"j  c #945D04",
"k  c #9E5A03",
"l  c #92560E",
"z  c #9A550B",
"x  c #935A0B",
"c  c #9C5A0A",
"v  c #844C15",
"b  c #894D13",
"n  c #8C4E1C",
"m  c #934C16",
"M  c #855517",
"N  c #8E5312",
"B  c #8E5810",
"V  c #87561B",
"C  c #8C541B",
"Z  c #8C5A1C",
"A  c #925613",
"S  c #9C5714",
"D  c #945A14",
"F  c #9A5D15",
"G  c #93561A",
"H  c #9D571C",
"J  c #955A1B",
"K  c #9A5E1B",
"L  c #A25501",
"P  c #A35B03",
"I  c #AC5C05",
"U  c #A45C0A",
"Y  c #AA5E0B",
"T  c #A35D14",
"R  c #A95D11",
"E  c #A45F1B",
"W  c #AC5E1E",
"Q  c #976006",
"!  c #9D650E",
"~  c #9E680E",
"^  c #9B6314",
"/  c #9D6916",
"(  c #9C631C",
")  c #9F6818",
"_  c #A56202",
"`  c #AB6403",
"'  c #AE6903",
"]  c #A4620D",
"[  c #AB620C",
"{  c #AD6A0C",
"}  c #B26E03",
"|  c #B3630D",
" . c #B26B0C",
".. c #A46315",
"X. c #AC6412",
"o. c #A36A15",
"O. c #AB6914",
"+. c #A3631B",
"@. c #AA651B",
"#. c #A46A1B",
"$. c #AC6A1C",
"%. c #B16612",
"&. c #B36B15",
"*. c #B36719",
"=. c #B36B1B",
"-. c #B96D1B",
";. c #B5711C",
":. c #B9711D",
">. c #8B4C20",
",. c #8D5C21",
"<. c #945723",
"1. c #975A23",
"2. c #9A5E21",
"3. c #975928",
"4. c #9B5F2B",
"5. c #A55F21",
"6. c #946225",
"7. c #9D6223",
"8. c #946328",
"9. c #9E632B",
"0. c #A36523",
"q. c #AB6525",
"w. c #A56B21",
"e. c #AB6B22",
"r. c #A1662C",
"t. c #AB652A",
"y. c #A66B28",
"u. c #AC6B2C",
"i. c #B16321",
"p. c #B26D24",
"a. c #B46F2E",
"s. c #A57022",
"d. c #AB7324",
"f. c #A6702A",
"g. c #AD722D",
"h. c #AF7828",
"j. c #B47125",
"k. c #B97423",
"l. c #BD7926",
"z. c #B2722A",
"x. c #A86D31",
"c. c #AC7330",
"v. c #B57832",
/* pixels */
"$ g w g e e 2 o g w q q e o e e w e e e o q q d q g # 9 e e w e l + 2 l w 0 l 2 ",
"u z.z #.F +.K 0 j.F e.#.0.1 #.+.+.@.+.#.1 y.#...o.$.2 7.0.+.$.+.d.4 l w.( e.w.^ ",
"1 7.C 9.1.K u & r.b 2.G N : 7.C <.J x D & 3.J D D 7.: 1.l D 2.V 6.1 y D D D B B ",
"% , : X + : & + , : + % & + , & % + : > X : : & . , X : : : . : : + % & , . & & ",
"&.` k.7 h  .' &.U -.q h  . .Y *.U 9 } }  .Y %.U 7 &.&.[ } } < p.X.*.X.Y -.- *.%.",
"P a -.7 L  ._ _ L *.7 p ` ` L X.i 7 _ ` [ L Y L - [ %.P ` _ * *.U X.U U %.* [ Y ",
", < 2 o & < < = < 2 $ = < $ 1 2 , $ < < $ , 2 , X 0 $ = < 2 o < < = = 2 < o < < ",
"1 7.A F J 1.b & ( l J G C & J D D J D G $ <.J x x 0.: >.G K K l F 2 2 E l K e D ",
"A g.^ / ^ 7.J 4 h.Q #.w.2.2 s.^ / ) #.w.: x./ o.~ #.4 9.7.) ) ( e.4 J c.7.y.0.K ",
"% 0 4 w w 0 > + w 4 4 4 4 # w 4 4 2 w 0 + w 4 w 4 w # 0 w w 4 4 y # , w 4 2 0 2 ",
"0 q 0 $ = 0 0 8 0 q , 1 q < 9 q 2 = e w , q q 7 # q - 2 0 8 % 8 q , 8 q 0 $ q 0 ",
"@.@.u.t S $.@.@.5.t.8 t p.$.0.q.m 8 $.X.@.t.q.K = z.t.@.X...< u.q...p.@...< T $.",
"x l 2.2 u ! x x A K 1 4 ^ x D J v 1 ! j x D J u & 0.D x Q j : 7.J N F D D : D F ",
"$ , 1 X $ : : % , 2 & & , + & 1 , + 2 & X & , : + 1 . # , 2 . : 1 + + > , # 1 & ",
"q X.%.&.=.*.h 7 *.X.%.X.R 7 X.%.*.[ &.U 7 *.[ [  .-.9 R %.=.[ X.=.0 h X.X.X.O.U ",
"i =.P [ U R s 7 -.h Y X.T 7 *.P U Y Y X.- i.U ` P Y 7 W R Y R P X.7 h $.P ] Y P ",
"o 1 1 & , 1 $ X 1 , % & , X , < = & , <   , , , $ 2 X , = 2 = = 2 X $ 1 1 % < & ",
"G A J , 0 D A A N K 2 0 A u N D y 2 G G N N J u , J u N b A : A N l f N K & A l ",
"@.F a.e E u.@.@.E z.8 p u.p.E 0.B 4 #./ d./ f.J > g.s./ #./ : c.K z.@.E z.= E e.",
"p q q # = w q q 0 e & , p 0 w e 1 & w w 4 w w 2 X l 4 4 w 4 . f 2 0 0 q p o 0 q ",
"$ p 8 p q e < o p 7 8 8 0 # q q 8 0 8 q o q 0 8 < p # 7 e 0 < 0 e % < p 8 8 q 0 ",
"d v.D e.K ( F w z.F e.w.#., t.@.@.a.+.t.* p.E $.@.p.< E q.@.p.T d.2 l z.F z.q.F ",
"> 8.C 6.,.,.M ; 8.V ,.Z ,.; ,.1.D G <.3.& 1.D D J K : 3.<.1.J C 6.> 6 8.M ,.Z M ",
"@ > & O @ ; % O ; > @ O ; O ; : : + : : + $ : & + : . : & & X : > O O ; ; . ; % ",
"%.[ =.9 a *.| %.[ -.q i -.%.Y %.k 0 &._  .[ O.U - :.[ _ `  .= =.X.X.%.U %.- X.%.",
"L I [ i a | I I I I 9 a | I I [ a q  ._ ` P X.h < &.k _ _ _ 7 X.%.L | I I 7 I I ",
", 8 , # % 2 < , 8 , % & < # 2 < & + 0 : ; 1 2 ; # 2 % 1 2 , # 1 2 % 1 2 , # < 1 ",
"1 ( F 0.( ( y & y.A D D F , ( D F A ( D , D F F D D 4 A J D A D F 1 N F J l F D ",
"f e.( ( F +.f 4 g.( 0.#.F 1 #.+.$.@.5.t.= t.T $.@.+.8 H t.5.E ..#.4 N #.0.#.w.^ ",
"& w e 0 0 u 1 # e 0 2 4 0 # 0 w 0 8 0 t o e 8 0 7 e * 2 w q < w e $ 1 w w 1 e 2 ",
"0 0 0 # = w 0 8 0 0 & , w < 8 q 1 % w 0 , 0 4 2 # e 2 2 0 w X 0 q < 0 8 q o 0 8 ",
"@.+.j.e c j.@.@.@.p.q p j.e...e.F 0 d...#.o.g.7., v.#.#.o.e.: z.#.@.e...e.< @.$.",
"A u K , 4 ^ C D u 7.: 5 A F f A r & F f D N G v $ 3.J f f A % 1.N ( f C K : r J ",
"# 1 : & & 1 & X 2 : % $ : + 1 , & # 2 : X : , & o 1 + , : , % = 1 + & , : # & : ",
"e l.z k.` { z 7 l.c p.p.X.< O.[ O.&. .' 2  .O.@.@.O.8 ' _ { ;.U ;.< c j.T j.@.T ",
"0 $.z $.k ] p < $.k 0.E U 1 ] ] c ] _ _ & ` P ..X.] 2 _ _ _ [ c O., g $.z @.T z ",
"% 1 1 $ & 2 & # , 1 $ % 1 + , , & # 1 > . 1 : & # , + 1 1 > X 1 , # % 2 : # & , ",
"G u 7., w F b <.u 7.3 3 K D A J v : J D A A <.n & 1.C f A Z + 4.N J b J 1.& G G ",
"[ k =.2 g { ] X.P $.e e O.` [ ] z 4 $.] O...@.S 2 0.X.] ] ..: e.] [ ] X.@.- X.X.",
"h i P < q k p h h h 7 8 P p k h q , k e g p k i - h h h g h = g h e k h h $ L h "
};
